<?xml version="1.0" encoding="UTF-8" standalone="no"?>
<!-- Created with Inkscape (http://www.inkscape.org/) -->

<svg
   width="108.469"
   height="97.372002"
   viewBox="0 0 28.69909 25.763008"
   version="1.1"
   id="svg63734"
   inkscape:version="1.2.2 (732a01da63, 2022-12-09)"
   sodipodi:docname="belarus.svg"
   xmlns:inkscape="http://www.inkscape.org/namespaces/inkscape"
   xmlns:sodipodi="http://sodipodi.sourceforge.net/DTD/sodipodi-0.dtd"
   xmlns="http://www.w3.org/2000/svg"
   xmlns:svg="http://www.w3.org/2000/svg">
  <sodipodi:namedview
     id="namedview63736"
     pagecolor="#ffffff"
     bordercolor="#000000"
     borderopacity="0.25"
     inkscape:showpageshadow="2"
     inkscape:pageopacity="0.0"
     inkscape:pagecheckerboard="0"
     inkscape:deskcolor="#d1d1d1"
     inkscape:document-units="mm"
     showgrid="false"
     inkscape:zoom="0.72515432"
     inkscape:cx="-152.38136"
     inkscape:cy="210.30006"
     inkscape:window-width="1920"
     inkscape:window-height="1001"
     inkscape:window-x="-9"
     inkscape:window-y="-9"
     inkscape:window-maximized="1"
     inkscape:current-layer="layer1" />
  <defs
     id="defs63731" />
  <g
     inkscape:label="Layer 1"
     inkscape:groupmode="layer"
     id="layer1"
     transform="translate(-57.89242,-92.876529)">
    <path
       style="fill:#f0ef19;fill-opacity:1;stroke:#000000;stroke-width:0.4;stroke-dasharray:none"
       d="m 69.867859,93.190967 c -1.002244,0.495875 -1.160145,2.126608 -2.517828,2.063817 -0.92874,0.09961 -2.048986,1.097608 -1.267507,2.022999 0.657053,0.543298 0.743894,0.936281 -0.09381,1.389962 -0.661543,0.590267 -1.098526,1.366905 -1.550368,2.105705 -0.323416,1.14609 -0.704329,2.53174 0.150024,3.54795 -0.742691,-0.1922 -1.529723,-0.0886 -2.021568,0.54209 -0.435266,0.0469 -0.878443,0.33635 -0.662397,0.83283 -1.134134,0.46831 -2.510298,0.33688 -3.566208,0.93918 0.263226,1.79774 1.62387,3.36478 1.556626,5.25336 0.515196,1.4926 -1.542712,1.92195 -1.796878,3.22999 0.284234,0.98387 1.796134,1.30881 1.466942,2.52821 -0.15063,1.10457 1.467578,0.95691 1.769497,0.15432 0.964184,-1.58731 3.116305,-1.73393 4.796792,-1.64702 1.953316,0.18004 4.069684,-0.24721 5.85206,0.7415 1.074542,0.29326 1.996101,-0.78771 3.084269,-0.34122 0.914993,0.37501 1.703655,-0.16767 2.32627,-0.78593 0.486658,-0.11982 0.766244,0.82279 1.358812,0.53851 0.980708,-0.37479 2.124819,-0.65781 3.052401,-0.0322 0.716348,-0.30943 0.197519,-1.41275 0.362717,-2.02434 -0.116933,-1.10664 0.575786,-2.16813 1.68176,-2.43927 0.648465,-0.092 0.87938,-0.63534 0.501605,-1.16275 -0.398626,-1.38653 -1.261935,-2.66004 -1.533152,-4.05647 0.713441,-1.35928 2.890182,0.15736 3.48314,-1.30009 0.487669,-1.25771 -1.088674,-1.9334 -1.945659,-2.40969 -1.207918,-0.82257 -2.234562,-1.88689 -3.483139,-2.67144 -1.431994,-0.904644 -1.897989,-2.560243 -2.158701,-4.101853 -0.257863,-1.323057 -1.393323,-3.01996 -2.94427,-2.604477 -0.58873,0.107228 -1.268672,0.777971 -1.750164,0.67708 -0.182504,-0.562557 -0.68358,-1.120479 -1.282544,-0.720402 -0.951187,0.08752 -1.967005,0.0029 -2.868721,-0.270331 z"
       id="path63720" />
  </g>
</svg>
