<?xml version="1.0" encoding="UTF-8" standalone="no"?>
<!-- Created with Inkscape (http://www.inkscape.org/) -->

<svg
   width="114.705"
   height="153.474"
   viewBox="0 0 30.349027 40.606663"
   version="1.1"
   id="svg3384"
   inkscape:version="1.2.2 (732a01da63, 2022-12-09)"
   sodipodi:docname="germany.svg"
   xmlns:inkscape="http://www.inkscape.org/namespaces/inkscape"
   xmlns:sodipodi="http://sodipodi.sourceforge.net/DTD/sodipodi-0.dtd"
   xmlns="http://www.w3.org/2000/svg"
   xmlns:svg="http://www.w3.org/2000/svg">
  <sodipodi:namedview
     id="namedview3386"
     pagecolor="#ffffff"
     bordercolor="#000000"
     borderopacity="0.25"
     inkscape:showpageshadow="2"
     inkscape:pageopacity="0.0"
     inkscape:pagecheckerboard="0"
     inkscape:deskcolor="#d1d1d1"
     inkscape:document-units="mm"
     showgrid="false"
     inkscape:zoom="0.72515432"
     inkscape:cx="-134.45414"
     inkscape:cy="76.535433"
     inkscape:window-width="1920"
     inkscape:window-height="1001"
     inkscape:window-x="-9"
     inkscape:window-y="-9"
     inkscape:window-maximized="1"
     inkscape:current-layer="layer1" />
  <defs
     id="defs3381" />
  <g
     inkscape:label="Layer 1"
     inkscape:groupmode="layer"
     id="layer1"
     transform="translate(61.549852,-127.81283)">
    <path
       style="fill:#f0ef19;fill-opacity:1;stroke:#000000;stroke-width:0.4;stroke-dasharray:none"
       d="m -50.215764,128.01612 c -0.942946,0.32008 -0.235286,1.60646 0.0555,2.19021 0.32004,0.42804 -0.802706,0.55735 -0.435034,1.17155 0.156801,0.6825 1.067303,1.38993 0.120349,1.86589 -0.563007,0.45381 -0.836848,1.20288 -1.197729,1.74293 -0.477425,-0.0781 -1.110364,1.11361 -1.094568,0.19442 0.148989,-1.09711 -1.086353,-1.56584 -1.952821,-1.17942 -0.871509,0.16378 -1.98033,1.17599 -1.272162,2.03159 -0.07493,1.08611 -0.05089,2.45547 -0.885108,3.2504 -0.614267,-0.0755 -1.432308,0.90609 -0.527412,1.0935 0.763754,0.21922 0.517916,1.18258 -0.05263,1.49988 -0.55595,0.44997 -0.521401,1.58903 -1.51707,1.33554 -0.57253,-0.0886 -1.844292,-0.32632 -1.687502,0.64306 0.178543,0.95291 0.817679,2.13972 -0.194067,2.87123 -1.10748,0.88766 -0.03609,2.31185 0.180459,3.36426 0.422418,0.59853 0.262517,1.24691 -0.255587,1.72013 -0.95558,0.90114 0.506449,1.83684 0.523769,2.74766 -0.717627,1.26983 0.348829,2.9385 1.73201,3.08989 1.325438,0.20818 2.313461,1.21187 3.603696,1.54475 -1.349973,2.00437 -2.70324,4.23672 -2.827544,6.71134 0.464731,0.69938 1.668826,0.26582 2.454453,0.38097 0.456303,0.055 0.897451,-0.22082 0.900144,-0.66849 0.975434,0.17696 1.931408,0.5267 2.90345,0.71862 0.637024,0.51408 1.409931,0.71021 2.132566,0.99968 0.469852,0.3166 1.111443,1.39272 1.624843,0.59544 0.223719,-0.44998 0.372298,-1.03413 0.946693,-0.52168 0.890132,0.44194 1.82603,0.95937 2.736323,0.22843 1.715196,-0.83481 3.716036,-0.3093 5.487795,-0.7025 0.201625,-0.77967 -0.359693,-1.66115 -0.186905,-2.41434 0.866299,-0.51145 1.706608,-1.09044 2.247141,-1.95641 0.646488,-0.32719 1.533369,-0.86647 1.168686,-1.74014 -0.347141,-0.87245 -1.548281,-0.70114 -1.943153,-1.56504 -0.459155,-0.78529 -1.278589,-1.20958 -1.959266,-1.72188 -0.376172,-1.18061 -0.289621,-2.55865 -1.188379,-3.53792 -0.585359,-0.74035 0.65681,-0.68303 1.002906,-0.96925 2.000515,-0.94146 4.113197,-1.81591 5.966349,-2.95473 0.05098,-0.7221 0.0016,-1.17675 0.65441,-0.46396 0.475766,0.59902 1.498018,0.44402 1.50382,-0.41176 0.307893,-1.57629 -1.023165,-2.91474 -0.892654,-4.50757 -0.205806,-1.21696 0.09435,-2.61176 -0.423119,-3.70983 -0.637484,-0.54974 -1.584034,-1.46549 -0.800677,-2.32368 0.815589,-1.10946 -0.147222,-2.67939 0.827818,-3.69224 -0.05144,-0.90284 -1.202359,-1.306 -1.901619,-1.68786 -0.541329,-0.10669 -1.97707,-0.50936 -1.227407,-1.25355 0.88614,-0.39693 -0.104233,-1.82578 -0.722908,-1.5765 -0.207481,0.51482 -0.287038,1.30614 -1.066281,1.0516 -1.521135,0.11279 -2.635991,1.36126 -4.032396,1.86054 -0.728342,0.67114 -1.585005,-0.007 -2.381406,-0.17519 0.22343,-0.4882 0.874067,-1.68028 -0.133554,-1.68822 -0.772414,-0.24913 -2.191845,-0.12526 -2.177679,-1.28183 -0.09747,-0.92278 -0.806556,-1.80171 -1.809957,-1.66781 -0.699852,-0.0783 -1.331378,-0.46287 -2.026579,-0.53171 z"
       id="path7688" />
  </g>
</svg>
