<?xml version="1.0" encoding="UTF-8" standalone="no"?>
<!-- Created with Inkscape (http://www.inkscape.org/) -->

<svg
   width="216.464"
   height="270.758"
   viewBox="0 0 57.272768 71.638053"
   version="1.1"
   id="svg89620"
   inkscape:version="1.2.2 (732a01da63, 2022-12-09)"
   sodipodi:docname="norway.svg"
   xmlns:inkscape="http://www.inkscape.org/namespaces/inkscape"
   xmlns:sodipodi="http://sodipodi.sourceforge.net/DTD/sodipodi-0.dtd"
   xmlns="http://www.w3.org/2000/svg"
   xmlns:svg="http://www.w3.org/2000/svg">
  <sodipodi:namedview
     id="namedview89622"
     pagecolor="#ffffff"
     bordercolor="#000000"
     borderopacity="0.25"
     inkscape:showpageshadow="2"
     inkscape:pageopacity="0.0"
     inkscape:pagecheckerboard="0"
     inkscape:deskcolor="#d1d1d1"
     inkscape:document-units="mm"
     showgrid="false"
     inkscape:zoom="4.1020923"
     inkscape:cx="96.414213"
     inkscape:cy="136.88137"
     inkscape:window-width="1920"
     inkscape:window-height="1001"
     inkscape:window-x="-9"
     inkscape:window-y="-9"
     inkscape:window-maximized="1"
     inkscape:current-layer="layer1" />
  <defs
     id="defs89617">
    <clipPath
       clipPathUnits="userSpaceOnUse"
       id="clipPath53812">
      <path
         id="path53814"
         style="opacity:0;fill:none;stroke-width:2.00001"
         d="M 5.5430051,25.714844 V 1111.832 H 1302.2195 V 354.95279 c -0.6882,-1.24955 -1.3545,-2.55044 -1.9568,-4.00311 -4.4778,-10.80069 -9.9158,-21.17281 -15.4698,-31.4504 -5.0564,-10.05517 -10.8206,-19.62936 -17.8018,-28.45171 -7.7431,-9.26801 -15.6832,-18.3712 -23.8309,-27.28569 -9.5875,-10.37072 -19.3106,-20.60948 -29.3984,-30.49509 -9.5199,-9.7068 -19.116,-19.35293 -28.0736,-29.58595 -8.9426,-9.9709 -16.6539,-20.92506 -24.1687,-31.98436 -7.1163,-10.29617 -13.5599,-20.97293 -19.1698,-32.16041 -4.8515,-11.07694 -9.7126,-22.16392 -13.6284,-33.61214 -3.5566,-10.741819 -2.5668,-22.092098 -3.4807,-33.17056 -0.3522,-6.502628 -2.066,-12.731404 -4.4043,-18.765769 -3.1034,-6.656374 -6.6531,-13.081188 -9.6599,-19.781694 -1.2978,-2.811616 -2.4876,-5.669777 -3.7636,-8.491063 z m 1134.1225949,0 c 2.8559,5.942136 6.0737,11.709859 8.6354,17.796021 3.2877,8.712709 5.7038,17.706657 6.2543,27.051916 0.3961,5.695844 0.5301,11.434557 0.9726,17.135091 2.1172,2.050854 4.1471,4.705781 5.9686,8.05814 0.6013,1.106741 1.2025,2.212332 1.8038,3.319076 4.9571,8.392612 9.637,17.026282 16.5752,24.015682 6.2432,7.1655 13.2748,13.42975 20.7803,19.26219 7.2981,6.42013 14.4112,13.05373 21.8799,19.27373 19.3977,16.15301 8.4941,35.60594 -9.4262,28.44304 6.9225,7.5487 14.0972,14.86658 21.2364,22.20894 10.461,10.27012 20.5728,20.88321 30.5181,31.65534 8.6322,9.45314 17.0568,19.09794 25.2366,28.94523 4.3971,5.6212 8.4048,11.48255 12.1189,17.53337 V 25.714844 Z M 684.47593,882.37709 c 0.33544,0.007 0.66547,0.24156 0.8341,0.81101 0.0363,0.1228 0.25,0.14803 0.29439,0.25976 0.33708,0.31394 0.61995,0.6713 0.78213,1.10826 0.11497,0.30624 0.23466,0.60309 0.41273,0.88029 0.8525,1.32715 -0.19343,1.71211 -1.19486,1.03036 -0.29642,0.43945 -1.0856,0.21904 -1.86734,-0.72155 -0.0276,-0.0331 -0.0464,-0.0907 -0.0981,-0.0836 -0.20345,-0.12649 -0.37355,-0.28847 -0.53684,-0.46178 -0.896,-0.95094 -0.37702,-1.94817 0.37521,-1.96258 0.04,-7.7e-4 0.0801,0.003 0.12117,0.009 0.12383,-0.49326 0.44965,-0.8785 0.87739,-0.86873 z m -32.64528,19.79324 c 0.027,-0.001 0.0567,-5.6e-4 0.0836,0 0.0619,10e-4 0.14718,0.0748 0.21357,0.0866 0.1817,-0.0347 0.3807,-0.0535 0.59744,-0.052 0.0792,4.9e-4 0.16156,0.003 0.24533,0.009 0.51961,0.0374 1.02809,0.12103 1.53255,0.25108 0.63651,0.19695 1.21481,0.52348 1.75188,0.91204 0.41997,0.36999 0.85957,0.70809 1.32475,1.01881 0.51296,0.34401 1.04276,0.66033 1.54986,1.01303 0.46199,0.32811 0.88228,0.70791 1.33053,1.05346 0.45769,0.36344 0.90498,0.74033 1.34205,1.12848 0.0681,0.0572 0.13669,0.11586 0.20492,0.17316 0.2734,0.22959 0.47912,0.46329 0.6263,0.69556 0.0885,0.0335 0.17756,0.0661 0.26552,0.10108 0.33952,0.15921 0.68551,0.29931 1.03323,0.43868 0.39155,0.16601 0.7586,0.37769 1.11984,0.60032 0.40365,0.22983 0.76323,0.52486 1.14003,0.7937 0.32904,0.25241 0.67884,0.47742 1.01592,0.71865 0.14024,0.0881 0.0702,0.0466 0.20492,0.11837 1.6772,0.89372 0.72099,2.6171 -0.93223,1.67973 -0.2685,-0.15222 -0.13772,-0.0718 -0.39539,-0.23954 -0.33445,-0.24261 -0.6864,-0.46227 -1.01305,-0.71578 -0.33991,-0.24428 -0.66273,-0.51334 -1.02746,-0.72153 -0.26844,-0.16552 -0.53827,-0.32717 -0.82833,-0.45313 -0.31221,-0.1256 -0.62376,-0.25153 -0.92935,-0.39252 -0.50125,0.22124 -1.24253,0.11629 -2.02896,-0.54836 -0.0863,-0.073 -0.17336,-0.1463 -0.25976,-0.21934 -0.39157,-0.34871 -0.79337,-0.68666 -1.20352,-1.01305 -0.41289,-0.32222 -0.8042,-0.66842 -1.22662,-0.9784 -0.48553,-0.34887 -1.0133,-0.6363 -1.50368,-0.97841 -0.49292,-0.33274 -0.97429,-0.68088 -1.41422,-1.0823 -0.0981,-0.0736 -0.19972,-0.14098 -0.30304,-0.20493 -0.14614,-0.0449 -0.17342,0.11762 -0.3348,0.026 -0.0968,-0.055 -0.20509,-0.10949 -0.29439,-0.17605 -0.0782,-0.0584 -0.10093,-0.12162 -0.16738,-0.18183 -0.3025,-0.0613 -0.60727,-0.0978 -0.91781,-0.12117 -2.02504,-0.15185 -2.32696,-1.72282 -1.19774,-2.3984 9.9e-4,-10e-4 0.004,10e-4 0.006,-0.003 0.1327,-0.12058 0.175,-0.32574 0.38963,-0.33768 z m 20.281,8.4622 c 0.42636,-0.0231 0.91574,0.31635 1.16024,1.11118 0.0358,0.11659 0.0693,0.23309 0.10684,0.34921 0.0916,0.23606 0.22875,0.45038 0.34922,0.67248 0.0613,0.13003 0.16172,0.2235 0.27419,0.3117 1.29146,1.01289 0.58331,1.97598 -0.6061,1.61047 -0.3222,1.19907 -1.74662,1.13901 -1.84713,-0.48198 -0.0197,-0.31716 -0.12812,-0.61613 -0.22801,-0.91491 -0.0969,-0.24895 -0.19619,-0.49685 -0.28862,-0.74752 -0.39022,-1.05878 0.0881,-1.72358 0.67824,-1.71436 0.0974,9.9e-4 0.19732,0.0241 0.29729,0.0635 0.0774,-0.0325 0.0191,-0.25517 0.10388,-0.25975 z M 38.976205,927.25967 c 0.762945,0.0356 1.632587,0.61101 2.236769,1.90196 0.441882,0.94414 0.766169,1.91133 0.834098,2.9612 0.07987,1.26832 -0.08826,2.33244 -0.623409,3.48934 -0.489655,1.00793 -1.083054,1.98843 -1.959699,2.71011 -1.119337,0.92153 -2.16465,1.06697 -2.868836,0.75906 -0.270396,0.18529 -0.440125,-0.0928 -0.698448,-0.0491 -0.228404,2.43407 -2.398864,2.74147 -3.356597,0.74751 -0.429914,-0.39578 -0.852639,-0.95634 -1.223729,-1.68262 -0.257907,-0.50489 -0.30697,-1.14454 -0.181827,-1.69995 0.05116,-0.22706 0.159368,-0.43666 0.23955,-0.65516 0.05896,-0.10358 0.117095,-0.20812 0.176056,-0.3117 0.164464,-0.28893 0.349053,-0.52911 0.545483,-0.7273 0.04903,-0.38676 0.03923,-0.78063 0.132763,-1.16312 0.394983,-1.61533 1.337326,-2.34485 2.193476,-2.34646 0.350482,-6.7e-4 0.685698,0.12265 0.963976,0.355 0.354398,-0.99639 0.92574,-1.66384 1.601816,-1.69706 0.179208,-0.009 0.3126,0.1944 0.484872,0.2511 -0.522615,-1.76079 0.373943,-2.89562 1.503686,-2.84285 z m 752.180615,35.68727 c 0.22086,-0.0164 0.49227,0.10255 0.74173,0.41562 0.14913,0.18713 0.29559,0.37823 0.43293,0.57432 0.27813,0.38744 0.55206,0.77859 0.83411,1.16312 0.21443,0.27815 0.41809,0.5636 0.64938,0.82833 0.23444,0.26287 0.47415,0.52198 0.69844,0.7937 0.15216,0.18951 0.29241,0.38895 0.4358,0.5859 0.0971,-0.001 0.19411,-0.001 0.29151,-0.003 0.0672,-9.8e-4 0.13462,3.5e-4 0.20203,0 -0.11127,-0.52302 0.0163,-0.92738 0.31171,-0.90913 0.19799,0.0118 0.43236,0.17604 0.6234,0.53106 0.15507,0.28815 0.18583,0.6725 0.45891,0.88315 0.25495,0.17487 0.56691,0.21425 0.86585,0.25687 0.0392,0.004 0.0789,-10e-4 0.11836,0.006 0.11098,-0.27747 0.45713,-0.54195 1.03036,-0.63494 0.32272,-0.0523 0.62976,-0.16867 0.94377,-0.25687 0.48389,-0.13255 0.98212,-0.18732 1.48061,-0.22801 0.18841,-0.0216 0.37599,-0.0331 0.5599,-0.0318 0.30654,0.003 0.60656,0.0415 0.90915,0.13565 0.0656,0.0256 0.13048,0.0526 0.19626,0.0779 0.68001,0.26442 0.87449,0.74559 0.72731,1.08518 h 0.003 c 0.38221,0.12118 0.76212,0.24656 1.13137,0.40407 0.43903,0.17255 0.8422,0.42115 1.24681,0.66092 0.38571,0.24907 0.75119,0.52178 1.0823,0.83987 0.35966,0.34011 0.66877,0.72703 0.96399,1.12272 0.30854,0.40909 0.54447,0.84763 0.70422,1.3334 0.3358,1.02129 -0.71254,1.36078 -1.03323,0.33479 -0.11719,-0.37426 -0.30817,-0.70404 -0.54261,-1.01881 -0.26003,-0.34871 -0.52813,-0.69074 -0.84564,-0.98995 -0.2691,-0.26136 -0.57049,-0.47987 -0.88317,-0.6869 -0.36364,-0.21598 -0.72472,-0.4429 -1.11983,-0.59743 -0.35196,-0.15153 -0.71545,-0.26509 -1.07942,-0.38385 -0.33311,-0.12325 -0.67165,-0.21578 -1.02169,-0.27997 -0.33624,-0.0711 -0.67485,-0.0584 -1.01592,-0.0318 -0.33083,0.0229 -0.66246,0.0507 -0.98419,0.13565 -0.42155,0.1064 -0.84543,0.20239 -1.28434,0.1674 -0.4818,-0.0133 -0.9644,-0.0271 -1.44307,-0.0896 -0.5296,-0.0785 -1.05327,-0.19185 -1.46907,-0.55414 -0.0315,-0.033 -0.0434,-0.0757 -0.0663,-0.11261 -0.007,6.4e-4 -0.0133,0.003 -0.0202,0.003 -0.0332,0.10078 -0.076,0.20438 -0.13846,0.31459 -0.19252,0.33899 -0.37321,0.6817 -0.56858,1.01881 -0.24267,0.34571 -0.51117,0.67246 -0.76482,1.01016 -0.0842,0.11216 -0.17162,0.20613 -0.25975,0.28283 0.0804,0.32738 0.17053,0.64731 0.33191,0.94667 0.25381,0.31817 0.48405,0.64703 0.684,1.00149 0.1637,0.40372 0.37425,0.77255 0.63208,1.12272 0.26047,0.3222 0.55789,0.61131 0.82255,0.92935 0.24849,0.29288 0.48847,0.60156 0.77927,0.85429 0.28666,0.23732 0.61353,0.41227 0.90047,0.64938 0.32362,0.34725 0.63727,0.70295 0.96687,1.04478 0.30676,0.29111 0.65434,0.53958 1.00725,0.77062 0.89981,0.58846 0.29987,1.49839 -0.59742,0.90625 -0.41981,-0.27702 -0.83116,-0.57133 -1.19198,-0.92357 -0.30344,-0.31626 -0.60046,-0.63727 -0.88605,-0.96975 -0.28272,-0.25301 -0.6474,-0.39903 -0.92068,-0.6667 -0.32647,-0.29607 -0.61824,-0.63244 -0.8976,-0.97263 -0.27484,-0.33652 -0.5949,-0.63284 -0.86007,-0.9784 -0.28102,-0.3853 -0.52511,-0.78788 -0.70134,-1.2324 -0.20237,-0.36335 -0.46235,-0.68295 -0.69844,-1.02459 -0.22025,-0.41879 -0.37733,-0.85748 -0.47333,-1.32185 -0.0149,-0.0511 -0.0409,-0.0983 -0.0548,-0.15008 -0.0173,-0.0328 -0.0319,-0.0693 -0.0433,-0.10684 -0.003,-0.0103 -0.006,-0.0192 -0.009,-0.0288 -0.0697,-0.25882 -0.12176,-0.5263 -0.28285,-0.74464 -0.28332,-0.38402 -0.006,-0.50123 0.14422,-0.68978 -0.1699,-0.0746 -0.34786,-0.20889 -0.51372,-0.41848 -0.31199,-0.39432 -0.63497,-0.77843 -0.95243,-1.1689 -0.33309,-0.421 -0.66066,-0.84666 -0.98707,-1.2728 -0.25863,-0.3591 -0.52155,-0.71192 -0.79945,-1.05633 -0.16416,-0.19304 -0.32166,-0.39382 -0.47622,-0.59455 -0.46633,-0.60555 -0.22565,-1.12272 0.19625,-1.1458 0.22101,-0.0118 0.49226,0.11245 0.73597,0.43004 0.0706,0.0919 0.14113,0.18355 0.21358,0.27417 0.0482,-0.21292 0.11629,-0.43396 0.32902,-0.45022 0.13211,-0.0104 0.28207,0.0307 0.43581,0.12989 -0.0375,-0.0491 -0.0736,-0.0989 -0.1126,-0.14718 -0.47853,-0.59596 -0.2456,-1.12027 0.17605,-1.15158 z m 9.5445,1.68264 c 0.18737,0.003 0.37396,0.0192 0.55992,0.0461 0.2944,0.0406 0.58097,0.11112 0.86583,0.19337 0.31162,0.0789 0.60651,0.2135 0.91205,0.3117 0.19265,0.0548 0.38716,0.1024 0.583,0.14437 0.70088,0.14978 0.5477,0.85787 -0.15298,0.70711 -0.13107,-0.0282 -0.26023,-0.0625 -0.38962,-0.0953 -0.0513,0.15266 -0.24097,0.26965 -0.55704,0.22223 -0.27623,-0.0414 -0.55194,-0.0969 -0.82544,-0.15297 -0.26963,-0.0789 -0.52448,-0.19421 -0.79657,-0.26551 -0.14615,-0.0327 -0.2948,-0.0572 -0.44447,-0.0636 -0.69394,-0.0229 -0.68134,-0.71831 -0.0288,-0.72441 0.021,-2.1e-4 0.0411,-1.8e-4 0.0635,0.003 0.007,4.3e-4 0.0154,0.003 0.0231,0.003 0.0321,-0.16186 -0.32251,-0.3162 0,-0.32613 0.0627,-10e-4 0.12516,-0.003 0.1876,-0.003 z m -9.41752,0.0808 c -0.018,-0.0148 0.009,0.0468 0.0202,0.0663 0.007,0.0118 0.0158,0.0207 0.0231,0.0318 -0.004,-0.0414 -0.0166,-0.077 -0.0433,-0.0981 z m -5.23259,4.32923 c 0.22287,0.007 0.50077,0.15811 0.7908,0.4993 0.39685,0.46712 0.57546,1.05419 0.77349,1.62203 0.26454,0.65346 0.28993,1.18791 0.16163,1.87888 -0.0343,0.11348 -0.0668,0.22716 -0.10108,0.34056 -0.41322,1.37255 -1.84204,0.92176 -1.38247,-0.4358 0.0211,-0.0624 0.0424,-0.12516 0.0635,-0.1876 0.10152,-0.46246 0.0697,-0.66874 -0.10683,-1.11984 -0.12723,-0.3652 -0.24227,-0.73765 -0.43291,-1.07652 -0.48327,-0.85908 -0.25655,-1.53599 0.23377,-1.52101 z m 7.59635,0.23955 c -0.0201,0.0807 -0.061,0.14841 -0.11541,0.19915 0.0287,0.03 0.0556,0.0167 0.0836,0.052 0.0133,0.0167 0.0103,0.0408 0.0231,0.0578 0.0495,-0.0627 0.0952,-0.12768 0.14437,-0.19048 -0.0454,-0.0257 -0.0901,-0.0826 -0.13565,-0.11837 z m -8.36407,7.43473 c 0.26168,0.006 0.5748,0.14938 0.87162,0.48488 0.27494,0.31077 0.50837,0.65497 0.78503,0.96397 0.22878,0.29303 0.47637,0.56078 0.79947,0.7475 0.31877,0.16296 0.62136,0.34455 0.96109,0.4618 0.34994,0.12753 0.70262,0.25037 1.05921,0.35787 1.25661,0.37915 1.00774,1.5743 -0.0952,1.45175 0.84478,0.65177 0.4231,1.64514 -0.74751,1.09385 -0.42363,-0.19951 -0.84478,-0.40219 -1.2295,-0.67247 -0.49462,-0.33607 -0.9729,-0.68848 -1.42865,-1.07654 -0.43517,-0.29588 -0.91312,-0.53092 -1.32186,-0.86585 -0.35691,-0.29841 -0.70782,-0.60349 -1.05056,-0.91779 -0.75932,-0.69632 -0.50907,-1.47047 0.0866,-1.49503 0.21096,-0.009 0.47334,0.11512 0.74174,0.33191 -0.15822,-0.50342 0.13447,-0.87519 0.56858,-0.86585 z m -1.68264,31.57451 c 0.51213,0 1.0246,0.5045 1.0246,1.5181 v 2.0983 1.8356 c 0,2.0271 -2.04917,2.0271 -2.04917,0 v -1.8356 -2.0983 c 0,-1.0136 0.51275,-1.5181 1.02457,-1.5181 z m 28.0996,20.382 c 0.16286,-10e-4 0.35498,0.059 0.55992,0.2078 0.32145,0.2337 0.55928,0.5517 0.79946,0.863 0.28357,0.3774 0.58207,0.7436 0.8745,1.114 0.33901,0.4372 0.67301,0.8751 1.02169,1.3046 0.0933,0.1029 0.18523,0.2075 0.27707,0.3117 0.28901,0.2424 0.57464,0.4885 0.87163,0.7215 0.25039,0.2118 0.4883,0.4338 0.74752,0.635 0.0267,0.021 -0.003,0.037 0.0202,0.058 0.16103,0.1019 0.32415,0.2017 0.49065,0.2944 0.35896,0.1957 0.76217,0.2698 1.1458,0.3983 0.9611,0.3218 0.62863,1.2987 -0.32901,0.9668 -0.44045,-0.1527 -0.90819,-0.2331 -1.3161,-0.4733 -0.59351,-0.3328 -1.16256,-0.7124 -1.67974,-1.1544 -0.22698,-0.2217 -0.43872,-0.458 -0.64938,-0.6956 -0.10329,-0.086 -0.20648,-0.1725 -0.31171,-0.2569 -0.43882,-0.3871 -0.82682,-0.8306 -1.17754,-1.2987 -0.30154,-0.3868 -0.60866,-0.7722 -0.95533,-1.1199 -0.16769,-0.1673 0.0599,-0.1966 0.0318,-0.3463 -0.14732,-0.1926 -0.29945,-0.3799 -0.4993,-0.5224 -0.61891,-0.4414 -0.41046,-1.0042 0.0779,-1.0073 z m 3.91941,0.9294 c 0.1027,0 0.21681,0.015 0.33479,0.058 0.0262,0 0.0213,-0.042 0.0491,-0.043 0.223,-0.012 0.49326,0.064 0.78793,0.2684 0.33117,0.2293 0.70217,0.3734 1.07652,0.5137 0.4445,0.1704 0.87555,0.378 1.32764,0.5282 0.0565,0.016 0.11097,0.033 0.16739,0.049 0.0906,0.025 0.0343,0.097 0.10965,0.1299 0.29968,0.015 0.60032,0.022 0.90047,0.029 1.43302,0.032 1.40156,1.4809 -0.0318,1.4489 -0.53294,-0.012 -1.06748,-0.03 -1.59891,-0.075 -0.66397,-0.064 -1.32947,-0.1569 -1.95104,-0.4127 -0.57456,-0.2801 -1.06422,-0.6637 -1.42289,-1.2006 -0.49763,-0.7449 -0.23612,-1.2728 0.25111,-1.293 z m -28.90772,9.6311 c 1.46181,-0.039 1.90918,1.8129 0.27996,4.0059 -0.1955,0.2631 -0.38221,0.532 -0.55992,0.8082 -0.11467,0.2722 -0.29586,0.5156 -0.45313,0.7648 -2.02819,3.2146 -5.27503,1.1653 -3.24693,-2.0492 0.16976,-0.2691 0.35227,-0.5221 0.48488,-0.8139 0.40293,-0.611 0.81113,-1.234 1.3767,-1.7086 0.81887,-0.6872 1.54644,-0.9919 2.11844,-1.0072 z" />
    </clipPath>
  </defs>
  <g
     inkscape:label="Layer 1"
     inkscape:groupmode="layer"
     id="layer1"
     transform="translate(-24.945402,-43.859289)">
    <path
       style="fill:#f0ef19;fill-opacity:1;stroke:#000000;stroke-width:0.4;stroke-dasharray:none"
       d="m 74.814245,44.061616 c -0.738655,-0.04988 -1.13403,0.662876 -1.109442,1.320343 -0.116499,0.8746 -0.137957,1.782766 -0.481299,2.60853 -0.28077,-0.742442 -0.324903,-1.585205 -0.669414,-2.285217 -0.615458,0.329711 -0.668301,1.391204 -1.06081,2.003661 -0.36912,0.73324 -0.635886,1.729953 -1.084651,2.312833 -0.08048,-1.229169 0.384095,-2.479188 0.297235,-3.692401 -0.412909,-0.338139 -1.018209,-0.526373 -1.531242,-0.547632 -0.43172,0.435145 -0.234058,1.219143 -0.733213,1.654035 -0.915802,0.858095 -1.133739,2.141936 -1.042098,3.332884 0.0652,0.626436 -0.03221,0.955145 -0.490411,0.351922 -0.552468,-0.661365 -1.310592,-1.131459 -2.199391,-1.077541 -0.306623,0.0043 -1.115928,-0.237117 -0.960824,0.315211 0.329938,0.747328 0.910209,1.501297 1.260086,2.150272 -0.263284,0.06865 -0.362492,-0.421574 -0.646372,-0.440789 -0.603221,-0.549682 -1.224748,-0.425106 -1.605335,0.302002 -0.398913,0.431201 -0.790414,0.863988 -1.209538,1.271522 -0.225351,-0.390987 -0.0527,-1.263155 -0.618273,-1.299075 -0.618866,0.206937 -1.217395,0.635399 -1.671757,1.022601 -1.304342,0.479788 -2.530681,1.266382 -3.567329,2.193566 -0.301487,0.354239 -0.888148,1.04668 -0.440029,1.471998 0.452052,-0.0291 0.909548,-0.299081 1.393511,-0.157226 -0.611508,0.878254 -1.295173,1.711008 -2.043936,2.475864 -0.136215,-0.480811 -0.487227,-1.302142 -0.835247,-0.42408 -0.09919,0.291687 -0.340963,0.351975 -0.430662,0.02329 -0.22923,-0.492221 -0.804842,-0.152935 -0.757772,0.299007 0.02305,0.48054 -0.63921,0.970559 -0.321541,1.357307 0.464881,0.0507 1.142434,-0.232508 1.52213,-0.05697 -0.02413,0.561683 -0.612627,1.158221 -0.336227,1.685177 0.29129,0.02535 0.482748,0.0051 0.4456,0.417244 0.177861,0.492126 -0.296621,0.185483 -0.384582,-0.05823 -0.346612,-0.843081 -1.498381,-0.284728 -1.824429,0.298248 -0.274807,0.499243 -0.71093,1.092812 -0.63903,1.647706 0.379399,0.340765 0.896578,0.683637 1.201854,1.039818 -0.571492,0.182587 -1.466006,0.404761 -1.553017,1.100072 0.169201,0.324893 0.569024,0.446964 0.857528,0.640803 -1.471073,0.662813 -3.003264,1.544801 -3.617637,3.131748 -0.198755,0.530426 -0.85057,1.438275 -0.181354,1.876187 0.445537,0.211662 -0.361111,0.278358 -0.493958,0.46813 -0.608791,0.363043 -1.287124,0.883171 -1.103874,1.694294 0.04954,1.404676 -1.274252,2.488922 -1.00766,3.926089 -0.605915,0.767948 -1.787009,1.28882 -1.706952,2.443707 -0.140028,0.310073 0.247298,1.316707 -0.219001,1.166662 -0.557175,-0.321844 -1.243126,-0.284776 -1.646949,0.257739 -0.94946,0.983408 -1.62673,2.205976 -2.623468,3.141477 -0.190212,0.413181 0.507055,0.236418 0.484336,0.433194 -1.404657,0.646592 -2.729191,1.529549 -4.004406,2.375485 -0.178199,0.668541 -0.272071,1.433994 -0.481719,2.056715 -0.857422,-0.430477 -1.94352,-1.276149 -2.889308,-0.557506 -0.367099,0.14383 -0.662675,0.77352 -0.113173,0.859552 0.203676,0.193344 0.723644,0.459576 0.721061,0.713213 -0.787421,0.09946 -1.821534,-0.683268 -2.289775,0.280525 -0.833525,1.006758 -2.509171,0.593008 -3.342757,1.630235 -0.639045,0.702816 -0.829045,1.636276 -0.70182,2.558907 0.119811,0.870368 -0.505786,1.646611 -0.633715,2.482448 0.511702,0.388237 1.311098,0.212384 1.924434,0.376986 0.346565,0.18641 1.283727,-0.201951 1.21502,0.444334 -0.140796,0.256368 -0.479865,-0.202327 -0.738532,-0.09697 -0.704241,0.06244 -1.749623,-0.14958 -2.169512,0.575736 -0.111217,0.729472 0.05411,1.502942 -0.279095,2.207982 -0.277977,0.62113 -0.245708,1.58599 0.578355,1.73456 0.313304,0.13624 0.854652,0.11823 1.051465,0.36053 -0.481211,0.29022 -0.880692,0.82371 -0.08153,0.995 0.155106,0.20218 -0.388676,0.51454 -0.315717,0.84589 0.03526,0.28454 0.112892,0.59738 -0.283816,0.66839 -0.487646,0.32315 -1.375984,0.5173 -1.439593,1.19148 0.475512,0.45047 1.29476,0.13742 1.890001,0.30407 0.333608,0.0471 0.851694,-0.0166 0.486109,0.36812 -0.409488,0.63961 -0.146982,1.92092 -1.132735,2.03483 -1.059198,0.23886 -0.831381,1.75391 -0.131908,2.28344 0.691587,0.6288 1.724406,0.97606 1.95507,1.98672 0.567598,1.02334 1.968942,0.75391 2.936148,0.64004 1.460785,-0.15375 2.651421,-1.06417 3.647225,-2.08071 0.840378,-0.66298 1.484165,-1.71422 2.529901,-2.0621 0.866238,0.0673 1.563717,-0.7186 1.510575,-1.5673 0.06752,-0.50194 0.147918,-1.32188 0.555133,-1.56025 0.521854,0.7484 0.428763,2.12337 1.489216,2.37205 0.380359,-0.0371 0.628345,0.13446 0.733467,0.5127 0.119507,0.28577 0.50102,1.09125 0.79575,0.55674 0.165907,-1.35818 -0.462354,-2.92911 0.653915,-4.01071 0.775449,-1.02316 2.03558,-2.0544 1.703967,-3.49486 -0.121047,-1.07871 -1.303742,-2.24201 -0.495731,-3.2792 0.605168,0.0342 1.325811,-0.18262 1.447945,-0.871202 0.289849,-0.62234 0.03674,-1.287412 -0.52447,-1.652561 -0.526124,-0.421648 -1.088358,-0.965317 -0.873784,-1.708044 0.126013,-1.036723 0.368046,-2.103867 -0.06868,-3.109199 -0.457988,-1.581695 0.01487,-3.245477 -0.296476,-4.848937 0.463939,-1.393078 1.205101,-2.77682 2.429529,-3.63974 0.873043,-0.586163 1.983295,-0.293299 2.929821,-0.478007 0.275331,-1.048745 -0.387252,-2.04292 -1.249706,-2.587514 1.011131,-1.574472 2.162534,-3.248483 2.133814,-5.199086 0.118845,-0.979962 -0.03666,-2.07381 0.221993,-2.980484 0.356024,-0.550252 1.021898,-0.501851 1.481162,-0.86332 0.465645,-0.479785 0.272841,-1.241031 0.691438,-1.769488 0.363646,-0.897192 1.078537,-1.508464 1.656567,-2.254584 0.290975,-0.961281 -0.935035,-1.887646 -0.310907,-2.839429 0.758862,-0.839329 0.948135,-2.092159 1.815312,-2.82728 0.533077,-0.339046 1.29975,0.238625 1.724422,-0.162036 0.102296,-0.80189 0.20439,-1.6038 0.30635,-2.405732 1.320062,-0.230685 2.735922,0.03137 4.001892,-0.402423 0.02527,-1.013585 -0.193138,-2.083984 -0.262652,-3.120094 0.647708,-0.06092 1.633561,0.289379 1.753788,-0.637005 0.187603,-0.847714 1.341189,-1.054959 1.819363,-0.360024 0.724365,0.695877 0.755544,2.179929 1.936588,2.306232 0.78581,0.07767 1.678019,0.06684 2.212809,-0.606624 0.80346,-0.576795 1.556551,0.483511 2.256607,0.685363 0.48886,-0.714679 0.854819,-1.561923 1.222362,-2.351551 -0.02291,-1.506206 -0.67169,-3.180145 0.204822,-4.541573 0.473657,-0.899757 1.622835,-0.865783 2.286738,-1.54694 0.993476,-0.638318 1.977379,0.469823 2.763531,0.965732 0.578117,0.385023 1.198456,0.843855 1.206709,1.596022 0.03233,0.913365 0.738769,0.15834 1.06377,-0.155515 0.438251,-0.344212 0.542116,-0.916088 0.591939,-1.437566 0.467231,0.265577 1.438424,0.05114 1.095518,-0.631688 -0.587557,-0.404603 -1.372293,-0.263027 -1.952538,0.07393 -0.991385,-0.04554 -1.591418,-1.138131 -2.599163,-1.221602 -0.369991,-0.141109 0.403582,-0.03921 0.508643,-0.07013 1.227275,-0.02757 2.396707,-0.532867 3.217815,-1.452076 0.753041,-0.350907 0.238244,-0.818481 -0.255085,-1.047587 -1.049822,-0.703019 -2.363639,-0.783151 -3.458207,-1.385663 -0.782236,-0.15766 -0.802423,0.877998 -0.959052,1.374777 -0.04451,0.515676 -0.594203,0.567289 -0.96842,0.364835 0.212421,-0.699262 0.730737,-1.476948 0.472184,-2.215846 -0.233704,-0.376179 -0.723162,-0.5013 -1.139823,-0.489401 z"
       id="path89565" />
    <path
       style="fill:#f0ef19;fill-opacity:1;stroke:#000000;stroke-width:0.4;stroke-dasharray:none"
       d="m 49.312774,61.41051 c -0.35298,0.06521 -0.779219,0.38938 -0.748911,0.77309 0.247912,0.07878 0.460013,-0.246341 0.667385,-0.356859 0.11956,-0.07865 0.435065,-0.367046 0.143809,-0.416737 -0.02074,7.14e-4 -0.04155,-0.0013 -0.06228,5.02e-4 z"
       id="path89567" />
    <path
       style="fill:#f0ef19;fill-opacity:1;stroke:#000000;stroke-width:0.4;stroke-dasharray:none"
       d="m 59.523337,51.817837 c -0.507529,0.11631 -0.6687,0.736439 -0.774735,1.177421 0.0046,0.295953 0.320397,0.03447 0.401167,-0.08456 0.234087,-0.30499 0.652047,-0.556636 0.704477,-0.958292 -0.0376,-0.140471 -0.217009,-0.135067 -0.330909,-0.134566 z"
       id="path89573" />
    <path
       style="fill:#f0ef19;fill-opacity:1;stroke:#000000;stroke-width:0.4;stroke-dasharray:none"
       d="m 66.255818,47.440959 c -0.34254,0.10356 -0.756367,0.180965 -1.015767,0.430408 0.0866,0.289823 0.537642,0.220671 0.736,0.0757 0.119102,-0.06457 0.610092,-0.414832 0.279767,-0.50611 z"
       id="path89575" />
    <path
       style="fill:#f0ef19;fill-opacity:1;stroke:#000000;stroke-width:0.4;stroke-dasharray:none"
       d="m 67.082329,48.382541 c -0.318296,-0.04164 -0.555276,0.334545 -0.324326,0.581938 0.108373,0.14616 0.386789,0.489149 0.444638,0.137134 0.01532,-0.200132 0.360238,-0.590637 0.06489,-0.714008 -0.06123,-0.0092 -0.123526,-0.0057 -0.185203,-0.0051 z"
       id="path89577" />
    <path
       style="fill:#f0ef19;fill-opacity:1;stroke:#000000;stroke-width:0.4;stroke-dasharray:none"
       d="m 71.114246,44.607603 c -0.218316,-0.0019 -0.526537,0.393313 -0.25989,0.510794 0.174445,-0.06773 0.50428,-0.218306 0.439269,-0.440916 -0.04461,-0.0479 -0.114352,-0.07297 -0.179379,-0.06988 z"
       id="path89579" />
    <path
       style="fill:#f0ef19;fill-opacity:1;stroke:#000000;stroke-width:0.4;stroke-dasharray:none"
       d="m 67.865419,47.331837 c -0.182028,0.05456 -0.08055,0.561139 0.09824,0.32825 0.02365,-0.102695 0.04924,-0.313442 -0.09824,-0.32825 z"
       id="path89581" />
    <path
       style="fill:#f0ef19;fill-opacity:1;stroke:#000000;stroke-width:0.4;stroke-dasharray:none"
       d="m 53.44242,56.196139 c -0.09686,0.127871 -0.140507,0.291771 -0.21591,0.433682 -0.05209,0.136798 -0.139922,0.264993 -0.167693,0.4084 0.02265,0.105632 0.149079,0.06946 0.19068,-10e-4 0.203179,-0.20854 0.330062,-0.50196 0.313375,-0.794674 -0.01595,-0.04962 -0.07472,-0.07239 -0.120452,-0.04636 z"
       id="path89583" />
    <path
       style="fill:#f0ef19;fill-opacity:1;stroke:#000000;stroke-width:0.4;stroke-dasharray:none"
       d="m 51.582579,58.581996 c -0.03346,0.0896 -0.04563,0.186231 -0.07206,0.27831 -0.08666,-0.02185 -0.198892,-0.05233 -0.269827,-0.07659 0.01003,-0.0054 -0.110456,-0.02091 -0.116528,0.04668 -0.04537,0.137655 -0.0815,0.280504 -0.108267,0.422212 0.03425,0.122112 0.194318,0.07315 0.287231,0.08718 0.16114,-0.0094 0.329859,0.02289 0.48567,-0.01778 0.144078,-0.188415 0.06366,-0.445956 -0.02432,-0.641182 -0.0311,-0.07623 -0.0931,-0.189115 -0.181911,-0.09884 z"
       id="path89585" />
    <path
       style="fill:#f0ef19;fill-opacity:1;stroke:#000000;stroke-width:0.4;stroke-dasharray:none"
       d="m 50.831515,60.800975 c -0.250193,0.05922 -0.484072,0.178569 -0.706692,0.304609 -0.08429,0.03876 -0.08006,0.151156 -0.0084,0.200552 0.03695,0.029 0.06864,0.06198 0.01328,0.09172 -0.07171,0.04665 -0.108648,0.163239 -0.01212,0.205331 0.08615,0.06121 0.19227,0.0329 0.266613,-0.03247 0.177324,-0.12313 0.355166,-0.250353 0.520044,-0.387706 0.05119,-0.08908 0.0093,-0.204762 0.02289,-0.304339 -0.0061,-0.04817 -0.04622,-0.085 -0.09567,-0.07769 z"
       id="path89594" />
  </g>
</svg>
