<?xml version="1.0" encoding="UTF-8" standalone="no"?>
<!-- Created with Inkscape (http://www.inkscape.org/) -->

<svg
   width="63.974998"
   height="77.315002"
   viewBox="0 0 16.926719 20.456261"
   version="1.1"
   id="svg122454"
   inkscape:version="1.2.2 (732a01da63, 2022-12-09)"
   sodipodi:docname="serbia.svg"
   xmlns:inkscape="http://www.inkscape.org/namespaces/inkscape"
   xmlns:sodipodi="http://sodipodi.sourceforge.net/DTD/sodipodi-0.dtd"
   xmlns="http://www.w3.org/2000/svg"
   xmlns:svg="http://www.w3.org/2000/svg">
  <sodipodi:namedview
     id="namedview122456"
     pagecolor="#ffffff"
     bordercolor="#000000"
     borderopacity="0.25"
     inkscape:showpageshadow="2"
     inkscape:pageopacity="0.0"
     inkscape:pagecheckerboard="0"
     inkscape:deskcolor="#d1d1d1"
     inkscape:document-units="mm"
     showgrid="false"
     inkscape:zoom="0.72515432"
     inkscape:cx="-352.3388"
     inkscape:cy="-197.88891"
     inkscape:window-width="1920"
     inkscape:window-height="1001"
     inkscape:window-x="-9"
     inkscape:window-y="-9"
     inkscape:window-maximized="1"
     inkscape:current-layer="layer1" />
  <defs
     id="defs122451" />
  <g
     inkscape:label="Layer 1"
     inkscape:groupmode="layer"
     id="layer1"
     transform="translate(-72.422412,-201.13226)">
    <path
       style="fill:#f0ef19;fill-opacity:1;stroke:#000000;stroke-width:0.4;stroke-dasharray:none"
       d="m 75.980694,201.35305 c -0.869694,-0.16916 -1.303864,0.698 -2.032291,0.95298 -0.426535,0.27727 -1.546294,0.36225 -1.291442,1.11381 0.341447,1.10824 0.712377,2.30176 1.717294,2.99153 0.320156,0.27833 -0.412459,0.33602 -0.453194,0.60459 -0.36983,0.32987 -0.289272,0.93861 0.23318,1.04235 0.614296,0.37584 -0.13107,1.44733 -0.0729,2.1078 -0.212847,0.82959 0.889042,1.1854 1.306147,1.77551 0.134009,0.22676 0.755187,0.55421 0.615993,0.74333 -0.417201,0.24984 -1.547239,0.22705 -1.08525,0.9129 0.423259,0.67832 0.85506,1.29051 0.0074,1.77218 0.591089,1.01641 1.74612,1.73273 2.785051,2.32666 0.641295,0.28987 1.295604,0.69549 1.991022,0.77169 0.306102,-0.57225 0.144076,-1.67336 1.030195,-1.80341 1.132625,-0.0988 1.737265,1.1305 2.515129,1.73755 0.392025,0.58025 1.410224,0.83398 1.366652,1.63913 0.04452,0.44607 -0.694309,1.09349 -0.157477,1.34187 1.118206,-0.12349 2.459514,-0.13001 3.325286,-0.94209 0.380661,-0.82843 -0.794226,-1.79226 0.04026,-2.48726 0.449263,-0.54767 1.642018,-0.99373 1.251985,-1.8824 -0.638175,-0.90376 -1.927559,-1.20119 -2.254584,-2.36421 -0.431593,-0.78432 -0.09044,-1.65529 0.315466,-2.36523 0.0208,-0.36497 0.488026,-0.5959 0.134691,-0.94487 -0.425868,-0.35958 -0.478343,-0.88756 -0.212672,-1.34845 0.09394,-0.57902 -0.699222,-0.59259 -0.946139,-0.20355 -0.973262,0.87435 -2.253557,-0.0568 -3.209523,-0.48028 -0.922515,-0.19887 -0.447839,-1.32947 -0.643813,-2.0128 -0.536509,-0.74704 -1.825649,-0.86706 -2.152389,-1.88038 -0.61641,-1.27346 -1.735235,-2.24204 -2.791579,-3.12072 -0.444164,5.3e-4 -0.888338,-0.002 -1.332494,0.002 z"
       id="path18961" />
  </g>
</svg>
