<?xml version="1.0" encoding="UTF-8" standalone="no"?>
<!-- Created with Inkscape (http://www.inkscape.org/) -->

<svg
   width="232.327"
   height="154.98399"
   viewBox="0 0 61.46985 41.006181"
   version="1.1"
   id="svg10042"
   inkscape:version="1.2.2 (732a01da63, 2022-12-09)"
   sodipodi:docname="ukraine.svg"
   xmlns:inkscape="http://www.inkscape.org/namespaces/inkscape"
   xmlns:sodipodi="http://sodipodi.sourceforge.net/DTD/sodipodi-0.dtd"
   xmlns="http://www.w3.org/2000/svg"
   xmlns:svg="http://www.w3.org/2000/svg">
  <sodipodi:namedview
     id="namedview10044"
     pagecolor="#ffffff"
     bordercolor="#000000"
     borderopacity="0.25"
     inkscape:showpageshadow="2"
     inkscape:pageopacity="0.0"
     inkscape:pagecheckerboard="0"
     inkscape:deskcolor="#d1d1d1"
     inkscape:document-units="mm"
     showgrid="false"
     inkscape:zoom="0.72515432"
     inkscape:cx="-232.36433"
     inkscape:cy="171.68759"
     inkscape:window-width="1920"
     inkscape:window-height="1001"
     inkscape:window-x="-9"
     inkscape:window-y="-9"
     inkscape:window-maximized="1"
     inkscape:current-layer="layer1" />
  <defs
     id="defs10039" />
  <g
     inkscape:label="Layer 1"
     inkscape:groupmode="layer"
     id="layer1"
     transform="translate(-29.467797,-103.91743)">
    <path
       style="fill:#f0ef19;fill-opacity:1;stroke:#000000;stroke-width:0.4;stroke-dasharray:none"
       d="m 63.644735,104.12382 c -0.6873,0.0141 -1.16622,0.56771 -1.431853,1.14434 -0.448771,0.59075 -1.175624,0.15806 -1.752312,0.14572 -0.58216,0.19991 -0.223324,1.04183 -0.787358,1.27915 -0.479935,0.3219 -1.056571,0.44428 -1.595665,0.62874 -0.103928,-0.25662 -0.466431,-0.4662 -0.629814,-0.14913 -0.732586,0.32824 -1.620904,0.61582 -1.909855,1.46032 -0.44101,1.05973 -0.192498,2.21627 0.0589,3.28656 -0.08482,0.21091 -0.543476,-0.007 -0.747972,-0.0541 -0.61672,-0.3626 -1.368565,-0.5635 -2.05305,-0.25251 -0.642202,0.26542 -1.54967,0.50685 -2.050595,-0.13974 -0.559536,-0.1631 -0.814412,0.65049 -1.307431,0.7768 -0.977302,0.1435 -2.127531,-0.63582 -2.983833,0.12943 -0.34253,0.52255 -0.926362,0.14971 -1.416815,0.0598 -0.673449,-0.16228 -1.22569,-0.67753 -1.956761,-0.60046 -2.001139,-0.0911 -4.008212,-0.12885 -6.00938,-0.10652 -0.667576,0.32714 -1.475682,0.45935 -2.06021,0.90297 -0.438174,0.49371 -0.663589,1.4314 -1.478802,1.36503 -0.335065,-0.004 -0.906711,0.15092 -0.709107,0.6018 0.521454,1.36763 1.255231,2.64767 1.764305,4.02165 0.267521,0.44371 0.71055,1.19289 0.126035,1.57704 -1.320795,0.69038 -2.061258,2.05865 -2.895362,3.23055 -0.514636,0.84433 -1.294035,1.81755 -0.866521,2.86423 0.09996,0.48738 0.489034,0.96128 0.446492,1.45441 -1.246666,0.59762 -1.355021,2.15601 -1.729753,3.31539 -0.01492,0.54003 0.689226,0.73552 1.014542,1.05572 0.655759,0.37954 1.236723,1.00269 1.989878,1.16027 1.415606,-0.22706 2.874915,-0.0416 4.309015,-0.16409 0.659652,0.0554 1.36566,-0.41902 1.929329,0.0685 0.449678,0.13049 1.010137,0.87641 1.402818,0.3128 0.536805,-0.68461 1.324009,-1.03284 2.13922,-1.25315 0.618313,-0.17182 1.2295,-0.41664 1.594961,-0.97798 0.335807,-0.49327 0.829493,-0.81376 1.374923,-1.0285 0.295326,-0.1065 0.392658,-0.41682 0.550865,-0.61568 0.936533,-0.47781 1.944492,-1.04197 3.027696,-0.99324 1.097108,0.23307 1.943508,1.17354 3.114384,1.18033 0.848826,0.14654 1.947583,0.0317 2.533902,0.79147 0.378296,0.80059 0.09714,1.85649 0.68585,2.5599 0.346752,0.30887 1.03922,-0.25544 1.107636,0.33174 0.269936,0.88555 0.735184,1.74566 1.565587,2.2176 0.485243,0.45802 0.759415,1.09007 1.200193,1.59029 0.281574,0.41597 -0.276432,0.94116 -0.699636,0.77053 -1.008028,0.0495 -2.052034,-0.1038 -3.040406,0.12049 -0.353682,0.39588 0.05641,0.97757 0.102224,1.42541 0.185793,0.95237 -0.409088,1.84677 -0.78718,2.67537 -0.224438,0.58864 -0.790019,0.98647 -0.918406,1.60175 0.0984,0.49863 0.716658,0.70179 1.147024,0.8237 1.007539,-0.18339 1.72275,-1.03686 2.669821,-1.35255 0.354087,-0.12808 1.070917,0.27744 1.152215,-0.27087 -0.09458,-0.52119 -0.392691,-1.04131 -0.393681,-1.56325 0.356338,-0.15167 0.795343,-0.17183 1.077203,-0.49949 1.10988,-0.97632 1.849232,-2.37715 1.95842,-3.84579 0.09705,-1.17855 1.343559,-1.6758 2.315837,-1.99548 1.183442,-0.34633 2.469298,-0.44311 3.687945,-0.18923 0.0052,0.12813 -0.571809,0.22641 -0.781074,0.33623 -0.495395,0.12691 -1.10867,0.30193 -0.851109,0.94201 0.06007,0.6063 0.860293,0.57125 1.300626,0.71647 0.935741,0.2569 1.882008,0.0105 2.754749,-0.34157 0.899462,-0.29673 2.098892,-0.67216 2.820136,0.18492 0.23836,0.18788 0.367538,0.39635 0.02148,0.53977 -1.210903,0.90637 -2.462467,1.87283 -3.224983,3.20618 -0.0098,0.47859 0.715883,0.28244 1.047988,0.37697 0.9803,0.13792 2.146316,-0.11128 2.909213,0.66854 0.601771,0.74981 0.183875,1.91498 0.841246,2.62131 0.626671,0.53441 1.737227,0.53858 2.16586,-0.24903 0.573178,-0.79656 0.833829,-1.94631 1.878169,-2.28097 0.758589,-0.22022 1.329391,-0.79217 1.662697,-1.49515 0.270341,-0.58051 0.764276,-1.29653 1.510189,-1.05401 0.738873,0.26549 1.58804,-0.0899 2.066682,-0.66472 0.131738,-0.49161 -0.155679,-1.06763 0.239895,-1.48986 0.09666,-0.45701 -0.571934,-0.43823 -0.872932,-0.40711 -1.412677,0.28606 -2.338168,1.78745 -3.829008,1.8156 -0.225364,-0.0483 -0.810233,0.086 -0.827294,-0.25825 0.191619,-0.67208 -0.624337,-0.89228 -1.066281,-1.14237 -0.657164,-0.31746 -1.156227,-0.99876 -1.953715,-0.96352 -0.79048,-0.12306 -1.670029,0.03 -2.397522,-0.3312 -0.06183,-0.34131 0.513442,-0.34095 0.708937,-0.50031 0.654897,-0.27605 1.470539,-0.43731 2.089963,0.0157 0.453551,-0.0704 0.729287,-0.60614 1.071292,-0.91644 0.619766,-0.60585 0.937906,-1.47736 1.611059,-2.01906 0.892612,-0.27612 1.49892,-1.00987 2.103385,-1.67551 0.279699,0.45753 0.713248,0.39147 0.93541,-0.0786 0.752999,-1.06242 2.045073,-1.60763 2.868721,-2.61826 0.217496,-0.48364 0.404998,-1.14251 1.041935,-1.2027 0.438443,-0.1376 1.235122,0.0307 1.375817,-0.54657 -0.01691,-1.00882 -0.535117,-2.09641 0.06409,-3.0345 0.450233,-0.81437 1.003538,-1.81915 2.045557,-1.93743 0.847225,-0.10036 1.879942,-0.5419 1.916298,-1.52834 0.153255,-1.43897 -1.527524,-2.36661 -1.227405,-3.83135 0.175419,-0.33964 0.0041,-0.69063 -0.31061,-0.87419 -0.390716,-0.561 0.501293,-1.2354 0.05192,-1.81174 -0.296744,-0.27696 -0.514321,-0.61029 -0.555697,-1.01526 -0.477337,-0.7251 -1.487453,-0.35856 -2.167117,-0.20946 -1.432402,0.2745 -2.899289,0.0648 -4.351954,0.0628 -0.822114,-0.003 -1.660621,-0.18682 -2.284905,-0.7639 -0.474522,-0.38954 -1.160778,-0.70223 -1.725647,-0.29128 -0.85712,0.42335 -1.561481,1.48232 -2.620053,1.2582 -0.473757,-0.0629 -1.093475,-0.64332 -1.50006,-0.16148 -0.268444,0.40702 -0.799494,1.01419 -1.299734,0.54173 -0.502184,-0.65613 -0.696246,-1.51608 -1.218097,-2.17463 -0.476501,-0.62784 -1.07637,-1.52609 -1.974839,-1.43275 -0.629126,0.0248 -1.283841,0.48545 -1.892311,0.22092 -0.473765,-0.55881 -0.790681,-1.26519 -1.033161,-1.95067 0.04278,-0.42032 0.636331,-0.82599 0.230407,-1.23171 -0.626586,-0.46939 -1.350986,-0.81461 -1.931442,-1.35812 -0.366707,-0.29138 -0.774086,-0.59691 -1.272236,-0.5435 z"
       id="path10028" />
  </g>
</svg>
