<?xml version="1.0" encoding="UTF-8" standalone="no"?>
<!-- Created with Inkscape (http://www.inkscape.org/) -->

<svg
   width="28.542063"
   height="59.209995"
   viewBox="0 0 7.5517539 15.665978"
   version="1.1"
   id="svg33055"
   inkscape:version="1.2.2 (732a01da63, 2022-12-09)"
   sodipodi:docname="albania.svg"
   xmlns:inkscape="http://www.inkscape.org/namespaces/inkscape"
   xmlns:sodipodi="http://sodipodi.sourceforge.net/DTD/sodipodi-0.dtd"
   xmlns="http://www.w3.org/2000/svg"
   xmlns:svg="http://www.w3.org/2000/svg">
  <sodipodi:namedview
     id="namedview33057"
     pagecolor="#ffffff"
     bordercolor="#000000"
     borderopacity="0.25"
     inkscape:showpageshadow="2"
     inkscape:pageopacity="0.0"
     inkscape:pagecheckerboard="0"
     inkscape:deskcolor="#d1d1d1"
     inkscape:document-units="mm"
     showgrid="false"
     inkscape:zoom="0.72515432"
     inkscape:cx="-8.9636093"
     inkscape:cy="-48.955097"
     inkscape:window-width="1920"
     inkscape:window-height="1001"
     inkscape:window-x="-9"
     inkscape:window-y="-9"
     inkscape:window-maximized="1"
     inkscape:current-layer="layer1" />
  <defs
     id="defs33052" />
  <g
     inkscape:label="Layer 1"
     inkscape:groupmode="layer"
     id="layer1"
     transform="translate(-69.557033,-161.79411)">
    <path
       style="fill:#01a808;fill-opacity:1;stroke:#000000;stroke-width:0.4;stroke-dasharray:none"
       d="m 71.168647,162.08016 c -0.454985,0.67456 -0.969415,1.32708 -1.388062,2.01508 0.366919,0.88854 0.816131,1.75987 1.140381,2.66145 -0.117227,0.67338 -0.319316,1.33657 -0.419431,2.00852 0.0945,0.71774 0.244435,1.4398 0.304498,2.15486 -0.152958,0.51835 -0.346136,1.03189 -0.474154,1.5532 0.148288,0.3828 0.41222,0.74285 0.487944,1.13993 0.0024,0.30967 -0.06825,0.63457 -0.02043,0.93472 0.729491,0.52873 1.541262,0.95523 2.204443,1.57015 0.35792,0.36893 0.684053,0.76776 1.04104,1.13736 0.189719,-0.0103 0.106428,-0.34871 0.186814,-0.48105 0.08891,-0.33355 0.108879,-0.70852 0.241501,-1.01529 0.409864,-0.37308 0.909003,-0.6624 1.259637,-1.09453 0.136239,-0.34738 0.0609,-0.77466 0.24231,-1.09263 0.301149,-0.34116 0.649081,-0.65442 0.921719,-1.01254 -0.08257,-0.47731 -0.04716,-0.98487 -0.201764,-1.44546 -0.164822,-0.17198 -0.451527,-0.11927 -0.650044,-0.24688 -0.935982,-0.41149 -1.350949,-1.47489 -1.489501,-2.42304 -0.122063,-0.9515 -0.07079,-1.92463 0.01683,-2.88277 0.08099,-0.21644 0.04799,-0.43372 -0.06045,-0.63294 -0.185127,-0.44769 -0.205836,-0.98461 -0.597684,-1.31734 -0.451371,-0.50291 -0.86719,-1.0546 -1.338455,-1.52946 -0.177596,0.18773 -0.434708,0.3636 -0.707065,0.24661 -0.242464,-0.047 -0.463957,-0.25873 -0.700085,-0.24795 z"
       id="path33041" />
  </g>
</svg>
