<?xml version="1.0" encoding="UTF-8" standalone="no"?>
<!-- Created with Inkscape (http://www.inkscape.org/) -->

<svg
   width="45.323002"
   height="40.064999"
   viewBox="0 0 11.99171 10.600531"
   version="1.1"
   id="svg17406"
   inkscape:version="1.2.2 (732a01da63, 2022-12-09)"
   sodipodi:docname="belgium.svg"
   xmlns:inkscape="http://www.inkscape.org/namespaces/inkscape"
   xmlns:sodipodi="http://sodipodi.sourceforge.net/DTD/sodipodi-0.dtd"
   xmlns="http://www.w3.org/2000/svg"
   xmlns:svg="http://www.w3.org/2000/svg">
  <sodipodi:namedview
     id="namedview17408"
     pagecolor="#ffffff"
     bordercolor="#000000"
     borderopacity="0.25"
     inkscape:showpageshadow="2"
     inkscape:pageopacity="0.0"
     inkscape:pagecheckerboard="0"
     inkscape:deskcolor="#d1d1d1"
     inkscape:document-units="mm"
     showgrid="false"
     inkscape:zoom="0.72515432"
     inkscape:cx="-237.8804"
     inkscape:cy="-277.87189"
     inkscape:window-width="1920"
     inkscape:window-height="1001"
     inkscape:window-x="-9"
     inkscape:window-y="-9"
     inkscape:window-maximized="1"
     inkscape:current-layer="layer1" />
  <defs
     id="defs17403" />
  <g
     inkscape:label="Layer 1"
     inkscape:groupmode="layer"
     id="layer1"
     transform="translate(-130.00891,-222.10126)">
    <path
       style="fill:#01a808;stroke:#000000;stroke-width:0.6;stroke-dasharray:none"
       d="m 133.40484,222.46601 c -0.01,0.50187 -0.55414,1.45078 -0.80411,0.48257 -0.976,-0.98328 -3.21247,0.89081 -1.88063,1.8305 0.66751,0.14312 1.35339,0.34808 1.44668,1.13021 0.75986,1.32042 2.75805,1.94346 2.55308,3.72025 0.51874,0.76432 1.92423,-0.90251 2.07559,0.29875 0.19075,1.13925 1.20572,2.51264 2.42801,2.47257 0.70789,-0.71561 -0.082,-2.57558 1.24261,-2.78753 1.04836,-0.002 1.68012,-1.18724 0.87348,-1.97988 -0.39234,-0.8493 -1.80962,-1.16051 -1.30237,-2.30851 0.0415,-1.10909 -1.54811,-1.57333 -2.19822,-2.26153 -1.12631,-1.32675 -3.26203,1.42962 -4.15079,-0.51177 l -0.10155,-0.12158 z"
       id="path38551" />
  </g>
</svg>
