<?xml version="1.0" encoding="UTF-8" standalone="no"?>
<!-- Created with Inkscape (http://www.inkscape.org/) -->

<svg
   width="46.944"
   height="42.664001"
   viewBox="0 0 12.420598 11.288184"
   version="1.1"
   id="svg17406"
   inkscape:version="1.2.2 (732a01da63, 2022-12-09)"
   sodipodi:docname="belgium.svg"
   xmlns:inkscape="http://www.inkscape.org/namespaces/inkscape"
   xmlns:sodipodi="http://sodipodi.sourceforge.net/DTD/sodipodi-0.dtd"
   xmlns="http://www.w3.org/2000/svg"
   xmlns:svg="http://www.w3.org/2000/svg">
  <sodipodi:namedview
     id="namedview17408"
     pagecolor="#ffffff"
     bordercolor="#000000"
     borderopacity="0.25"
     inkscape:showpageshadow="2"
     inkscape:pageopacity="0.0"
     inkscape:pagecheckerboard="0"
     inkscape:deskcolor="#d1d1d1"
     inkscape:document-units="mm"
     showgrid="false"
     inkscape:zoom="0.72515432"
     inkscape:cx="-566.0864"
     inkscape:cy="-377.1611"
     inkscape:window-width="1920"
     inkscape:window-height="1001"
     inkscape:window-x="-9"
     inkscape:window-y="-9"
     inkscape:window-maximized="1"
     inkscape:current-layer="layer1" />
  <defs
     id="defs17403" />
  <g
     inkscape:label="Layer 1"
     inkscape:groupmode="layer"
     id="layer1"
     transform="translate(-140.68166,-247.94613)">
    <path
       style="fill:#01a808;fill-opacity:1;stroke:#000000;stroke-width:0.4;stroke-dasharray:none"
       d="m 144.54373,248.17808 c -0.31994,0.28576 -0.47514,0.70872 -0.62104,1.07613 -0.50822,-0.92709 -1.82391,-0.59073 -2.45212,0.0249 -0.48771,0.39573 -0.8343,1.26534 -0.37381,1.78686 0.4919,0.40886 1.375,0.129 1.68786,0.76266 -0.0203,0.70733 0.52537,1.23046 1.07432,1.59555 0.48411,0.41638 1.20673,0.68799 1.46231,1.30127 0.0942,0.4705 -0.20249,1.26759 0.42626,1.45191 0.6063,0.25726 1.20842,-0.0482 1.76806,-0.26693 0.0426,0.78491 0.22771,1.61697 0.89281,2.11735 0.5284,0.44698 1.14461,0.99738 1.86957,1.00594 0.54255,-0.28874 0.27746,-1.0687 0.38759,-1.55556 -0.0209,-0.57924 0.27563,-1.43797 0.99468,-1.34037 0.82292,-0.024 1.57871,-1.02681 1.08955,-1.79474 -0.30004,-0.557 -0.41662,-1.18996 -0.66813,-1.7618 -0.17708,-0.23469 -0.48954,-0.005 -0.46529,0.22128 -0.50594,0.0247 -0.73246,-0.50713 -0.49411,-0.91035 0.13159,-0.39198 0.71877,-0.89988 0.0864,-1.15456 -1.02928,-0.68506 -1.97119,-1.5474 -3.08815,-2.08027 -0.92745,0.17536 -1.82686,0.49306 -2.74197,0.7272 -0.17749,-0.19218 -0.33578,-0.376 -0.22933,-0.63393 -0.0666,-0.25513 -0.28684,-0.73921 -0.60547,-0.57252 z"
       id="path12516" />
  </g>
</svg>
