<?xml version="1.0" encoding="UTF-8" standalone="no"?>
<!-- Created with Inkscape (http://www.inkscape.org/) -->

<svg
   width="45.091"
   height="41.278999"
   viewBox="0 0 11.930327 10.921734"
   version="1.1"
   id="svg17406"
   inkscape:version="1.2.2 (732a01da63, 2022-12-09)"
   sodipodi:docname="belgium.svg"
   xmlns:inkscape="http://www.inkscape.org/namespaces/inkscape"
   xmlns:sodipodi="http://sodipodi.sourceforge.net/DTD/sodipodi-0.dtd"
   xmlns="http://www.w3.org/2000/svg"
   xmlns:svg="http://www.w3.org/2000/svg">
  <sodipodi:namedview
     id="namedview17408"
     pagecolor="#ffffff"
     bordercolor="#000000"
     borderopacity="0.25"
     inkscape:showpageshadow="2"
     inkscape:pageopacity="0.0"
     inkscape:pagecheckerboard="0"
     inkscape:deskcolor="#d1d1d1"
     inkscape:document-units="mm"
     showgrid="false"
     inkscape:zoom="0.72515432"
     inkscape:cx="-167.55054"
     inkscape:cy="-182.71973"
     inkscape:window-width="1920"
     inkscape:window-height="1001"
     inkscape:window-x="-9"
     inkscape:window-y="-9"
     inkscape:window-maximized="1"
     inkscape:current-layer="layer1" />
  <defs
     id="defs17403" />
  <g
     inkscape:label="Layer 1"
     inkscape:groupmode="layer"
     id="layer1"
     transform="translate(-111.66839,-196.90476)">
    <path
       style="fill:#01a808;fill-opacity:1;stroke:#000000;stroke-width:0.376;stroke-dasharray:none"
       d="m 115.31766,197.15927 c -0.34154,0.37774 -0.39666,0.96859 -0.63245,1.41782 -0.31889,-0.60252 -0.99888,-1.01975 -1.66695,-0.69498 -0.75387,0.21598 -1.5491,1.24755 -0.9631,1.96823 0.49594,0.32017 1.27746,0.027 1.59631,0.66663 0.2246,0.39667 0.079,0.95292 0.57776,1.20793 0.78495,0.69469 2.20951,1.18547 2.07634,2.46371 -0.13821,0.43278 0.16242,0.86989 0.63144,0.73828 0.50084,0.0266 1.01733,-0.56505 1.47807,-0.32762 0.0182,0.94799 0.41391,1.90892 1.23528,2.44877 0.40489,0.19581 0.89663,0.73732 1.36642,0.5527 0.27122,-0.8662 -0.17272,-2.13322 0.72207,-2.72246 0.60671,-0.10896 1.24256,-0.25519 1.61474,-0.81663 0.25143,-0.47107 -0.3949,-1.10116 -0.47314,-1.63924 -0.11162,-0.1796 -0.15887,-0.93444 -0.47117,-0.55472 -0.5563,0.12354 -1.13675,-0.39999 -0.86209,-0.9788 0.009,-0.44627 0.75631,-0.96924 0.0898,-1.20484 -0.92574,-0.65855 -1.84069,-1.34251 -2.77302,-1.9855 -0.96823,0.1794 -1.91785,0.69265 -2.90602,0.67068 -0.61281,-0.22393 -0.24103,-0.90464 -0.6403,-1.20996 z"
       id="path20451" />
  </g>
</svg>
