<?xml version="1.0" encoding="UTF-8" standalone="no"?>
<!-- Created with Inkscape (http://www.inkscape.org/) -->

<svg
   width="57.41"
   height="52.383999"
   viewBox="0 0 15.189729 13.859933"
   version="1.1"
   id="svg22278"
   inkscape:version="1.2.2 (732a01da63, 2022-12-09)"
   sodipodi:docname="bosnia.svg"
   xmlns:inkscape="http://www.inkscape.org/namespaces/inkscape"
   xmlns:sodipodi="http://sodipodi.sourceforge.net/DTD/sodipodi-0.dtd"
   xmlns="http://www.w3.org/2000/svg"
   xmlns:svg="http://www.w3.org/2000/svg">
  <sodipodi:namedview
     id="namedview22280"
     pagecolor="#ffffff"
     bordercolor="#000000"
     borderopacity="0.25"
     inkscape:showpageshadow="2"
     inkscape:pageopacity="0.0"
     inkscape:pagecheckerboard="0"
     inkscape:deskcolor="#d1d1d1"
     inkscape:document-units="mm"
     showgrid="false"
     inkscape:zoom="0.72515432"
     inkscape:cx="-254.4286"
     inkscape:cy="-43.43903"
     inkscape:window-width="1920"
     inkscape:window-height="1001"
     inkscape:window-x="-9"
     inkscape:window-y="-9"
     inkscape:window-maximized="1"
     inkscape:current-layer="layer1" />
  <defs
     id="defs22275" />
  <g
     inkscape:label="Layer 1"
     inkscape:groupmode="layer"
     id="layer1"
     transform="translate(-96.946824,-136.98379)">
    <path
       style="fill:#01a808;fill-opacity:1;stroke:#000000;stroke-width:0.4;stroke-dasharray:none"
       d="m 100.82747,137.19083 c -0.76945,-0.097 -1.03542,0.77093 -1.622642,1.01905 -0.614436,0.005 -1.107831,-0.99517 -1.71404,-0.58029 -0.481946,0.60434 -0.482451,1.50199 0.138745,2.01735 0.782077,0.71402 1.241854,1.65172 1.524154,2.66955 0.84364,1.858 2.936543,2.64419 4.071413,4.26307 0.9116,1.01935 1.52927,2.37607 2.79285,3.01059 0.65973,0.34557 1.26823,1.19806 2.08216,1.03272 0.50972,-0.41525 -0.31031,-1.01108 -0.0213,-1.54136 0.11633,-1.01789 0.80997,-1.89586 1.76898,-2.24421 0.41182,-0.28243 -0.11233,-1.19266 0.56763,-1.19198 0.57572,0.10746 1.54148,-0.53552 0.95935,-1.11469 -0.16892,-0.34378 -0.44845,-0.71379 -0.54337,-1.06039 0.35209,-0.26391 1.4758,-0.31365 0.98345,-0.89383 -0.55913,-0.54499 -1.11827,-1.08997 -1.67742,-1.63495 0.0925,-0.79213 0.39934,-1.59412 0.31673,-2.39383 -0.41701,-0.45854 -1.03065,0.41231 -1.50415,-0.0727 -0.44541,-0.35011 -0.57077,-1.1414 -1.31047,-0.89488 -2.23485,-0.0221 -4.45902,0.12417 -6.64678,-0.3852 -0.055,-0.003 -0.11022,-0.005 -0.16533,-0.004 z"
       id="path21660" />
  </g>
</svg>
