<?xml version="1.0" encoding="UTF-8" standalone="no"?>
<!-- Created with Inkscape (http://www.inkscape.org/) -->

<svg
   width="104.06461"
   height="193.97508"
   viewBox="0 0 27.533763 51.322573"
   version="1.1"
   id="svg111983"
   inkscape:version="1.2.2 (732a01da63, 2022-12-09)"
   sodipodi:docname="britain.svg"
   xmlns:inkscape="http://www.inkscape.org/namespaces/inkscape"
   xmlns:sodipodi="http://sodipodi.sourceforge.net/DTD/sodipodi-0.dtd"
   xmlns="http://www.w3.org/2000/svg"
   xmlns:svg="http://www.w3.org/2000/svg">
  <sodipodi:namedview
     id="namedview111985"
     pagecolor="#ffffff"
     bordercolor="#000000"
     borderopacity="0.25"
     inkscape:showpageshadow="2"
     inkscape:pageopacity="0.0"
     inkscape:pagecheckerboard="0"
     inkscape:deskcolor="#d1d1d1"
     inkscape:document-units="mm"
     showgrid="false"
     inkscape:zoom="0.51276154"
     inkscape:cx="-209.64911"
     inkscape:cy="-472.92939"
     inkscape:window-width="1920"
     inkscape:window-height="1001"
     inkscape:window-x="-9"
     inkscape:window-y="-9"
     inkscape:window-maximized="1"
     inkscape:current-layer="layer1" />
  <defs
     id="defs111980" />
  <g
     inkscape:label="Layer 1"
     inkscape:groupmode="layer"
     id="layer1"
     transform="translate(-101.55146,-212.50625)">
    <path
       style="fill:#01a808;fill-opacity:1;stroke:#000000;stroke-width:0.4;stroke-dasharray:none"
       d="m 105.83492,235.63561 c 0.14655,0.52881 -0.27559,0.4627 -0.66675,0.44358 -0.38121,0.14551 -0.63163,0.57545 -0.96406,0.82939 -0.26876,0.30215 -0.65933,0.44285 -1.05823,0.41234 -0.508,0.19399 -0.75224,0.8109 -1.31022,0.92601 -0.22443,0.26047 0.0659,0.63643 0.11191,0.91892 0.2126,0.53565 0.56805,1.25608 1.23401,1.26173 0.59532,-0.0927 0.75198,-0.80327 1.09159,-1.20691 0.49573,0.80588 0.88653,1.67913 1.37503,2.48333 0.66151,0.15715 1.39271,0.48245 2.04452,0.10483 0.72718,-0.3227 1.52442,-1.05665 1.32356,-1.93141 -0.0263,-0.23293 -0.17353,-0.40748 -0.37851,-0.48573 -0.15056,-0.11012 -0.15887,-0.25932 -0.0185,-0.3718 0.31686,-0.95138 -0.06,-2.03001 -0.6903,-2.7698 -0.23125,-0.29408 -0.62144,-0.43164 -0.97424,-0.27914 -0.37996,0.10718 -0.78189,-0.0353 -1.0202,-0.35217 l -0.0541,-0.0167 z"
       id="path111197" />
    <path
       style="fill:#01a808;fill-opacity:1;stroke:#000000;stroke-width:0.4;stroke-dasharray:none"
       d="m 116.94859,220.33332 c -0.55035,0.51708 -0.96274,1.19808 -1.64328,1.57289 -0.38215,0.34639 -0.21113,0.95535 -0.32002,1.40807 0.0661,0.48347 -0.13488,0.49879 -0.49058,0.29171 -0.36955,-0.19083 -0.80281,0.0114 -0.95787,0.382 -0.4509,0.85706 -0.35707,1.92014 -0.86816,2.74284 -0.18082,0.0699 -0.30106,0.22301 -0.26293,0.43358 0.0835,0.78851 -0.57307,1.44868 -1.28692,1.67353 -0.49396,0.27592 -0.90395,0.78288 -1.01223,1.34009 0.0673,0.45331 0.64722,0.46884 0.94501,0.23027 0.19622,-0.0964 0.0842,-0.37389 0.32229,-0.45421 0.11048,-0.009 0.23856,0.12354 0.36206,0.0111 0.41991,-0.27437 0.86577,-0.48996 1.38389,-0.44471 -0.67358,1.21879 -1.42727,2.40151 -1.99887,3.67227 -0.12545,0.51785 -0.18699,1.05581 -0.41471,1.54238 0.076,0.22964 0.29456,-0.0763 0.35686,-0.17469 0.32567,-0.43889 0.5621,-0.95169 0.88638,-1.38149 0.64287,0.54256 1.20817,1.26658 1.35782,2.11495 0.0443,0.45712 0.0218,0.95991 -0.33876,1.30022 -0.56876,0.75972 -1.35789,1.3429 -1.85962,2.15053 -0.14088,0.31676 -0.005,0.68603 0.0898,0.98715 0.21646,-0.12401 0.22026,-0.49177 0.37104,-0.7046 0.34497,0.40016 0.60452,0.88087 0.9545,1.26603 0.30786,-0.11061 0.51324,-0.78381 0.84734,-0.54467 0.63171,0.36855 1.34148,-0.099 2.0069,-0.10094 0.4956,-0.0464 1.10384,0.054 1.43718,0.45458 -0.0169,0.3173 -0.39377,0.23518 -0.58143,0.40826 -0.62509,0.30927 -1.29651,0.89797 -1.23147,1.66037 0.1032,0.68481 0.32684,1.37947 0.65536,1.97405 0.41851,0.0197 0.83701,0.0394 1.25552,0.0591 -0.52488,0.73034 -1.23274,1.39829 -1.36138,2.33399 -0.19637,0.62267 -0.37608,1.27684 -0.7147,1.83566 -0.82722,-0.16549 -1.66614,-0.3431 -2.50448,-0.38522 -0.29957,-5.3e-4 -0.58557,-0.27495 -0.8736,-0.19659 0.001,-0.29709 -0.38584,-0.42924 -0.58295,-0.60068 -0.28567,-0.13315 -0.27703,0.33696 -0.21698,0.50257 0.0508,0.30959 0.30976,0.58197 0.33015,0.87993 -0.23617,0.0713 -0.45056,0.19947 -0.6313,0.38707 -0.2042,0.17397 -0.76453,0.57421 -0.16761,0.56072 0.35819,0.0106 0.80133,0.16527 0.83461,0.58447 0.10313,0.96001 -0.23626,1.96554 -0.8117,2.74575 -0.57726,0.55315 -1.46184,0.47314 -2.19175,0.60607 -0.5486,0.0824 -1.33249,0.10374 -1.56015,0.72048 -0.0785,0.39155 -0.0663,0.90209 0.24533,1.18502 0.62283,-0.0713 1.33658,-0.43213 1.92912,-0.0461 0.39639,0.26662 0.49237,0.78919 0.77309,1.12678 0.27034,0.0153 0.5981,-0.11828 0.84183,-0.0553 0.35059,0.54356 0.51596,1.38939 1.23882,1.55669 0.70042,0.0244 1.23211,-0.57184 1.91114,-0.67245 0.46927,-0.0777 0.94508,-0.20223 1.31844,-0.51383 0.11225,0.11633 0.27736,0.28882 0.0333,0.3666 -0.26418,0.23181 -0.65458,0.23432 -0.91728,0.44383 -0.0654,0.20182 -0.009,0.53664 -0.28926,0.58308 -0.5991,0.36404 -1.14882,0.80205 -1.71948,1.2078 -1.02699,-0.24982 -2.05399,-0.58611 -3.08097,-0.78271 -0.30763,0.34456 -0.66801,0.68495 -1.15597,0.70874 -0.53894,0.0311 -0.78337,0.60922 -1.1789,0.90377 -0.72563,0.81842 -1.6681,1.38201 -2.61964,1.89482 -0.30006,0.19176 -0.65328,0.31281 -0.93817,0.51433 0.26894,0.21016 0.56892,0.46503 0.73461,0.80082 0.27454,-0.0338 0.46473,-0.4069 0.7403,-0.54485 0.79971,-0.51552 1.83343,-0.66947 2.74829,-0.41243 0.63603,0.26502 1.1266,0.77207 1.67859,1.16881 0.23514,-0.0612 0.25614,-0.42715 0.40838,-0.60282 0.40122,-0.69913 1.09783,-1.47746 1.98989,-1.30908 1.15206,0.16837 1.98054,1.23894 3.15768,1.33655 0.37977,-0.13019 0.60131,-0.59908 1.05906,-0.54928 0.57108,-0.0367 0.6932,0.63858 1.15944,0.81879 0.30704,0.17574 0.86659,0.22654 1.03298,-0.14938 -0.10292,-0.39122 0.36545,-0.30241 0.59296,-0.34395 1.12404,0.006 2.21868,0.38797 3.33035,0.5484 1.27288,0.21524 2.69556,0.40112 3.87937,-0.24103 0.47787,-0.34779 1.00556,-0.75594 1.19363,-1.33275 -0.94831,-0.32298 -1.93881,-0.57678 -2.87501,-0.95424 -0.0285,-0.14014 -0.12703,-0.48856 0.14963,-0.3818 0.55371,-0.0756 1.14928,-0.32256 1.41795,-0.84791 0.1338,-0.27505 0.43043,-0.57565 0.75524,-0.38686 0.33647,0.10363 0.38857,-0.40362 0.51434,-0.59991 0.11064,-0.17583 0.11994,-0.60537 0.43977,-0.46548 0.58749,0.0804 0.99722,-0.50166 1.30262,-0.91689 0.57552,-0.87299 0.93986,-2.14047 0.23331,-3.04692 -0.7344,-0.906 -2.06477,-1.06596 -3.14046,-0.8241 -0.26242,0.0331 -0.54976,0.29836 -0.7654,0.24226 -0.29446,-0.33323 -0.40502,-0.87431 -0.0359,-1.2022 0.42572,-0.46365 0.69318,-1.15045 0.38116,-1.74987 -0.20477,-0.57162 -0.72908,-0.93557 -1.01209,-1.45238 -0.10344,-0.20762 -0.0164,-0.40858 0.20254,-0.47129 0.31188,-0.27258 0.61306,-0.78159 0.35509,-1.18249 -0.18391,-0.57502 0.20254,-1.2355 -0.19277,-1.76446 -0.32757,-0.59855 -0.45659,-1.34399 -1.06122,-1.73941 -0.37954,-0.38189 -0.86583,-0.70711 -1.18,-1.12377 -0.10805,-0.94414 -0.32218,-1.88965 -0.36399,-2.83295 0.0599,-0.56396 0.26233,-1.14364 0.23656,-1.69825 -0.41635,-0.79498 -0.75312,-1.65278 -1.21802,-2.40948 -0.52233,-0.35933 -0.9987,-0.82277 -1.54866,-1.11977 -0.48097,-0.10253 -1.01357,-0.0722 -1.46578,-0.25076 -0.09,-0.32464 0.11708,-0.4591 0.42106,-0.5172 0.45505,-0.19148 0.94416,-0.33209 1.38084,-0.54616 -0.14486,-0.22273 -0.40983,-0.46342 -0.27015,-0.76917 0.16514,-0.52675 0.8504,-0.42747 1.19742,-0.7665 0.63756,-0.50165 1.3923,-0.96973 1.66272,-1.78109 0.29074,-0.60421 0.51865,-1.32662 1.17317,-1.63775 0.32041,-0.21238 0.85958,-0.51244 0.65004,-0.98057 -0.18786,-0.72862 -1.02308,-0.89062 -1.6715,-0.86386 -0.93091,0.11628 -1.55234,-0.88001 -2.48536,-0.77271 -0.6323,-0.007 -1.24617,0.33147 -1.86974,0.20583 -0.15634,-0.0841 -0.36177,-0.22975 -0.41674,-0.36711 0.32766,-0.11813 0.11867,-0.64526 0.50877,-0.66751 0.23185,-0.0753 0.73046,-0.32057 0.34559,-0.55282 -0.10104,-0.14095 -0.2964,-0.15606 -0.42598,-0.21027 -0.0587,-0.16528 0.0149,-0.2641 0.17672,-0.25622 0.78991,-0.41233 1.56471,-0.85227 2.37219,-1.23451 0.51624,-0.26096 1.19908,-0.6677 1.06083,-1.35149 -0.11055,-0.39083 -0.6386,-0.23257 -0.92778,-0.25217 -1.10998,-0.0579 -2.28565,-0.15919 -3.27567,-0.72334 -0.13042,-0.0522 -0.19103,-0.24161 -0.34546,-0.23026 z m -1.68316,27.83339 c -0.0515,0.12023 0.009,-0.0539 0,0 z"
       id="path111199" />
    <path
       style="fill:#01a808;fill-opacity:1;stroke:#000000;stroke-width:0.4;stroke-dasharray:none"
       d="m 112.02306,242.09149 c -0.23898,0.2391 -0.58804,0.49865 -0.61282,0.85867 0.19484,0.12348 0.40885,-0.18264 0.53396,-0.31205 0.069,-0.12239 0.31498,-0.54974 0.0789,-0.54662 z"
       id="path111201" />
    <path
       style="fill:#01a808;fill-opacity:1;stroke:#000000;stroke-width:0.4;stroke-dasharray:none"
       d="m 111.44859,234.69593 c -0.18838,0.0175 -0.17144,0.26332 -0.0279,0.32293 0.009,0.22936 0.32091,0.22486 0.3004,-0.0109 0.0196,-0.15403 -0.1171,-0.31292 -0.27255,-0.31205 z"
       id="path111203" />
    <path
       style="fill:#01a808;fill-opacity:1;stroke:#000000;stroke-width:0.4;stroke-dasharray:none"
       d="m 109.93052,232.73086 c -0.47208,0.10588 -0.9952,0.1501 -1.4125,0.40319 -0.0716,0.2534 0.42907,0.0182 0.35686,0.28344 0.0113,0.16291 -0.12108,0.62373 0.18748,0.52852 0.4458,-0.23714 0.79945,-0.68353 0.95677,-1.15552 -0.006,-0.0406 -0.05,-0.0652 -0.0886,-0.0596 z"
       id="path111207" />
    <path
       style="fill:#01a808;fill-opacity:1;stroke:#000000;stroke-width:0.4;stroke-dasharray:none"
       d="m 111.36264,224.04686 c -0.30824,0.15451 -0.59513,0.41547 -0.80006,0.69182 0.0342,0.20289 0.29165,0.31126 0.37408,0.50902 0.36018,0.47948 0.69743,1.1033 1.2987,1.29907 0.26553,0.0324 0.14158,-0.27758 0.001,-0.35496 -0.27353,-0.32504 -0.69648,-0.57697 -0.6173,-1.06105 -0.089,-0.34189 0.0314,-0.78297 -0.19124,-1.07238 -0.0201,-0.01 -0.0431,-0.0141 -0.0654,-0.0115 z"
       id="path111209" />
    <path
       style="fill:#01a808;fill-opacity:1;stroke:#000000;stroke-width:0.4;stroke-dasharray:none"
       d="m 112.64057,220.1371 c -0.64495,0.19176 -1.32683,0.33511 -1.94038,0.59434 -0.0825,0.34072 -0.34973,0.77969 0.0543,1.01083 0.21101,0.45693 0.54079,0.0756 0.79853,-0.1071 0.51579,-0.35621 0.92922,-0.88806 1.16869,-1.45541 -0.0104,-0.0374 -0.0491,-0.0495 -0.0812,-0.0427 z"
       id="path111211" />
    <path
       style="fill:#01a808;fill-opacity:1;stroke:#000000;stroke-width:0.4;stroke-dasharray:none"
       d="m 108.44396,224.64538 c -0.19433,0.11151 -0.48896,0.47603 -0.26255,0.66992 0.2108,-0.0916 0.33128,-0.3927 0.35787,-0.61258 -0.0104,-0.0408 -0.0544,-0.0671 -0.0953,-0.0573 z"
       id="path111213" />
    <path
       style="fill:#01a808;fill-opacity:1;stroke:#000000;stroke-width:0.4;stroke-dasharray:none"
       d="m 122.12564,218.83967 c -0.15592,0.27392 -0.46333,0.69177 0.0677,0.70122 0.12562,0.0689 0.52613,0.1353 0.37799,-0.12422 -0.14373,-0.16791 -0.22754,-0.56711 -0.44573,-0.577 z"
       id="path111215" />
    <path
       style="fill:#01a808;fill-opacity:1;stroke:#000000;stroke-width:0.4;stroke-dasharray:none"
       d="m 128.6033,212.70685 c -0.34472,0.22103 -0.54562,0.63896 -0.77968,0.97133 -0.06,0.27602 0.32166,0.43753 0.47713,0.61916 0.12502,0.15324 0.42588,0.30693 0.47382,0.0115 0.11383,-0.51074 0.0859,-1.08077 -0.0876,-1.5696 -0.0213,-0.0225 -0.0526,-0.0356 -0.0837,-0.0324 z"
       id="path111217" />
    <path
       style="fill:#01a808;fill-opacity:1;stroke:#000000;stroke-width:0.4;stroke-dasharray:none"
       d="m 122.63865,219.52646 c -0.0826,0.008 -0.15435,0.12826 -0.0572,0.17368 0.0601,0.0359 0.18034,0.11358 0.21268,0.005 -0.006,-0.0711 -0.0764,-0.1805 -0.15549,-0.17909 z"
       id="path111221" />
    <path
       style="fill:#01a808;fill-opacity:1;stroke:#000000;stroke-width:0.4;stroke-dasharray:none"
       d="m 110.42571,221.92234 c -0.056,0.13969 -0.0371,0.30225 -0.0703,0.45016 -0.0334,0.0756 0.0625,0.14931 0.1232,0.0876 0.0941,-0.0692 0.19852,-0.12956 0.27929,-0.21419 0.0234,-0.10131 -0.10053,-0.15343 -0.15164,-0.22497 -0.0534,-0.04 -0.10156,-0.14485 -0.18053,-0.0986 z"
       id="path111225" />
    <path
       style="fill:#01a808;fill-opacity:1;stroke:#000000;stroke-width:0.4;stroke-dasharray:none"
       d="m 108.83376,223.14325 c -0.0595,0.0995 -0.003,0.26976 0.1315,0.25271 0.0661,0.007 0.18663,-0.002 0.15466,-0.0996 -0.0725,-0.0668 -0.15214,-0.14058 -0.24549,-0.17362 -0.0136,0.007 -0.0271,0.0137 -0.0407,0.0205 z"
       id="path111229" />
  </g>
</svg>
