<?xml version="1.0" encoding="UTF-8" standalone="no"?>
<!-- Created with Inkscape (http://www.inkscape.org/) -->

<svg
   width="91.428001"
   height="64.696999"
   viewBox="0 0 24.190325 17.117748"
   version="1.1"
   id="svg119397"
   inkscape:version="1.2.2 (732a01da63, 2022-12-09)"
   sodipodi:docname="bulgaria.svg"
   xmlns:inkscape="http://www.inkscape.org/namespaces/inkscape"
   xmlns:sodipodi="http://sodipodi.sourceforge.net/DTD/sodipodi-0.dtd"
   xmlns="http://www.w3.org/2000/svg"
   xmlns:svg="http://www.w3.org/2000/svg">
  <sodipodi:namedview
     id="namedview119399"
     pagecolor="#ffffff"
     bordercolor="#000000"
     borderopacity="0.25"
     inkscape:showpageshadow="2"
     inkscape:pageopacity="0.0"
     inkscape:pagecheckerboard="0"
     inkscape:deskcolor="#d1d1d1"
     inkscape:document-units="mm"
     showgrid="false"
     inkscape:zoom="0.72515432"
     inkscape:cx="-155.13939"
     inkscape:cy="-215.81613"
     inkscape:window-width="1920"
     inkscape:window-height="1001"
     inkscape:window-x="-9"
     inkscape:window-y="-9"
     inkscape:window-maximized="1"
     inkscape:current-layer="layer1" />
  <defs
     id="defs119394" />
  <g
     inkscape:label="Layer 1"
     inkscape:groupmode="layer"
     id="layer1"
     transform="translate(-70.776711,-205.55428)">
    <path
       style="fill:#01a808;fill-opacity:1;stroke:#000000;stroke-width:0.4;stroke-dasharray:none"
       d="m 88.686943,205.76438 c -1.932276,-0.0682 -3.612711,1.1787 -4.710446,2.67081 -1.009145,1.172 -2.648702,0.3066 -3.933399,0.70444 -1.279004,0.3961 -2.674837,0.51571 -3.95954,0.0184 -0.850006,-0.30608 -1.719128,-0.0696 -2.534349,0.20077 -0.566155,0.17919 -1.170334,-0.39296 -0.730935,-0.91753 0.139089,-0.5622 -0.583295,-0.93622 -0.964369,-1.15426 -0.354227,0.43583 -0.451554,1.0863 -0.795751,1.56796 -0.395957,1.31866 0.708885,2.47606 1.725941,3.1392 0.528481,0.37331 1.175583,1.15889 0.460031,1.70745 -0.555998,0.53665 -1.561195,1.01411 -1.27072,1.95735 0.13257,0.595 0.47099,1.23423 0.0076,1.77556 -0.06854,0.71773 0.939525,0.86822 1.357307,1.24819 1.219428,0.65185 1.18695,2.16819 1.29477,3.34858 -0.0098,0.62721 0.719619,0.49226 1.024626,0.16609 0.864589,-0.47969 1.997503,-0.11078 2.764359,-0.85005 0.960389,-0.74239 2.215634,-0.75204 3.33942,-0.4267 0.851577,0.0807 1.597451,0.57354 2.429457,0.66962 0.651835,-0.10387 1.188215,-0.63418 1.896078,-0.51852 0.589902,0.0157 1.504519,-0.45891 1.125644,-1.16235 -0.08008,-0.40263 -0.829705,-0.88226 -0.09397,-1.06371 0.918588,-0.5671 1.390052,-1.65542 2.439191,-2.05169 0.624911,-0.29369 1.227828,-0.8919 1.914811,-0.39877 0.61695,0.39595 1.24293,0.21417 1.825188,-0.12785 0.434023,-0.0769 0.669965,-0.53738 0.293182,-0.84259 -0.566745,-0.70175 -1.300075,-1.23713 -2.054315,-1.71885 0.355349,-0.52747 0.967476,-0.86171 1.309709,-1.35883 0.01214,-1.17926 -0.633473,-2.67363 0.435978,-3.5972 0.347445,-0.57829 1.357114,-0.13415 1.477063,-0.90234 0.09401,-0.83472 -0.702726,-1.46694 -1.502633,-1.31807 -1.520462,-0.27265 -2.992096,-0.85825 -4.569928,-0.76511 z"
       id="path16466" />
  </g>
</svg>
