<?xml version="1.0" encoding="UTF-8" standalone="no"?>
<!-- Created with Inkscape (http://www.inkscape.org/) -->

<svg
   width="86.402878"
   height="48.708809"
   viewBox="0 0 22.860761 12.887539"
   version="1.1"
   id="svg90016"
   inkscape:version="1.2.2 (732a01da63, 2022-12-09)"
   sodipodi:docname="checkRepublic.svg"
   xmlns:inkscape="http://www.inkscape.org/namespaces/inkscape"
   xmlns:sodipodi="http://sodipodi.sourceforge.net/DTD/sodipodi-0.dtd"
   xmlns="http://www.w3.org/2000/svg"
   xmlns:svg="http://www.w3.org/2000/svg">
  <sodipodi:namedview
     id="namedview90018"
     pagecolor="#ffffff"
     bordercolor="#000000"
     borderopacity="0.25"
     inkscape:showpageshadow="2"
     inkscape:pageopacity="0.0"
     inkscape:pagecheckerboard="0"
     inkscape:deskcolor="#d1d1d1"
     inkscape:document-units="mm"
     showgrid="false"
     inkscape:zoom="0.72515432"
     inkscape:cx="-61.366248"
     inkscape:cy="-171.68759"
     inkscape:window-width="1920"
     inkscape:window-height="1001"
     inkscape:window-x="-9"
     inkscape:window-y="-9"
     inkscape:window-maximized="1"
     inkscape:current-layer="layer1" />
  <defs
     id="defs90013" />
  <g
     inkscape:label="Layer 1"
     inkscape:groupmode="layer"
     id="layer1"
     transform="translate(-83.440302,-194.23304)">
    <path
       style="fill:#01a808;fill-opacity:1;stroke:#000000;stroke-width:0.4;stroke-dasharray:none"
       d="m 91.366375,194.59361 c -2.418943,1.50962 -5.22201,2.48929 -7.657322,3.93679 0.432771,0.78358 1.032145,1.58349 0.929865,2.55614 0.01892,1.11058 0.966729,1.66974 1.709343,2.28724 0.597757,0.71909 1.251228,1.37713 2.078141,1.796 0.854815,0.66998 1.67436,2.20394 2.971839,1.62305 0.859219,-0.28011 1.404938,-1.09233 1.577938,-1.94888 1.764086,0.48321 3.526431,1.25281 5.387981,1.09278 0.631502,0.0647 1.362726,0.69505 1.88551,0.0437 0.92095,-0.1858 1.99188,-0.22112 2.62918,-1.05625 1.01075,-1.15088 1.75942,-2.5945 3.16769,-3.32632 0.30838,-0.64929 -0.71753,-1.10191 -1.10996,-1.51492 -0.98692,-0.75961 -2.46056,-0.65065 -3.19705,-1.75589 -0.54686,-0.36257 -1.29195,-0.63969 -1.9317,-0.55892 -0.266489,0.42319 -0.46513,1.47642 -1.196256,1.03764 -0.551669,-0.43899 -1.169273,-1.07787 -1.309756,-1.75768 0.502351,-0.73744 -0.747924,-0.73642 -1.123572,-1.0423 -0.957058,-0.33815 -1.77116,-1.48684 -2.854039,-1.22526 -0.624557,0.48733 -1.295519,0.14743 -1.853639,-0.18869 -0.03461,-0.004 -0.06974,-0.004 -0.104193,0.002 z"
       id="path94513" />
  </g>
</svg>
