<?xml version="1.0" encoding="UTF-8" standalone="no"?>
<!-- Created with Inkscape (http://www.inkscape.org/) -->

<svg
   width="82.375999"
   height="80.968002"
   viewBox="0 0 21.795316 21.422784"
   version="1.1"
   id="svg17763"
   inkscape:version="1.2.2 (732a01da63, 2022-12-09)"
   sodipodi:docname="croatia.svg"
   xmlns:inkscape="http://www.inkscape.org/namespaces/inkscape"
   xmlns:sodipodi="http://sodipodi.sourceforge.net/DTD/sodipodi-0.dtd"
   xmlns="http://www.w3.org/2000/svg"
   xmlns:svg="http://www.w3.org/2000/svg">
  <sodipodi:namedview
     id="namedview17765"
     pagecolor="#ffffff"
     bordercolor="#000000"
     borderopacity="0.25"
     inkscape:showpageshadow="2"
     inkscape:pageopacity="0.0"
     inkscape:pagecheckerboard="0"
     inkscape:deskcolor="#d1d1d1"
     inkscape:document-units="mm"
     showgrid="false"
     inkscape:zoom="0.72515432"
     inkscape:cx="-288.90402"
     inkscape:cy="98.599702"
     inkscape:window-width="1920"
     inkscape:window-height="1001"
     inkscape:window-x="-9"
     inkscape:window-y="-9"
     inkscape:window-maximized="1"
     inkscape:current-layer="layer1" />
  <defs
     id="defs17760" />
  <g
     inkscape:label="Layer 1"
     inkscape:groupmode="layer"
     id="layer1"
     transform="translate(-94.18287,-122.45854)">
    <path
       style="fill:#f0ef19;fill-opacity:1;stroke:#000000;stroke-width:0.4;stroke-dasharray:none"
       d="m 105.39615,122.69975 c -1.04513,0.61208 -2.09203,1.23419 -3.07066,1.94709 -0.22376,0.42302 0.1772,0.9737 0.0181,1.36179 -0.81808,0.54994 -1.14752,1.49372 -1.51186,2.35856 -0.79117,-0.17606 -1.533695,-0.57892 -2.343815,-0.65721 -0.71591,0.26852 -1.45724,0.45777 -2.230803,0.45383 -0.592217,0.0868 -1.251656,-0.0108 -1.807572,0.18723 -0.231381,0.33095 0.205195,0.75274 0.269152,1.10553 0.314812,0.63633 0.499751,1.36733 0.916972,1.93993 0.462457,0.0662 0.530445,-0.60761 0.786286,-0.87652 0.34475,-0.56362 0.641909,-1.22827 1.063416,-1.70701 0.403466,0.2171 0.553935,0.64681 0.724162,1.02868 0.477713,0.13398 0.711766,0.59161 0.991987,0.96191 0.498668,0.36335 0.09428,1.083 0.482475,1.53103 0.56564,0.84643 0.97529,1.95442 2.01279,2.32431 0.39642,0.20346 0.047,0.1276 -0.16828,-0.009 -0.29024,-0.23955 -0.66818,-0.1444 -0.77787,0.22486 -0.14056,0.7474 0.56165,1.33234 1.05966,1.78812 0.56027,0.47954 1.40446,0.70146 1.62466,1.48717 0.23342,0.57389 0.92322,0.5147 1.40858,0.36289 0.55158,-0.11956 1.06458,0.13118 1.49595,0.44183 0.34534,0.095 0.70028,0.1703 0.91805,0.478 0.29501,0.13554 0.34727,0.56855 0.635,0.75854 0.14838,0.20086 0.41552,0.27838 0.62409,0.19156 0.7524,0.51818 1.11346,1.53105 2.03589,1.8053 0.59444,0.35523 1.1161,0.82952 1.78006,1.05303 0.35849,0.10926 0.83245,0.68659 1.1848,0.31957 0.12451,-0.47782 -0.57342,-0.62114 -0.84429,-0.8801 -0.74832,-0.42099 -1.33225,-1.08815 -2.14832,-1.39766 -1.19106,-1.17224 -1.9584,-2.73837 -3.31562,-3.75767 -0.90637,-0.8339 -2.02595,-1.53265 -2.62412,-2.63787 -0.2952,-0.89614 -0.53043,-1.86642 -1.27628,-2.51335 -0.49488,-0.49403 -1.0195,-1.14791 -0.7102,-1.89804 0.10141,-0.42079 0.519,-0.94115 0.97032,-0.57306 0.38523,0.17444 0.799,0.83256 1.24943,0.49035 0.34035,-0.42847 0.71112,-0.95087 1.34145,-0.87992 1.06017,0.0279 2.07367,0.4547 3.14657,0.3722 1.48448,0.0155 2.9691,8e-4 4.45364,0.002 0.27133,0.39935 0.6138,1.28016 1.24208,1.00595 0.29035,-0.21699 0.0409,-0.63404 0.28014,-0.9121 0.0365,-0.40702 0.69976,-0.66854 0.4365,-1.08709 -0.91964,-0.42622 -0.95232,-1.55768 -1.35487,-2.35939 -0.19549,-0.3114 -0.30413,-1.04585 -0.80275,-0.90194 -0.77467,0.61331 -1.80717,0.9552 -2.77921,0.63483 -0.80182,-0.21591 -1.55399,-0.62703 -2.37461,-0.74493 -0.35233,-0.4183 -0.5531,-0.97021 -1.00022,-1.3282 -0.5938,-0.56299 -1.21514,-1.1639 -1.94476,-1.51921 z"
       id="path17749" />
  </g>
</svg>
