<?xml version="1.0" encoding="UTF-8" standalone="no"?>
<!-- Created with Inkscape (http://www.inkscape.org/) -->

<svg
   width="51.758999"
   height="63.528"
   viewBox="0 0 13.694568 16.80845"
   version="1.1"
   id="svg93484"
   inkscape:version="1.2.2 (732a01da63, 2022-12-09)"
   sodipodi:docname="denmark.svg"
   xmlns:inkscape="http://www.inkscape.org/namespaces/inkscape"
   xmlns:sodipodi="http://sodipodi.sourceforge.net/DTD/sodipodi-0.dtd"
   xmlns="http://www.w3.org/2000/svg"
   xmlns:svg="http://www.w3.org/2000/svg">
  <sodipodi:namedview
     id="namedview93486"
     pagecolor="#ffffff"
     bordercolor="#000000"
     borderopacity="0.25"
     inkscape:showpageshadow="2"
     inkscape:pageopacity="0.0"
     inkscape:pagecheckerboard="0"
     inkscape:deskcolor="#d1d1d1"
     inkscape:document-units="mm"
     showgrid="false"
     inkscape:zoom="0.46428201"
     inkscape:cx="-679.54388"
     inkscape:cy="-354.31052"
     inkscape:window-width="1920"
     inkscape:window-height="1001"
     inkscape:window-x="-9"
     inkscape:window-y="-9"
     inkscape:window-maximized="1"
     inkscape:current-layer="layer1" />
  <defs
     id="defs93481" />
  <g
     inkscape:label="Layer 1"
     inkscape:groupmode="layer"
     id="layer1"
     transform="translate(-70.503911,-137.55188)">
    <path
       style="fill:#01a808;fill-opacity:1;stroke:#000000;stroke-width:0.4;stroke-dasharray:none"
       d="m 78.01147,137.7537 c -1.325523,0.14818 -1.763924,1.56207 -2.709296,2.26775 -1.034055,0.65323 -2.638169,0.0457 -3.334909,1.27123 -0.965774,1.47982 -1.129461,3.345 -0.89525,5.04008 0.137491,0.6592 -0.438901,1.24648 -0.360277,1.85557 0.613894,0.40001 1.49842,0.74668 1.469212,1.63353 0.117039,0.61507 -0.187089,1.34953 0.09545,1.88393 0.977797,0.3211 2.050072,0.78819 3.087802,0.57446 0.307364,-0.0701 0.590669,-0.47123 0.175456,-0.63523 -0.343628,-0.21727 -0.881026,-0.18277 -1.1697,-0.36281 0.423119,-0.62038 0.749189,-1.30566 0.729922,-2.07381 0.1827,-0.29862 0.469755,-0.61307 0.183052,-0.97829 -0.16384,-0.42175 0.596181,-0.24651 0.768911,-0.53118 0.231535,-0.52281 0.401101,-1.11348 0.752457,-1.60517 0.202552,-0.34084 0.400367,-0.68739 0.644094,-1.00083 0.465997,0.13273 1.107074,0.86674 1.389208,0.12052 0.510735,-0.52456 0.0085,-1.21302 -0.563076,-1.39984 -1.036585,-0.39826 -0.841245,-1.65208 -0.56814,-2.48372 0.394899,-1.0956 0.808506,-2.31254 0.550669,-3.47339 -0.05597,-0.0759 -0.152796,-0.11319 -0.245585,-0.1028 z"
       id="path93464" />
    <path
       style="fill:#01a808;fill-opacity:1;stroke:#000000;stroke-width:0.4;stroke-dasharray:none"
       d="m 75.397117,148.78407 c 0.0042,1.37377 1.228355,2.54196 2.453836,2.9678 0.575204,-0.6624 0.796525,-1.75649 0.07975,-2.41283 -0.638529,-0.66282 -1.702538,-0.71855 -2.533589,-0.55497 z"
       id="path93466" />
    <path
       style="fill:#01a808;fill-opacity:1;stroke:#000000;stroke-width:0.4;stroke-dasharray:none"
       d="m 82.88927,146.29099 c -0.984374,0.12811 -0.201456,1.7263 -1.212487,1.84696 -0.33899,0.0943 -0.227531,-0.54793 -0.483579,-0.70258 -0.399873,-0.59476 -0.981956,0.21878 -1.331735,0.45497 -0.784942,0.49917 -0.39228,1.53881 -0.156464,2.23939 0.331036,0.76513 1.463516,0.47724 1.744673,1.30186 0.06305,0.27992 0.656336,0.52427 0.417242,0.7917 -0.612454,0.24219 -1.270367,0.51981 -1.902658,0.12988 -0.389797,-0.34415 -0.836054,0.17332 -0.509402,0.52839 0.60825,0.62812 1.503304,0.92732 2.290535,1.24287 0.471768,-0.49424 0.751382,-1.24779 0.890439,-1.92292 0.150117,-0.48014 -0.589359,-1.14468 0.0676,-1.34591 0.468336,-0.18326 0.560374,-0.68928 0.302297,-1.09096 -0.239281,-0.61641 0.430104,-0.86982 0.821068,-1.13906 0.395214,-0.66573 0.05093,-1.62052 -0.451929,-2.14951 -0.133305,-0.11552 -0.306152,-0.19558 -0.4856,-0.18508 z"
       id="path93468" />
  </g>
</svg>
