<?xml version="1.0" encoding="UTF-8" standalone="no"?>
<!-- Created with Inkscape (http://www.inkscape.org/) -->

<svg
   width="107.086"
   height="210.965"
   viewBox="0 0 28.33317 55.817822"
   version="1.1"
   id="svg81973"
   inkscape:version="1.2.2 (732a01da63, 2022-12-09)"
   sodipodi:docname="finland.svg"
   xmlns:inkscape="http://www.inkscape.org/namespaces/inkscape"
   xmlns:sodipodi="http://sodipodi.sourceforge.net/DTD/sodipodi-0.dtd"
   xmlns="http://www.w3.org/2000/svg"
   xmlns:svg="http://www.w3.org/2000/svg">
  <sodipodi:namedview
     id="namedview81975"
     pagecolor="#ffffff"
     bordercolor="#000000"
     borderopacity="0.25"
     inkscape:showpageshadow="2"
     inkscape:pageopacity="0.0"
     inkscape:pagecheckerboard="0"
     inkscape:deskcolor="#d1d1d1"
     inkscape:document-units="mm"
     showgrid="false"
     inkscape:zoom="0.72515432"
     inkscape:cx="-280.62992"
     inkscape:cy="-57.229198"
     inkscape:window-width="1920"
     inkscape:window-height="1001"
     inkscape:window-x="-9"
     inkscape:window-y="-9"
     inkscape:window-maximized="1"
     inkscape:current-layer="layer1" />
  <defs
     id="defs81970" />
  <g
     inkscape:label="Layer 1"
     inkscape:groupmode="layer"
     id="layer1"
     transform="translate(-91.644541,-163.63574)">
    <path
       style="fill:#f0ef19;fill-opacity:1;stroke:#000000;stroke-width:0.4;stroke-dasharray:none"
       d="m 104.42648,163.85543 c -0.59449,0.0559 -0.85853,0.74036 -1.45691,0.82764 -0.67307,0.0967 -1.18527,0.59247 -1.40268,1.22185 -0.54472,1.44271 0.17299,3.00447 -0.14626,4.47137 -0.38939,0.84373 -0.81405,1.7025 -1.29919,2.4779 -0.593391,-0.4172 -1.06949,-1.18913 -1.842367,-1.24674 -0.465614,0.27187 -0.775232,0.84873 -1.383874,0.82209 -0.722302,0.0616 -1.656429,0.18129 -2.198804,-0.40746 -0.575374,-0.74238 -0.723707,-1.88385 -1.624486,-2.32968 -0.644734,-0.0733 -0.970267,0.69892 -1.175488,1.19053 -0.256779,0.62534 0.482703,1.06774 0.910441,1.3695 1.172017,0.8143 2.378584,1.5837 3.707726,2.11847 1.185569,0.66314 1.24075,2.1436 1.396325,3.32845 0.04523,0.72696 0.632886,1.22348 0.869971,1.86637 0.07594,0.77215 -0.06489,1.60678 0.398156,2.28992 0.480716,1.23622 -0.365752,2.58781 0.220739,3.82043 0.255424,0.6646 0.580094,1.31426 0.929501,1.92561 1.23906,0.13337 2.50257,0.73098 3.07604,1.89875 0.34741,0.79192 0.71747,1.66936 0.62856,2.53967 -0.23465,0.69818 -1.10307,0.88352 -1.39533,1.5638 -0.92995,1.61469 -1.57531,3.43666 -2.857265,4.82261 -0.412404,0.29271 -0.969637,0.45574 -1.123043,1.00698 -0.408075,0.85161 -0.49652,1.92351 -1.208061,2.59683 -0.590444,0.32289 -1.242793,0.68706 -1.417712,1.39747 -0.31365,0.92214 -0.638206,1.89239 -0.616386,2.87427 0.677468,1.4374 1.130329,2.99312 1.367795,4.56757 0.155329,1.8116 -0.07832,3.65393 0.141396,5.46007 0.790334,0.70269 2.176185,0.44885 2.781713,1.41914 0.213429,0.414 0.29155,0.99528 0.852163,1.07541 0.90187,0.40046 1.97597,0.65326 2.89254,0.14448 1.41818,-0.6923 2.69746,-1.6746 4.232,-2.11807 1.953,-0.83858 3.6573,-2.37475 5.85502,-2.53918 0.35917,-0.1098 0.18345,-0.70532 0.3785,-1.0016 0.71795,-1.94787 2.33706,-3.41477 3.10325,-5.34967 1.11585,-2.17926 2.78622,-4.28175 2.75181,-6.85206 0.0586,-0.93701 -0.35291,-1.87129 -1.14961,-2.3908 -0.87012,-0.74265 -2.03211,-1.11529 -2.78539,-1.98676 -0.30033,-0.64008 0.34302,-1.26521 0.49609,-1.87172 0.25664,-0.69576 -0.59111,-1.14738 -1.04212,-1.4963 -0.55704,-0.30317 -0.73734,-0.91424 -0.77053,-1.50758 -0.1609,-0.51746 -1.02434,-0.26939 -1.13109,-0.87061 -0.21822,-0.64228 0.29691,-1.35275 -0.13444,-1.96374 -0.49189,-0.82771 -0.55725,-1.81613 -0.23041,-2.71458 0.2954,-1.2448 -0.59144,-2.34813 -1.18698,-3.35327 -0.53977,-0.98183 -1.63313,-1.67062 -1.8298,-2.82404 -0.14257,-1.50883 1.19737,-2.89509 0.64485,-4.39904 -0.45826,-1.15012 -1.88556,-1.2981 -2.70616,-2.09962 -1.20087,-1.05725 -1.42086,-2.88049 -0.95833,-4.34032 0.3624,-0.68928 0.12345,-1.51398 0.4533,-2.21903 0.25423,-0.5923 0.0749,-1.2836 -0.45312,-1.66315 -0.78364,-0.4899 -1.4572,-1.18237 -2.32394,-1.52442 -0.0777,-0.0195 -0.15785,-0.0309 -0.23811,-0.0277 z"
       id="path81959" />
  </g>
</svg>
