<?xml version="1.0" encoding="UTF-8" standalone="no"?>
<!-- Created with Inkscape (http://www.inkscape.org/) -->

<svg
   width="235.18639"
   height="235.76886"
   viewBox="0 0 62.226398 62.380511"
   version="1.1"
   id="svg34923"
   inkscape:version="1.2.2 (732a01da63, 2022-12-09)"
   sodipodi:docname="france.svg"
   xmlns:inkscape="http://www.inkscape.org/namespaces/inkscape"
   xmlns:sodipodi="http://sodipodi.sourceforge.net/DTD/sodipodi-0.dtd"
   xmlns="http://www.w3.org/2000/svg"
   xmlns:svg="http://www.w3.org/2000/svg">
  <sodipodi:namedview
     id="namedview34925"
     pagecolor="#ffffff"
     bordercolor="#000000"
     borderopacity="0.25"
     inkscape:showpageshadow="2"
     inkscape:pageopacity="0.0"
     inkscape:pagecheckerboard="0"
     inkscape:deskcolor="#d1d1d1"
     inkscape:document-units="mm"
     showgrid="false"
     inkscape:zoom="0.72515432"
     inkscape:cx="-67.571824"
     inkscape:cy="131.69611"
     inkscape:window-width="1920"
     inkscape:window-height="1001"
     inkscape:window-x="-9"
     inkscape:window-y="-9"
     inkscape:window-maximized="1"
     inkscape:current-layer="layer1" />
  <defs
     id="defs34920" />
  <g
     inkscape:label="Layer 1"
     inkscape:groupmode="layer"
     id="layer1"
     transform="translate(-35.402536,-26.092714)">
    <path
       style="fill:#1fae1f;fill-opacity:1;stroke:#007820;stroke-width:1.32292;stroke-linecap:round;stroke-dasharray:none;stroke-opacity:1"
       d="m 61.74605,87.704133 c -0.731404,-0.0649 -1.626473,-0.25254 -1.98904,-0.4169 -0.362572,-0.16436 -0.877403,-0.29884 -1.144074,-0.29884 -0.303318,0 -0.699826,-0.20835 -1.059003,-0.55649 -0.430829,-0.41757 -0.75883,-0.5669 -1.313987,-0.59823 -0.79534,-0.0449 -1.044106,-0.27381 -1.057285,-0.973 -0.01714,-0.90939 -0.887818,-1.36749 -2.402414,-1.26401 -0.487368,0.0333 -0.795952,-0.0412 -0.952588,-0.22991 -0.127431,-0.15355 -0.309342,-0.27917 -0.404246,-0.27917 -0.09491,0 -0.406556,-0.16663 -0.692555,-0.37028 -0.290414,-0.20679 -1.114142,-0.47344 -1.865704,-0.60395 -1.108588,-0.19251 -1.431364,-0.32748 -1.831848,-0.76595 -0.26738,-0.29274 -0.810696,-0.69783 -1.20737,-0.9002 -0.396674,-0.20237 -0.772316,-0.52891 -0.834761,-0.72565 -0.06244,-0.19675 -0.383727,-0.56381 -0.713964,-0.81569 -0.33024,-0.25188 -0.803704,-0.80482 -1.052143,-1.22875 -0.284278,-0.48509 -0.599479,-0.79177 -0.850386,-0.82741 -0.28538,-0.0405 -0.414626,-0.19521 -0.45479,-0.54429 -0.03251,-0.28256 -0.21895,-0.57232 -0.443275,-0.68893 -0.212939,-0.11069 -0.417465,-0.2274 -0.454498,-0.25935 -0.03703,-0.0319 0.289872,-0.40526 0.726455,-0.82957 1.013291,-0.98481 1.92449,-2.61885 2.790114,-5.00349 0.376803,-1.03803 0.805402,-2.02136 0.952436,-2.18518 0.155218,-0.17293 0.230968,-0.48534 0.180618,-0.74489 -0.0735,-0.37892 0.807765,-3.546504 1.371745,-4.930513 0.19703,-0.483516 0.533863,-0.434086 0.781744,0.114718 0.191751,0.424532 0.414581,0.42609 0.680349,0.0048 0.236339,-0.374676 0.02868,-1.083783 -0.502105,-1.71459 -0.25758,-0.306114 -0.399738,-0.644683 -0.338116,-0.805264 0.05848,-0.152395 -0.06071,-0.511649 -0.264851,-0.798346 -0.607375,-0.85298 -0.355946,-1.664854 0.284091,-0.917345 0.170551,0.199192 0.359381,0.362165 0.419619,0.362165 0.181975,0 0.564499,-1.337723 0.587764,-2.055472 0.02019,-0.622543 -0.04766,-0.719238 -0.91427,-1.303218 -1.070645,-0.721469 -1.861625,-1.812309 -2.290165,-3.15836 -0.290507,-0.912498 -0.288631,-0.942637 0.09064,-1.455627 0.224174,-0.303207 0.387289,-0.784516 0.387289,-1.142785 0,-0.39151 0.1078,-0.679281 0.293357,-0.783125 0.548034,-0.306694 0.1402,-0.71596 -0.771517,-0.774226 -0.738026,-0.04716 -0.85948,-0.109612 -0.910241,-0.467998 -0.03222,-0.227462 0.07388,-0.55993 0.235771,-0.738817 0.405175,-0.447712 0.102544,-0.973421 -0.715846,-1.243515 -0.487307,-0.160827 -0.586645,-0.260202 -0.438516,-0.438687 0.276157,-0.332748 -0.248017,-0.800262 -0.897249,-0.800262 -0.428546,0 -0.519266,-0.07365 -0.519266,-0.421566 0,-0.512172 -0.251952,-0.73824 -1.053391,-0.94516 -0.456869,-0.117959 -0.643575,-0.282636 -0.743328,-0.655622 -0.167259,-0.625406 -0.649494,-1.16923 -1.03681,-1.16923 -0.162928,0 -0.483629,-0.199472 -0.712668,-0.443275 -0.489726,-0.521288 -0.658265,-0.544365 -1.094224,-0.149829 -0.301737,0.273069 -0.346829,0.273016 -0.649362,-7.93e-4 -0.178808,-0.16182 -0.410707,-0.573133 -0.515332,-0.91403 -0.179911,-0.586205 -0.167658,-0.619813 0.225989,-0.619813 0.519356,0 0.713518,-0.28757 0.427138,-0.632634 -0.267459,-0.322271 -0.06589,-0.578038 0.225729,-0.28642 0.426289,0.426286 0.694614,0.238239 0.637199,-0.446564 -0.05304,-0.632632 -0.08703,-0.663133 -0.9393,-0.842991 -0.960633,-0.202727 -1.199965,-0.557845 -0.70771,-1.0501 0.226364,-0.226364 0.660445,-0.287485 2.041681,-0.287485 1.569254,0 1.774087,0.03717 1.942862,0.352525 0.382905,0.715468 1.881492,0.57418 2.082998,-0.196387 0.08309,-0.317727 0.189717,-0.356211 0.73641,-0.265782 0.351589,0.05816 0.758938,0.107839 0.905219,0.110406 0.546325,0.0096 0.72114,0.327295 0.975204,1.772335 0.143401,0.815634 0.354986,1.541222 0.470183,1.612421 0.221027,0.136599 0.770183,-0.02434 1.377754,-0.403773 0.307626,-0.192116 0.463373,-0.174305 0.999244,0.114282 0.349149,0.188029 0.711912,0.485923 0.806138,0.661985 0.195609,0.365503 0.799208,0.430276 0.917638,0.09847 0.05529,-0.154903 0.206552,-0.105071 0.502378,0.165499 0.517715,0.47352 1.307531,0.789147 1.647899,0.658535 0.202546,-0.07772 0.236193,-0.436324 0.170066,-1.812451 -0.04534,-0.943557 -0.173471,-2.353874 -0.284734,-3.134037 -0.111263,-0.780161 -0.188455,-1.850779 -0.171543,-2.37915 0.01691,-0.528367 -0.05745,-1.066945 -0.16525,-1.19684 -0.272122,-0.327885 0.181236,-0.307766 0.6243,0.0277 0.183486,0.138928 0.74201,0.337979 1.241168,0.442339 1.310963,0.274079 1.465075,0.400566 1.10844,0.909732 -0.325551,0.464791 -0.375592,1.326198 -0.116615,2.007365 0.150704,0.39638 0.276738,0.454819 0.9809,0.454819 1.059792,0 1.90694,0.36935 2.411058,1.051205 l 0.408025,0.551881 1.604073,-0.103161 c 2.015496,-0.129619 2.401967,-0.208904 2.401967,-0.492768 0,-0.124992 -0.359053,-0.401698 -0.797896,-0.614902 -0.43884,-0.213206 -0.797893,-0.472961 -0.797893,-0.577233 0,-0.321313 1.428398,-0.840669 3.114021,-1.13224 1.982986,-0.343006 3.280852,-0.721304 4.374309,-1.275011 0.865896,-0.438475 0.903327,-0.505823 1.10423,-1.986653 0.05721,-0.421698 0.336492,-1.279432 0.620628,-1.906082 l 0.516613,-1.13936 1.030649,-0.0013 c 0.56686,-7.94e-4 1.539291,-0.08387 2.160958,-0.184746 1.263087,-0.204949 1.455434,-0.142713 1.02588,0.331941 -0.369679,0.408488 -0.37741,1.075248 -0.01842,1.587789 0.21481,0.306683 0.450731,0.394073 1.063858,0.394073 0.782182,0 0.787842,0.0044 0.787842,0.620582 0,0.42753 0.081,0.620586 0.2604,0.620586 0.152844,0 0.220247,0.104632 0.16319,0.25332 -0.130191,0.33928 1.178231,2.005605 2.109581,2.686629 0.681069,0.498012 0.756345,0.631331 0.852188,1.509266 0.107725,0.986766 0.453784,1.756629 0.789625,1.756629 0.103876,0 0.463683,-0.203036 0.799571,-0.451188 l 0.610703,-0.451186 0.310293,0.382174 c 0.170662,0.210196 0.310293,0.521944 0.310293,0.692772 0,0.170828 0.249687,0.620776 0.55486,0.999887 0.305173,0.379111 0.78531,1.059445 1.066967,1.51185 0.451712,0.725551 0.604853,0.836462 1.29857,0.940491 0.432554,0.06487 1.153485,0.313084 1.602065,0.551598 0.448577,0.238511 0.935022,0.433657 1.080984,0.433657 0.857943,0 1.8786,1.03763 1.485985,1.5107 -0.331819,0.399819 -0.07326,0.560853 1.066432,0.664196 0.671076,0.06085 1.387552,0.269677 1.91112,0.557014 0.46067,0.252818 1.59981,0.851459 2.53144,1.330318 1.79966,0.92503 2.2317,1.278755 2.01312,1.648248 -0.0746,0.126172 -0.59264,0.787929 -1.15111,1.470572 -1.19064,1.455373 -2.54996,4.325343 -2.93804,6.203186 -0.14515,0.702355 -0.40614,1.39483 -0.599534,1.590696 -0.318228,0.322307 -0.429919,0.331875 -1.577464,0.135091 -1.396712,-0.239509 -1.646574,-0.187598 -2.048338,0.425569 -0.266766,0.407138 -0.261022,0.464555 0.09131,0.912463 l 0.375983,0.477986 -0.384691,0.311502 c -0.211579,0.171328 -0.715258,0.400515 -1.119288,0.509309 -0.559699,0.150712 -1.097177,0.562856 -2.257507,1.731087 -1.920462,1.933541 -3.002859,3.312911 -3.002859,3.826748 0,0.518861 0.52597,0.986761 1.109239,0.986761 0.309846,0 0.62625,-0.20081 0.96615,-0.613161 0.433882,-0.52637 1.501381,-1.159936 1.95439,-1.159936 0.325202,0 0.586684,0.796377 0.757981,2.308517 0.151362,1.33615 0.139382,1.65516 -0.07003,1.86457 -0.138949,0.13895 -0.306517,0.57157 -0.372377,0.9614 -0.09737,0.57631 -0.0436,0.8172 0.287708,1.28901 0.224102,0.31913 0.470177,0.60684 0.546843,0.63934 0.319429,0.13545 0.09436,0.57239 -0.601768,1.16825 -0.407636,0.34892 -0.844637,0.6344 -0.971119,0.6344 -0.126479,0 -0.353602,0.1887 -0.504724,0.41934 -0.335545,0.51211 -0.132506,1.1863 0.583186,1.93647 0.396547,0.41564 0.436396,0.54227 0.251119,0.79789 -0.594262,0.81989 -0.785569,1.5518 -0.677034,2.5902 0.129354,1.23759 0.203499,1.34192 1.523523,2.14379 l 1.01499,0.61658 -0.208728,0.82205 c -0.162758,0.641 -0.322865,0.87173 -0.726995,1.04765 -0.285046,0.12408 -0.773486,0.50243 -1.085421,0.84077 -0.350886,0.38059 -1.051272,0.81061 -1.836743,1.1277 -0.857269,0.34607 -1.414113,0.69968 -1.714593,1.08878 -0.441833,0.57216 -0.456022,0.57626 -1.993064,0.57626 -1.425315,0 -1.609928,-0.0419 -2.328309,-0.5287 -0.429139,-0.29079 -0.877324,-0.53016 -0.995969,-0.53193 -0.118644,-0.002 -0.610481,-0.35383 -1.092967,-0.78235 -0.990457,-0.87967 -1.906384,-1.25272 -2.66605,-1.08587 -0.411591,0.0904 -0.537805,0.0445 -0.62394,-0.22687 -0.05939,-0.18711 -0.445292,-0.48336 -0.857571,-0.65832 -0.412279,-0.17497 -1.00144,-0.6001 -1.309245,-0.94473 -0.559509,-0.62646 -0.559837,-0.62655 -1.329404,-0.39599 -1.086483,0.32552 -3.655997,1.64603 -4.474155,2.29933 -0.379111,0.30272 -0.755224,0.5504 -0.8358,0.5504 -0.08058,0 -0.169347,0.77795 -0.197257,1.72877 -0.05821,1.98277 0.119507,1.84275 -2.089812,1.64661 z m 1.331232,-51.755748 c 0.02424,-0.328962 -0.0498,-0.388578 -0.42781,-0.344496 -0.536585,0.06258 -0.722299,0.604806 -0.248634,0.725927 0.501285,0.128185 0.644864,0.04722 0.676444,-0.381431 z"
       id="path45245" />
  </g>
</svg>
