<?xml version="1.0" encoding="UTF-8" standalone="no"?>
<!-- Created with Inkscape (http://www.inkscape.org/) -->

<svg
   width="169.57401"
   height="172.589"
   viewBox="0 0 44.866456 45.664175"
   version="1.1"
   id="svg38585"
   inkscape:version="1.2.2 (732a01da63, 2022-12-09)"
   sodipodi:docname="france.svg"
   xmlns:inkscape="http://www.inkscape.org/namespaces/inkscape"
   xmlns:sodipodi="http://sodipodi.sourceforge.net/DTD/sodipodi-0.dtd"
   xmlns="http://www.w3.org/2000/svg"
   xmlns:svg="http://www.w3.org/2000/svg">
  <sodipodi:namedview
     id="namedview38587"
     pagecolor="#ffffff"
     bordercolor="#000000"
     borderopacity="0.25"
     inkscape:showpageshadow="2"
     inkscape:pageopacity="0.0"
     inkscape:pagecheckerboard="0"
     inkscape:deskcolor="#d1d1d1"
     inkscape:document-units="mm"
     showgrid="false"
     inkscape:zoom="0.72515432"
     inkscape:cx="-174.44563"
     inkscape:cy="24.132794"
     inkscape:window-width="1920"
     inkscape:window-height="1001"
     inkscape:window-x="-9"
     inkscape:window-y="-9"
     inkscape:window-maximized="1"
     inkscape:current-layer="layer1" />
  <defs
     id="defs38582" />
  <g
     inkscape:label="Layer 1"
     inkscape:groupmode="layer"
     id="layer1"
     transform="translate(-75.290996,-142.32627)">
    <path
       style="fill:#01a808;stroke:#000000;stroke-width:0.6;stroke-dasharray:none"
       d="m 102.09227,142.63894 c -0.9606,0.0987 -2.578494,0.0487 -2.519662,1.43048 -0.02789,1.34449 -0.370959,3.00764 -1.91608,3.32073 -1.490062,0.53961 -3.59673,0.45229 -4.322316,2.14445 -1.259136,0.90726 -2.938129,-0.15614 -4.240795,-0.47143 -0.929687,-0.22989 -0.248099,-2.01262 -1.487693,-1.75556 -0.866437,0.40368 -0.07841,1.72244 -0.259766,2.46194 -0.01169,0.88801 0.213188,2.75767 -1.181346,2.57435 -1.263888,-0.39596 -2.588813,-0.45879 -3.8833,-0.45826 -0.646385,-0.67178 -0.552966,-2.07688 -1.897457,-1.60334 -1.519499,0.13857 -3.281167,-0.43634 -4.687797,0.24983 -0.527873,0.87216 0.996002,1.3653 1.259832,1.9095 -0.916276,0.1629 -0.84895,1.31162 0.0046,1.50694 1.857804,0.57824 3.07965,2.35095 4.719307,3.35516 1.311283,2.2353 1.137637,5.26034 3.320704,7.00527 1.045001,1.11971 -0.772991,2.87068 0.05927,4.24815 -0.348456,0.64472 -0.956816,1.3121 -1.094759,2.13078 -0.595273,1.09795 0.041,2.3316 -0.731186,3.34655 -0.83769,1.89296 -2.411082,3.55928 -2.788037,5.60798 0.354775,0.74926 0.474724,1.63454 1.370724,2.02038 2.01643,1.26037 4.338937,3.214 6.863755,2.53537 1.801842,0.45442 3.258119,1.67847 4.556766,2.92576 0.965538,0.54765 2.697467,0.97051 3.45137,-0.0755 0.02857,-1.54932 0.709623,-3.363 2.459951,-3.62754 1.293015,-0.50991 2.603055,-1.3476 3.872635,-0.31146 1.47273,0.74085 3.42007,0.62919 4.37903,2.1956 1.03014,0.6302 2.53521,0.77786 3.65189,0.34534 1.12844,-1.74861 3.82002,-1.99426 4.60537,-3.97698 -0.31583,-0.73384 -1.50905,-0.22554 -1.96468,-0.96716 -1.00827,-0.77965 -0.4254,-2.03351 -0.20559,-3.02147 -0.0418,-0.83856 -1.5809,-1.91996 -0.14735,-2.3156 1.62444,-0.6351 -0.15928,-2.28675 0.24407,-3.31617 0.83646,-0.77089 0.31559,-2.28149 -0.14533,-3.1273 -0.99018,-0.0418 -1.61624,1.44441 -2.67562,1.16919 0.49367,-1.75004 1.59982,-3.37915 2.83917,-4.68436 0.90654,-0.47479 1.38909,-1.41509 1.88418,-2.20572 0.67835,-0.0249 2.01736,0.48688 1.76772,-0.73929 0.31556,-2.26087 1.6432,-4.33194 2.49434,-6.31638 -1.32377,-0.38614 -2.41489,-1.32645 -3.82709,-1.5363 -1.06137,-0.22329 -0.95609,-2.01449 -2.18597,-1.77076 -1.68211,-0.5393 -3.85297,-1.37417 -4.38359,-3.22604 -0.65966,-0.55413 -2.31267,0.12308 -2.13224,-1.18042 0.12935,-1.71104 -2.42014,-1.88309 -2.58706,-3.53939 -0.53212,-0.68223 -2.052,-0.31672 -1.90697,-1.57884 0.0781,-0.41967 -0.18556,-0.76896 -0.63295,-0.67853 z"
       id="path38543" />
  </g>
</svg>
