<?xml version="1.0" encoding="UTF-8" standalone="no"?>
<!-- Created with Inkscape (http://www.inkscape.org/) -->

<svg
   width="170.08299"
   height="173.022"
   viewBox="0 0 45.001125 45.77874"
   version="1.1"
   id="svg38585"
   inkscape:version="1.2.2 (732a01da63, 2022-12-09)"
   sodipodi:docname="france.svg"
   xmlns:inkscape="http://www.inkscape.org/namespaces/inkscape"
   xmlns:sodipodi="http://sodipodi.sourceforge.net/DTD/sodipodi-0.dtd"
   xmlns="http://www.w3.org/2000/svg"
   xmlns:svg="http://www.w3.org/2000/svg">
  <sodipodi:namedview
     id="namedview38587"
     pagecolor="#ffffff"
     bordercolor="#000000"
     borderopacity="0.25"
     inkscape:showpageshadow="2"
     inkscape:pageopacity="0.0"
     inkscape:pagecheckerboard="0"
     inkscape:deskcolor="#d1d1d1"
     inkscape:document-units="mm"
     showgrid="false"
     inkscape:zoom="0.72515432"
     inkscape:cx="-516.4418"
     inkscape:cy="-193.75186"
     inkscape:window-width="1920"
     inkscape:window-height="1001"
     inkscape:window-x="-9"
     inkscape:window-y="-9"
     inkscape:window-maximized="1"
     inkscape:current-layer="layer1" />
  <defs
     id="defs38582" />
  <g
     inkscape:label="Layer 1"
     inkscape:groupmode="layer"
     id="layer1"
     transform="translate(-89.457136,-200.07522)">
    <path
       style="fill:#01a808;fill-opacity:1;stroke:#000000;stroke-width:0.4;stroke-dasharray:none"
       d="m 116.32133,200.28469 c -1.04281,0.0787 -2.72045,0.10675 -2.67411,1.56213 -0.0481,1.2722 -0.31162,2.91369 -1.81531,3.19921 -1.55262,0.52125 -3.6619,0.50521 -4.4241,2.22597 -1.36138,0.70234 -3.00418,-0.26812 -4.29142,-0.70283 -0.27052,-0.63386 -0.28638,-1.91716 -1.37377,-1.60214 -0.98515,0.56955 -0.10587,2.02068 -0.31951,2.94147 0.0411,0.81801 0.0405,2.44021 -1.21426,2.0533 -1.180464,-0.45483 -2.48581,-0.36626 -3.677721,-0.45826 -0.447482,-0.82332 -0.652346,-1.98774 -1.912141,-1.57549 -1.556187,0.157 -3.398065,-0.48485 -4.813882,0.30654 -0.567285,0.83153 0.627353,1.53056 1.183878,1.95254 -1.184659,0.3057 -0.504828,1.85586 0.496237,1.78139 1.618175,0.92968 3.006891,2.27786 4.442325,3.43517 1.078854,2.35431 1.166233,5.27767 3.363269,7.00751 0.401752,1.17288 -0.853265,2.75097 -0.161536,4.04943 -0.955357,1.02152 -1.470117,2.61073 -1.381863,4.00129 -0.409948,2.04672 -2.022449,3.74886 -2.844244,5.6819 -0.594347,0.74056 -0.33355,1.50199 -0.06077,2.26092 1.093222,1.64715 3.134927,2.45481 4.827162,3.37339 1.062216,0.57734 2.280296,0.62449 3.408846,0.41572 1.69349,0.53404 3.06178,1.68684 4.31117,2.8726 1.03551,0.5973 3.02404,1.04214 3.70304,-0.23444 -10e-4,-1.49337 0.68428,-3.20576 2.34699,-3.46006 1.2524,-0.48577 2.52201,-1.32665 3.75165,-0.31134 1.46115,0.72787 3.38348,0.64374 4.34004,2.1723 1.06791,0.67922 2.59846,0.78399 3.78203,0.39851 1.19073,-1.78217 3.93601,-2.06051 4.73347,-4.12079 -0.24322,-1.01365 -1.8303,-0.32637 -2.24773,-1.37275 -0.95294,-1.14075 0.79872,-2.58682 -0.35952,-3.71063 -0.35065,-0.43786 -0.58107,-0.9863 0.21672,-1.11957 1.60865,-0.62244 0.15259,-2.2741 0.27141,-3.33845 0.9006,-0.82988 0.36948,-2.42019 -0.1276,-3.33947 -0.98282,-0.38821 -1.76211,1.3574 -2.61233,1.08362 0.6569,-1.72799 1.66411,-3.43918 3.07767,-4.6155 0.81381,-0.39653 1.06737,-1.40583 1.59656,-1.95153 0.7336,0.19428 2.02809,0.30729 1.78088,-0.85575 0.34148,-2.29036 1.61013,-4.29959 2.54751,-6.3422 -1.35053,-0.56965 -2.61309,-1.41495 -4.09445,-1.72619 -0.89571,-0.36329 -0.89968,-1.97772 -2.09887,-1.73177 -1.54851,-0.51568 -3.54252,-1.21228 -4.14307,-2.86956 -0.33835,-1.19562 -2.72759,0.0315 -2.26142,-1.67454 -0.11832,-1.54212 -2.41381,-1.74575 -2.59562,-3.33137 -0.52655,-0.77179 -2.18276,-0.35333 -1.88772,-1.72011 0.0189,-0.44056 -0.38939,-0.66944 -0.78789,-0.61017 z"
       id="path4183" />
  </g>
</svg>
