<?xml version="1.0" encoding="UTF-8" standalone="no"?>
<!-- Created with Inkscape (http://www.inkscape.org/) -->

<svg
   width="46.737381mm"
   height="46.565445mm"
   viewBox="0 0 46.737381 46.565445"
   version="1.1"
   id="svg34373"
   inkscape:version="1.2.2 (732a01da63, 2022-12-09)"
   sodipodi:docname="france.svg"
   xmlns:inkscape="http://www.inkscape.org/namespaces/inkscape"
   xmlns:sodipodi="http://sodipodi.sourceforge.net/DTD/sodipodi-0.dtd"
   xmlns:xlink="http://www.w3.org/1999/xlink"
   xmlns="http://www.w3.org/2000/svg"
   xmlns:svg="http://www.w3.org/2000/svg">
  <sodipodi:namedview
     id="namedview34375"
     pagecolor="#ffffff"
     bordercolor="#000000"
     borderopacity="0.25"
     inkscape:showpageshadow="2"
     inkscape:pageopacity="0.0"
     inkscape:pagecheckerboard="0"
     inkscape:deskcolor="#d1d1d1"
     inkscape:document-units="mm"
     showgrid="false"
     inkscape:zoom="0.72515432"
     inkscape:cx="-106.18429"
     inkscape:cy="453.00702"
     inkscape:window-width="1920"
     inkscape:window-height="1001"
     inkscape:window-x="-9"
     inkscape:window-y="-9"
     inkscape:window-maximized="1"
     inkscape:current-layer="layer1" />
  <defs
     id="defs34370">
    <linearGradient
       inkscape:collect="always"
       xlink:href="#linearGradient10341"
       id="linearGradient34356"
       gradientUnits="userSpaceOnUse"
       x1="-1.3948056e-07"
       y1="548.1806"
       x2="1250.4951"
       y2="548.1806"
       gradientTransform="matrix(0.08865492,0,0,0.08865492,89.532349,29.169545)" />
    <linearGradient
       id="linearGradient10341"
       inkscape:swatch="solid">
      <stop
         style="stop-color:#468597;stop-opacity:1;"
         offset="0"
         id="stop10339" />
    </linearGradient>
  </defs>
  <g
     inkscape:label="Layer 1"
     inkscape:groupmode="layer"
     id="layer1"
     transform="translate(-89.374559,-28.946104)">
    <path
       style="fill:url(#linearGradient34356);fill-opacity:1;stroke:#4c6270;stroke-width:0.67019;stroke-linecap:round;stroke-dasharray:none;stroke-opacity:1"
       d="m 109.98527,74.859567 c -0.0308,-0.03075 -0.40643,-0.06825 -0.83483,-0.08333 -0.55439,-0.01953 -0.96372,-0.09284 -1.42001,-0.254376 -0.35259,-0.124827 -0.76349,-0.226959 -0.91311,-0.226959 -0.32231,0 -0.68302,-0.172371 -0.92835,-0.443632 -0.19008,-0.210172 -0.89971,-0.607989 -0.80172,-0.449448 0.0855,0.13838 -0.14447,0.111331 -0.34537,-0.04062 -0.0947,-0.07159 -0.2455,-0.130165 -0.33523,-0.130165 -0.21168,0 -0.29779,-0.230007 -0.15192,-0.405773 0.0747,-0.08997 0.18915,-0.118731 0.33092,-0.08315 0.20048,0.05032 0.21209,0.03577 0.15452,-0.193593 -0.0342,-0.136398 -0.069,-0.253876 -0.0772,-0.261065 -0.008,-0.0072 -0.27428,-0.154754 -0.59122,-0.327922 -0.366,-0.199974 -0.79609,-0.349779 -1.17877,-0.410577 -0.81529,-0.129532 -1.25064,-0.317619 -1.56569,-0.67645 -0.14541,-0.165613 -0.28555,-0.301117 -0.31142,-0.301117 -0.0259,0 -0.047,0.119684 -0.047,0.265965 0,0.146282 -0.0149,0.265967 -0.0331,0.265967 -0.0182,0 -0.21554,-0.08073 -0.43858,-0.179385 -0.22304,-0.09866 -0.788784,-0.232429 -1.257202,-0.29726 l -0.851673,-0.117871 -0.416348,-0.446125 c -0.228992,-0.245369 -0.628282,-0.552376 -0.88731,-0.682239 -0.29201,-0.146399 -0.536664,-0.347472 -0.643882,-0.52919 -0.0951,-0.161192 -0.371117,-0.460203 -0.613362,-0.664464 -0.242242,-0.204264 -0.573304,-0.599051 -0.73569,-0.877308 -0.250949,-0.430012 -0.340802,-0.512575 -0.598829,-0.550252 -0.274111,-0.04002 -0.309065,-0.07822 -0.360116,-0.393456 -0.05284,-0.326313 -0.169955,-0.474112 -0.578284,-0.729808 -0.152371,-0.09542 -0.125558,-0.141634 0.334338,-0.576257 0.846074,-0.799584 1.625071,-2.181257 2.306241,-4.090475 0.381992,-1.070668 0.573082,-1.479706 0.691277,-1.479706 0.04386,0 0.07978,-0.24934 0.07983,-0.554093 6.6e-5,-0.41621 0.08798,-0.807796 0.353298,-1.573625 0.194265,-0.560742 0.421354,-1.266963 0.50464,-1.569379 0.175522,-0.637325 0.405368,-0.912159 0.616386,-0.737028 0.07405,0.06146 0.134644,0.162282 0.134644,0.224052 0,0.06177 0.07846,0.206486 0.17436,0.321601 0.16442,0.197358 0.174684,0.199183 0.180007,0.03198 0.0052,-0.163126 0.01289,-0.164898 0.09601,-0.02217 0.141563,0.243049 0.258945,0.182544 0.257998,-0.132985 -0.0011,-0.331501 -0.342119,-1.115052 -0.566123,-1.300368 -0.303168,-0.250807 -0.335063,-0.427239 -0.144696,-0.800394 0.09887,-0.193789 0.180002,-0.443698 0.180303,-0.555353 2.65e-4,-0.111651 0.06481,-0.322688 0.143362,-0.468968 0.195813,-0.364654 0.385699,-1.086591 0.386969,-1.471229 0.0011,-0.358616 -0.120285,-0.496485 -0.689681,-0.782812 -0.578057,-0.290677 -1.045896,-0.83529 -1.495423,-1.740818 -0.495707,-0.998548 -0.53513,-1.386195 -0.183475,-1.804109 0.202202,-0.240305 0.241911,-0.371364 0.241911,-0.798396 0,-0.458923 0.02254,-0.521171 0.221639,-0.611881 0.236744,-0.107868 0.291685,-0.316995 0.11239,-0.427805 -0.06009,-0.03713 -0.389216,-0.08936 -0.731401,-0.116051 l -0.622157,-0.04853 -0.02641,-0.359206 c -0.01998,-0.271788 0.01778,-0.399193 0.155147,-0.523507 0.362677,-0.328219 0.16044,-0.654527 -0.557205,-0.899052 -0.369684,-0.125963 -0.55902,-0.301625 -0.325107,-0.301625 0.04876,0 0.08865,-0.09333 0.08865,-0.207407 0,-0.235492 -0.30213,-0.413178 -0.702553,-0.413178 -0.299429,0 -0.423807,-0.129876 -0.464278,-0.484804 -0.03227,-0.283001 -0.174072,-0.379392 -0.869831,-0.591275 -0.363826,-0.110797 -0.402434,-0.150688 -0.467865,-0.483434 -0.08857,-0.450416 -0.32289,-0.710067 -0.746286,-0.826973 -0.179496,-0.04956 -0.478637,-0.238811 -0.664761,-0.420556 l -0.3384,-0.330448 -0.258371,0.247536 c -0.389803,0.373455 -0.70321,0.202719 -0.960509,-0.523263 -0.05184,-0.146281 -0.122558,-0.33578 -0.157141,-0.421111 -0.05257,-0.129704 -0.01333,-0.155144 0.239164,-0.155144 0.495253,0 0.601867,-0.251211 0.270608,-0.637619 -0.236257,-0.27559 -0.0741,-0.370189 0.216046,-0.126042 0.151469,0.127452 0.336767,0.23173 0.411771,0.23173 0.196231,0 0.265848,-0.308804 0.149262,-0.662067 -0.104053,-0.315286 -0.159406,-0.347795 -0.754504,-0.443106 -0.594641,-0.09524 -0.664914,-0.134279 -0.664914,-0.369435 0,-0.631947 0.421436,-0.788927 1.900544,-0.707927 1.068615,0.05852 1.06957,0.05877 1.306838,0.344818 0.208047,0.250817 0.290846,0.286255 0.668811,0.286255 0.491787,0 0.911172,-0.222961 0.911172,-0.484412 0,-0.09352 0.03888,-0.194064 0.08641,-0.223435 0.144677,-0.08942 1.546307,0.212923 1.653749,0.356724 0.05502,0.07364 0.165862,0.556533 0.246316,1.073097 0.18804,1.207328 0.241255,1.308508 0.653061,1.241679 0.17454,-0.02832 0.456398,-0.150436 0.626356,-0.271364 0.29337,-0.208735 0.32512,-0.213257 0.627118,-0.08932 0.435544,0.178744 0.744445,0.41275 0.849238,0.643329 0.158372,0.348474 0.665705,0.317397 0.665705,-0.04078 0,-0.200364 0.121968,-0.141952 0.489488,0.234428 0.5554,0.568775 1.285,0.675773 1.28232,0.188053 -0.005,-0.960004 -0.20191,-3.470235 -0.31883,-4.070157 -0.13383,-0.686713 -0.13234,-0.869106 0.0118,-1.445739 0.0429,-0.171688 -0.002,-0.298013 -0.17981,-0.509767 -0.29937,-0.355767 -0.12917,-0.378473 0.4652,-0.06207 0.22673,0.120697 0.70055,0.283593 1.05293,0.361992 0.35239,0.0784 0.71303,0.195427 0.80142,0.260062 0.15375,0.112421 0.1517,0.133572 -0.0473,0.487669 -0.17471,0.310851 -0.20212,0.462995 -0.17113,0.949685 0.0453,0.712044 0.16537,0.824063 0.88297,0.824063 0.76113,0 1.44132,0.284089 1.77143,0.739857 0.34413,0.475113 0.39848,0.500499 0.8748,0.408631 0.21931,-0.0423 0.70793,-0.07864 1.08582,-0.08077 l 0.68708,-0.0039 -5.3e-4,-0.376782 c -5.3e-4,-0.327488 -0.0361,-0.397037 -0.27253,-0.531577 -0.66275,-0.377201 0.0279,-0.769448 1.99277,-1.13179 1.79975,-0.331893 2.34394,-0.483111 3.20606,-0.890892 0.77723,-0.367646 0.92546,-0.549452 0.92546,-1.135165 0,-0.435256 0.20938,-1.132417 0.59234,-1.972303 l 0.30773,-0.674885 0.99061,-0.05821 c 0.54483,-0.03202 1.28199,-0.103169 1.63814,-0.15811 0.77588,-0.119692 0.97002,-0.02854 0.65451,0.307303 -0.26078,0.277593 -0.27137,0.959652 -0.0188,1.21221 0.19603,0.196032 0.39559,0.255066 0.97746,0.289168 l 0.39895,0.02339 0.027,0.421111 c 0.0224,0.348793 0.0566,0.421111 0.19947,0.421111 0.19071,0 0.23543,0.141542 0.0629,0.199054 -0.12348,0.04116 -0.13493,0.02283 0.65925,1.054592 0.32552,0.422884 0.68111,0.766236 0.99916,0.96478 0.51523,0.321624 0.53789,0.363611 0.61454,1.138502 0.0637,0.643789 0.36305,1.2534 0.61498,1.252267 0.10536,-5.29e-4 0.36673,-0.140105 0.58082,-0.310293 0.2141,-0.170185 0.41736,-0.30943 0.4517,-0.30943 0.14043,0 0.36447,0.351335 0.48686,0.763461 0.0781,0.263051 0.29557,0.632108 0.54383,0.92294 0.22751,0.266539 0.57138,0.734351 0.76415,1.039585 0.35805,0.566931 0.38719,0.58474 1.11952,0.684234 0.35712,0.04852 0.55026,0.12591 1.31134,0.525455 0.15361,0.08064 0.51266,0.180713 0.79789,0.222379 0.39255,0.05734 0.44318,0.07905 0.20832,0.08927 -0.27763,0.01209 -0.29163,0.02392 -0.13299,0.112316 0.0975,0.05434 0.49026,0.37892 0.87274,0.721275 0.62443,0.558911 0.74662,0.630468 1.19684,0.700871 0.29319,0.04585 0.72231,0.205684 1.03335,0.384894 0.29256,0.168569 1.0938,0.585793 1.78053,0.927164 0.68673,0.341368 1.33815,0.715991 1.44759,0.832495 0.18531,0.197242 0.18994,0.229225 0.0674,0.46467 -0.0724,0.139065 -0.51061,0.723926 -0.97384,1.299688 -0.46322,0.575763 -0.86915,1.154102 -0.90205,1.285198 -0.0329,0.131096 -0.25323,0.657384 -0.48961,1.169532 -0.44394,0.961827 -0.65521,1.61353 -0.74828,2.308215 -0.0706,0.527013 -0.33588,0.951997 -0.64222,1.028885 -0.1344,0.03373 -0.52461,0.0099 -0.86714,-0.05304 -0.34253,-0.0629 -0.72688,-0.133033 -0.85412,-0.15584 -0.17058,-0.03058 -0.31611,0.03296 -0.55409,0.241914 -0.38102,0.334539 -0.4034,0.542533 -0.0975,0.906111 0.21768,0.258696 0.21993,0.273677 0.0665,0.443341 -0.19825,0.219231 -0.76102,0.511349 -0.98511,0.511349 -0.25566,0 -0.78331,0.386273 -1.55496,1.138309 -0.8919,0.869238 -2.25848,2.446526 -2.367,2.731966 -0.11439,0.30086 -0.019,0.619244 0.24879,0.829839 0.42304,0.332764 0.95028,0.174636 1.34479,-0.403336 0.12599,-0.184589 0.36871,-0.407326 0.53938,-0.494975 0.40964,-0.210386 1.06385,-0.316126 1.06385,-0.17195 0,0.05848 0.057,0.163288 0.1266,0.232916 0.0696,0.06963 0.14956,0.356015 0.17763,0.636415 0.083,0.829654 0.21595,1.750185 0.27483,1.903622 0.0396,0.103182 -0.0343,0.185298 -0.26516,0.294873 -0.17601,0.08352 -0.36075,0.227959 -0.41053,0.320966 -0.0918,0.171577 -0.0346,0.517025 0.0857,0.517025 0.0362,0 0.13447,0.05026 0.21848,0.111685 0.12865,0.09407 0.13729,0.156001 0.0548,0.392663 -0.11938,0.342443 -5.3e-4,0.61722 0.31935,0.73887 0.12436,0.04728 0.21625,0.153694 0.21625,0.250429 0,0.224734 -0.67258,0.833545 -1.23659,1.119354 -0.26737,0.135482 -0.48773,0.317285 -0.53487,0.441274 -0.12597,0.331341 0.0505,0.786779 0.49762,1.284055 l 0.40621,0.45181 -0.23563,0.308941 c -0.1296,0.169916 -0.2923,0.444529 -0.36154,0.610251 -0.15153,0.362672 -0.19389,1.242864 -0.0675,1.40195 0.0499,0.06275 0.11643,0.257318 0.14791,0.432369 0.0675,0.375219 0.29132,0.600599 0.8976,0.903804 0.24427,0.12216 0.54295,0.302133 0.66374,0.399941 0.2037,0.164952 0.21167,0.199795 0.10997,0.481042 -0.0603,0.166764 -0.10964,0.41271 -0.10964,0.546544 0,0.304067 -0.15688,0.609391 -0.27546,0.536107 -0.19707,-0.121798 -0.58155,0.0881 -1.04922,0.572796 -0.38947,0.403651 -0.6414,0.571918 -1.20199,0.802831 -1.2711,0.523581 -1.43991,0.62162 -1.55697,0.90424 -0.15216,0.367361 -0.37876,0.429972 -1.55612,0.429972 -1.07259,0 -1.27153,-0.05353 -1.85948,-0.50038 -0.15062,-0.114472 -0.40993,-0.25459 -0.57625,-0.311367 -0.16632,-0.05678 -0.54869,-0.331986 -0.84972,-0.611571 -0.63018,-0.585309 -1.19849,-0.819412 -1.89896,-0.782236 -0.40276,0.02138 -0.46749,-2.64e-4 -0.56961,-0.191151 -0.071,-0.13259 -0.39738,-0.35211 -0.84989,-0.571563 -0.40407,-0.195961 -0.76676,-0.426109 -0.80597,-0.51144 -0.18897,-0.411234 -0.23469,-0.46728 -0.40164,-0.492305 -0.48957,-0.07338 -2.78171,0.973429 -3.76859,1.721083 -0.34689,0.262808 -0.67932,0.47783 -0.73874,0.47783 -0.1887,0 -0.22269,0.269134 -0.16206,1.283298 0.07,1.17077 0.004,1.376349 -0.44088,1.376349 -0.16082,0 -0.31756,-0.02516 -0.34831,-0.05591 z M 99.10708,56.248389 c 0,-0.07602 -0.0399,-0.113556 -0.08866,-0.08342 -0.04876,0.03013 -0.08865,0.09233 -0.08865,0.138213 0,0.04588 0.03989,0.08342 0.08865,0.08342 0.04876,0 0.08866,-0.0622 0.08866,-0.138216 z"
       id="path34354" />
  </g>
</svg>
