<?xml version="1.0" encoding="UTF-8" standalone="no"?>
<!-- Created with Inkscape (http://www.inkscape.org/) -->

<svg
   width="168.68704"
   height="171.83545"
   viewBox="0 0 44.63178 45.464797"
   version="1.1"
   id="svg38585"
   inkscape:version="1.2.2 (732a01da63, 2022-12-09)"
   sodipodi:docname="france.svg"
   xmlns:inkscape="http://www.inkscape.org/namespaces/inkscape"
   xmlns:sodipodi="http://sodipodi.sourceforge.net/DTD/sodipodi-0.dtd"
   xmlns="http://www.w3.org/2000/svg"
   xmlns:svg="http://www.w3.org/2000/svg">
  <sodipodi:namedview
     id="namedview38587"
     pagecolor="#ffffff"
     bordercolor="#000000"
     borderopacity="0.25"
     inkscape:showpageshadow="2"
     inkscape:pageopacity="0.0"
     inkscape:pagecheckerboard="0"
     inkscape:deskcolor="#d1d1d1"
     inkscape:document-units="mm"
     showgrid="false"
     inkscape:zoom="0.72515432"
     inkscape:cx="-319.24239"
     inkscape:cy="24.132794"
     inkscape:window-width="1920"
     inkscape:window-height="1001"
     inkscape:window-x="-9"
     inkscape:window-y="-9"
     inkscape:window-maximized="1"
     inkscape:current-layer="layer1" />
  <defs
     id="defs38582" />
  <g
     inkscape:label="Layer 1"
     inkscape:groupmode="layer"
     id="layer1"
     transform="translate(-75.389252,-142.4257)">
    <path
       style="fill:#01a808;fill-opacity:1;stroke:#000000;stroke-width:0.116227;stroke-dasharray:none"
       d="m 105.0733,183.00957 c -0.80236,-0.003 -1.84045,0.0439 -2.2194,0.89602 -0.33982,0.99774 0.21427,2.24897 -0.64539,3.07317 -1.10013,0.99619 -2.694679,0.99051 -4.045242,1.42119 -0.617914,0.15076 -1.323348,0.44341 -1.431888,1.15679 -0.128815,0.47142 -0.537882,0.87864 -1.064313,0.76946 -1.243426,0.0179 -2.310789,-0.81472 -3.535236,-0.88923 -0.637733,-0.20076 -0.424333,-0.9783 -0.265139,-1.43901 -0.128553,-0.29456 -0.625604,-0.27977 -0.899247,-0.41412 -0.260435,-0.13205 -0.709007,-0.15829 -0.659895,0.25318 -0.02397,1.25128 0.558784,2.49622 0.16202,3.73413 -0.118043,0.31042 0.03226,0.69309 -0.09471,0.9714 -1.126688,0.5526 -2.258541,-0.41169 -3.405603,-0.33682 -0.540908,0.0344 -1.275775,0.35181 -1.628801,-0.24914 -0.375293,-0.44168 -0.297585,-1.26357 -0.897281,-1.49254 -0.672637,-0.10553 -1.299316,0.36099 -1.972154,0.21985 -1.108367,-0.0315 -2.344693,-0.568 -3.384675,0.0311 -0.322929,0.19884 -0.462555,0.60409 -0.186904,0.90928 0.313182,0.53223 0.89907,0.81636 1.364361,1.19411 -0.391737,0.217 -1.448327,0.23731 -0.83293,0.84493 0.16378,0.42513 0.528244,0.72968 0.997998,0.72355 0.867246,0.19373 1.421252,1.01027 2.120405,1.5036 0.800823,0.73674 1.762959,1.28278 2.548599,2.02963 0.485498,1.10215 0.706324,2.31521 1.090287,3.45862 0.312984,0.8065 0.295278,1.80222 1.041898,2.36244 0.467355,0.50202 0.934656,1.00409 1.401977,1.50614 -0.233974,0.96483 -0.497129,1.92738 -0.713243,2.89361 0.101058,0.32932 0.397486,0.69731 0.381685,1.02385 -0.268583,0.11142 -0.694092,0.0785 -0.734544,0.46564 -0.133474,0.85285 -0.426799,1.62987 -0.772141,2.41919 -0.189818,0.42647 -0.06802,0.89171 0.213399,1.23994 0.05221,0.38107 -0.399322,0.68905 -0.500237,1.04454 -1.020847,1.8146 -2.147347,3.60068 -3.118247,5.42315 0.308285,0.34354 0.794369,0.70765 0.593604,1.23574 -0.213699,0.63025 0.71348,0.72619 1.05378,1.08966 1.295318,0.78127 2.508932,1.74219 3.907808,2.33036 0.696291,0.17861 1.425337,0.4519 2.128036,0.46247 0.496893,-0.16883 1.015286,-0.66799 1.46789,-0.14985 0.98639,0.64407 2.077278,1.12285 3.059382,1.76444 0.153141,0.26784 0.0635,0.67979 0.433245,0.8144 1.027843,0.67743 2.403253,1.09244 3.564059,0.49769 0.666197,0.0339 0.509867,-0.59856 0.524187,-1.07434 -0.0854,-1.11296 0.51002,-2.35365 1.64776,-2.67501 0.85175,-0.20177 1.65435,-0.54448 2.43923,-0.92074 1.23137,-0.30764 2.27859,0.66611 3.41046,0.96764 0.87262,0.25763 2.0879,0.12901 2.53967,1.09242 0.43326,0.86238 1.52696,1.08322 2.4045,1.1669 0.76306,0.0235 1.76368,0.0665 2.17732,-0.72721 0.48521,-0.85479 1.54743,-1.10004 2.30697,-1.63841 0.83065,-0.42697 1.65899,-1.07191 1.82281,-2.04989 -0.0731,-0.43698 -0.67736,-0.16646 -0.96745,-0.33299 -1.14649,-0.2338 -2.05307,-1.64002 -1.37135,-2.71512 0.17488,-0.33278 0.61322,-0.71063 0.28,-1.09492 -0.29333,-0.57334 -0.64949,-1.11223 -1.03746,-1.62556 0.54427,-0.3754 1.21476,-0.57728 1.7183,-0.99754 -0.22446,-0.88482 -0.57092,-1.7438 -0.80204,-2.62668 0.27569,-0.24408 0.67521,-0.42487 0.87794,-0.70966 -0.28495,-0.46669 -0.57603,-0.95324 -0.4853,-1.52548 -0.0632,-0.34577 0.1465,-1.05715 -0.38602,-1.09779 -0.83394,-0.16618 -1.21975,0.81697 -1.86277,1.1404 -0.23438,0.12096 -0.59819,0.19584 -0.81385,0.0979 0.37468,-0.89388 0.61059,-1.87454 1.15884,-2.68164 0.43199,-0.34583 0.92129,-0.68062 1.05858,-1.2557 0.49454,-0.76764 1.44767,-1.12967 1.99896,-1.81476 0.13071,-0.40752 0.23639,-0.86259 0.38943,-1.24229 0.55593,0.14804 1.38106,0.65983 1.82464,0.0351 0.11703,-0.59252 0.0828,-1.22271 0.31813,-1.79886 0.50343,-1.68308 1.19128,-3.31501 2.22315,-4.74438 0.15343,-0.18365 0.19323,-0.47072 -0.12711,-0.49286 -0.65571,-0.19217 -1.21204,-0.5807 -1.77182,-0.95045 -0.7957,-0.37967 -1.77958,-0.29904 -2.50458,-0.81296 -0.3711,-0.48343 -0.54201,-1.1186 -0.91107,-1.58421 -0.55992,0.16991 -1.41546,0.21307 -1.7387,-0.37058 -0.0588,-0.35293 -0.56974,-0.12077 -0.78522,-0.30452 -1.1017,-0.4509 -2.36986,-1.29089 -2.419,-2.6077 0.0752,-0.45244 -0.3321,-0.24991 -0.58094,-0.15039 -0.62881,0.18553 -1.32196,0.0929 -1.89052,-0.23058 0.31145,-0.57544 0.45545,-1.4963 -0.23453,-1.86403 -0.75607,-0.63607 -1.96391,-1.08078 -2.06381,-2.20739 -0.11797,-0.62347 -0.8622,-0.52657 -1.33017,-0.5736 -0.65084,-0.22017 -0.6104,-1.06205 -0.55964,-1.61429 -0.1948,-0.29771 -0.70848,-0.13196 -1.00075,-0.18045 z"
       id="path132191" />
  </g>
</svg>
