<?xml version="1.0" encoding="UTF-8" standalone="no"?>
<!-- Created with Inkscape (http://www.inkscape.org/) -->

<svg
   width="44.459984mm"
   height="45.246132mm"
   viewBox="0 0 44.459984 45.246132"
   version="1.1"
   id="svg38585"
   inkscape:version="1.2.2 (732a01da63, 2022-12-09)"
   sodipodi:docname="france_1.svg"
   xmlns:inkscape="http://www.inkscape.org/namespaces/inkscape"
   xmlns:sodipodi="http://sodipodi.sourceforge.net/DTD/sodipodi-0.dtd"
   xmlns="http://www.w3.org/2000/svg"
   xmlns:svg="http://www.w3.org/2000/svg">
  <sodipodi:namedview
     id="namedview38587"
     pagecolor="#ffffff"
     bordercolor="#000000"
     borderopacity="0.25"
     inkscape:showpageshadow="2"
     inkscape:pageopacity="0.0"
     inkscape:pagecheckerboard="0"
     inkscape:deskcolor="#d1d1d1"
     inkscape:document-units="mm"
     showgrid="false"
     inkscape:zoom="0.72515432"
     inkscape:cx="22.753777"
     inkscape:cy="171.68759"
     inkscape:window-width="1920"
     inkscape:window-height="1001"
     inkscape:window-x="-9"
     inkscape:window-y="-9"
     inkscape:window-maximized="1"
     inkscape:current-layer="layer1" />
  <defs
     id="defs38582" />
  <g
     inkscape:label="Layer 1"
     inkscape:groupmode="layer"
     id="layer1"
     transform="translate(-61.356192,-103.25372)">
    <path
       style="fill:#01a808;fill-opacity:1;stroke:#000000;stroke-width:0.359312;stroke-dasharray:none;stroke-opacity:1"
       d="m 87.477342,103.44364 c -1.016777,-0.035 -2.334294,0.50173 -2.051285,1.75124 0.204922,1.31515 -0.474218,2.68034 -1.871544,2.92744 -1.439425,0.63486 -3.642024,0.36144 -4.271571,2.13901 -0.972079,1.0981 -2.582756,0.0594 -3.73027,-0.18164 -0.571386,-0.19988 -1.634297,-0.2273 -1.269222,-1.13314 0.426542,-0.76328 -0.821756,-1.18442 -1.200552,-0.70106 -0.01656,1.56985 0.550738,3.32678 -0.207315,4.78359 -1.502531,0.31835 -2.966569,-0.6983 -4.506807,-0.3438 -0.803351,-0.10862 -0.701897,-2.0935 -1.890881,-1.73971 -1.58549,0.5991 -3.491815,-0.63862 -4.91571,0.41068 -0.22874,0.89727 1.033457,1.32611 1.574361,1.79958 -0.460505,0.15732 -1.502614,0.36855 -0.821375,1.01436 0.454689,0.65949 1.441878,0.44821 1.934202,1.13503 1.156898,1.09766 2.628307,1.94712 3.695983,3.06787 0.793234,2.26375 0.968454,4.93827 2.902746,6.60012 1.019062,0.91967 -0.174021,2.25526 -0.124775,3.3723 -0.06154,0.53538 0.859129,1.41302 -0.172939,1.35666 -0.519708,0.77758 -0.619747,1.8424 -0.999683,2.71726 -0.323443,0.66614 0.514506,1.20614 -0.09381,1.82392 -0.945637,2.02969 -2.403965,3.83062 -3.207438,5.9086 0.600924,0.53355 0.271634,1.56224 1.140399,1.91379 1.952929,1.22889 3.922512,3.01269 6.353649,2.98114 1.232852,-0.73413 2.355085,0.57812 3.423634,1.03709 0.703726,0.31451 1.170707,0.87344 1.591972,1.44995 1.081709,0.77827 2.762536,1.1769 3.845131,0.24849 -0.03163,-1.38689 0.349713,-3.07137 1.875838,-3.52396 1.301491,-0.16386 2.495883,-1.52966 3.820067,-0.73902 1.199235,0.64764 2.516177,0.94652 3.8104,1.25605 0.845383,0.62165 1.403509,1.71626 2.603045,1.78275 1.075015,0.23234 2.341459,0.0404 2.8834,-1.0183 1.137857,-1.16183 3.417258,-1.43664 3.737708,-3.24504 -0.52182,-0.30047 -1.354944,-0.19618 -1.777008,-0.81099 -0.975257,-0.75386 -0.838954,-2.14354 -0.06159,-2.98831 -0.263239,-0.68372 -1.026192,-1.39177 -0.998609,-2.10535 0.92619,-0.55783 2.048677,-0.84036 1.155047,-2.07066 -0.424111,-0.88412 -0.645068,-1.61461 0.308313,-2.11247 -0.223776,-0.72262 -0.441626,-1.49282 -0.430376,-2.2808 -0.553106,-0.76683 -1.405853,0.4922 -1.933845,0.7358 -0.243324,0.25196 -1.287529,0.55911 -0.914823,-0.14645 0.338875,-1.29926 1.000548,-2.46122 1.95604,-3.38037 0.556485,-1.2507 2.248641,-1.6694 2.475941,-3.13153 0.51675,-0.51888 1.59456,0.61855 1.83323,-0.41177 0.33837,-2.3857 1.55155,-4.52795 2.62632,-6.61932 -1.30333,-0.65142 -2.61328,-1.39189 -4.08431,-1.65313 -0.83256,-0.45632 -0.89084,-1.97946 -2.134358,-1.7072 -0.72485,0.0223 -0.965362,-0.82137 -1.71364,-0.75119 -1.141296,-0.50635 -2.232586,-1.50226 -2.439416,-2.73338 -0.730698,-0.087 -1.932297,0.35639 -2.352765,-0.42823 0.413639,-0.68929 0.251592,-1.51971 -0.519179,-1.8719 -0.877501,-0.57094 -1.71436,-1.26191 -2.004378,-2.2944 -0.671496,-0.31139 -1.839962,-0.36719 -1.766276,-1.44582 0.342239,-0.87142 -0.544219,-0.59987 -1.081678,-0.64378 z"
       id="path38571" />
  </g>
</svg>
