<?xml version="1.0" encoding="UTF-8" standalone="no"?>
<!-- Created with Inkscape (http://www.inkscape.org/) -->

<svg
   width="113.32597"
   height="151.7146"
   viewBox="0 0 29.984164 40.141154"
   version="1.1"
   id="svg3384"
   inkscape:version="1.2.2 (732a01da63, 2022-12-09)"
   sodipodi:docname="germany.svg"
   xmlns:inkscape="http://www.inkscape.org/namespaces/inkscape"
   xmlns:sodipodi="http://sodipodi.sourceforge.net/DTD/sodipodi-0.dtd"
   xmlns="http://www.w3.org/2000/svg"
   xmlns:svg="http://www.w3.org/2000/svg">
  <sodipodi:namedview
     id="namedview3386"
     pagecolor="#ffffff"
     bordercolor="#000000"
     borderopacity="0.25"
     inkscape:showpageshadow="2"
     inkscape:pageopacity="0.0"
     inkscape:pagecheckerboard="0"
     inkscape:deskcolor="#d1d1d1"
     inkscape:document-units="mm"
     showgrid="false"
     inkscape:zoom="0.72515432"
     inkscape:cx="-213.0581"
     inkscape:cy="-168.92956"
     inkscape:window-width="1920"
     inkscape:window-height="1001"
     inkscape:window-x="-9"
     inkscape:window-y="-9"
     inkscape:window-maximized="1"
     inkscape:current-layer="layer1" />
  <defs
     id="defs3381" />
  <g
     inkscape:label="Layer 1"
     inkscape:groupmode="layer"
     id="layer1"
     transform="translate(-123.74542,-193.33353)">
    <path
       style="fill:#01a808;fill-opacity:1;stroke:#000000;stroke-width:0.376;stroke-dasharray:none"
       d="m 134.94617,193.52153 c -0.27889,0.42221 -0.36146,1.001 0.0646,1.35959 0.12995,0.38832 0.82265,1.15638 0.11393,1.22185 -0.31044,0.0572 -0.56281,0.337 -0.28281,0.6208 0.15117,0.47707 0.69955,0.97582 0.60983,1.40529 -0.64934,0.63633 -1.3053,1.31979 -1.59344,2.19015 -0.45088,0.34312 -0.95913,0.63259 -1.38718,1.01348 -0.53237,-0.45254 -0.0892,-1.74238 -0.98893,-1.89962 -0.94942,-0.12345 -2.19451,0.48358 -2.32851,1.49858 0.12027,0.16701 0.4248,0.14248 0.36686,0.45295 -0.0184,1.14565 -0.15727,2.46205 -0.955,3.34098 -0.18751,0.27654 -0.95427,0.0247 -0.83347,0.4613 0.28944,0.42837 1.13728,0.80235 0.7641,1.42414 -0.41774,0.66939 -1.01174,1.21979 -1.34034,1.9452 -0.66364,0.57719 -1.68201,-0.16729 -2.35358,0.30103 -0.14377,0.89282 0.74364,1.78209 0.27039,2.68398 -0.25183,0.52828 -0.75996,0.87388 -1.11906,1.31097 0.31386,1.08329 0.69058,2.14672 1.04286,3.21389 0.2534,0.80953 -0.73767,1.17942 -0.90411,1.84317 0.25943,0.7663 1.36949,1.4335 0.86993,2.33534 -0.65023,0.60032 0.0784,1.18401 0.35189,1.76916 0.27883,0.86312 1.37319,0.60454 2.06498,0.92115 0.88289,0.19883 1.48042,0.97116 2.37814,1.15248 0.24989,0.13521 0.97925,0.21968 0.51826,0.61853 -1.33901,1.84129 -2.33331,3.96873 -2.7893,6.19814 0.10033,0.66496 1.07601,0.38248 1.52349,0.49645 0.60062,0.008 1.40903,0.31178 1.4443,-0.54 0.27183,-0.54782 0.9768,0.0885 1.38313,0.11646 0.87342,0.27798 1.90381,0.16237 2.5622,0.91728 0.49541,0.45714 1.30462,0.0804 1.71404,0.68739 0.27872,0.14002 0.54629,0.77715 0.8431,0.69903 0.2526,-0.34868 0.4297,-0.79668 0.71118,-1.10032 0.7381,0.3094 1.45635,0.67437 2.19002,0.98639 1.21456,-0.59158 2.49566,-1.10952 3.87583,-1.02505 0.82549,0.0529 1.82002,-0.29312 2.52309,0.25006 0.12575,-0.63142 -0.18267,-1.37028 -0.21394,-2.02773 -0.34312,-0.80405 0.73855,-1.03909 1.19881,-1.41934 0.68154,-0.26766 0.77689,-1.08543 1.34592,-1.44668 0.5603,-0.09 1.14938,-0.56751 0.91171,-1.19096 -0.22429,-0.74122 -1.20361,-0.58328 -1.58796,-1.19553 -0.57962,-0.67244 -1.09672,-1.45067 -1.95507,-1.80164 -1.02767,-0.84049 -0.37208,-2.44571 -1.24844,-3.40377 -0.18724,-0.39067 -0.7675,-0.92009 -0.46509,-1.36743 1.25149,-0.2316 2.37675,-1.00087 3.5567,-1.49231 1.20875,-0.59374 2.44339,-1.16028 3.63416,-1.77475 0.0791,-0.26462 -0.14095,-0.9376 0.14811,-1.05754 0.57481,0.19439 0.99826,0.8519 1.56163,0.94968 0.81342,-0.99013 0.19981,-2.26468 -0.20913,-3.28376 -0.64257,-1.63731 -0.25433,-3.48615 -0.58865,-5.16111 -0.40491,-0.64803 -1.27062,-1.12998 -1.35452,-1.91811 0.28938,-0.82921 0.92665,-1.56968 0.73694,-2.51076 -0.0306,-0.76469 -0.17097,-1.68652 0.59986,-2.1655 -0.72831,-0.9426 -1.92208,-1.26131 -2.97311,-1.69961 -0.49674,-0.16568 -0.82358,-0.79592 -0.33876,-1.1897 0.0975,-0.24959 0.70654,-0.10974 0.47067,-0.4894 -0.19038,-0.21738 -0.57891,-0.97028 -0.75477,-0.68197 -0.0564,0.57285 -0.42037,1.1611 -1.07624,1.04731 -1.22436,-0.11705 -2.07134,0.96599 -3.14659,1.35461 -0.62918,0.24533 -1.24612,0.75139 -1.88962,0.82428 -0.52873,-0.25579 -1.30515,-0.28143 -1.70678,-0.69727 -0.0325,-0.50121 0.46381,-0.98079 0.33496,-1.44997 -0.82212,-0.11263 -1.62564,-0.37883 -2.43232,-0.5884 -0.26424,-0.80044 -0.20639,-2.2351 -1.30337,-2.40016 -0.89144,-0.0106 -1.70961,-0.43279 -2.56549,-0.6327 z"
       id="path20453" />
  </g>
</svg>
