<?xml version="1.0" encoding="UTF-8" standalone="no"?>
<!-- Created with Inkscape (http://www.inkscape.org/) -->

<svg
   width="113.413"
   height="151.35001"
   viewBox="0 0 30.00719 40.044689"
   version="1.1"
   id="svg3384"
   inkscape:version="1.2.2 (732a01da63, 2022-12-09)"
   sodipodi:docname="germany.svg"
   xmlns:inkscape="http://www.inkscape.org/namespaces/inkscape"
   xmlns:sodipodi="http://sodipodi.sourceforge.net/DTD/sodipodi-0.dtd"
   xmlns="http://www.w3.org/2000/svg"
   xmlns:svg="http://www.w3.org/2000/svg">
  <sodipodi:namedview
     id="namedview3386"
     pagecolor="#ffffff"
     bordercolor="#000000"
     borderopacity="0.25"
     inkscape:showpageshadow="2"
     inkscape:pageopacity="0.0"
     inkscape:pagecheckerboard="0"
     inkscape:deskcolor="#d1d1d1"
     inkscape:document-units="mm"
     showgrid="false"
     inkscape:zoom="0.72515432"
     inkscape:cx="-266.83975"
     inkscape:cy="-273.73484"
     inkscape:window-width="1920"
     inkscape:window-height="1001"
     inkscape:window-x="-9"
     inkscape:window-y="-9"
     inkscape:window-maximized="1"
     inkscape:current-layer="layer1" />
  <defs
     id="defs3381" />
  <g
     inkscape:label="Layer 1"
     inkscape:groupmode="layer"
     id="layer1"
     transform="translate(-137.80717,-220.99678)">
    <path
       style="fill:#01a808;stroke:#000000;stroke-width:0.6;stroke-dasharray:none"
       d="m 149.35186,221.29678 c -1.17798,0.25613 0.24197,1.54677 -0.009,2.15509 -1.31875,0.59076 0.82299,1.94552 -0.33066,2.70448 -0.62873,0.51145 -0.91691,1.38765 -1.31705,1.95862 -0.57971,-0.0642 -1.26633,1.33613 -1.36491,0.18405 -0.13399,-0.77145 -0.66157,-1.84014 -1.61149,-1.30058 -1.90879,0.49606 -1.02682,2.90866 -1.56922,4.28434 -0.0964,0.73052 -0.66266,1.20723 -1.273,1.38237 0.21558,0.54926 1.06088,1.08017 0.48509,1.75708 -0.54628,0.9561 -1.36293,2.11191 -2.65111,1.76257 -1.64757,-0.47166 -0.39662,1.35733 -0.57037,2.17542 0.17432,1.15391 -1.6027,1.71236 -0.84765,2.89285 0.33807,1.18303 1.44857,2.93352 -0.073,3.78661 -0.46363,0.7345 1.09751,1.47119 0.80623,2.44318 -0.46114,1.38543 0.62853,2.83027 2.06647,2.86146 1.14735,0.41659 2.19205,1.11974 3.32326,1.52871 -1.00127,2.1194 -2.68823,4.15514 -2.78347,6.59741 0.66066,0.5961 1.89799,0.50285 2.72322,0.27698 0.14537,-0.3545 0.17867,-0.77787 0.71448,-0.47447 1.32647,0.24591 2.64565,0.56051 3.75215,1.34592 0.91847,-0.0718 1.37491,0.9164 2.14394,1.09678 0.44559,-0.36262 0.47765,-1.44858 1.30186,-0.81524 0.93312,0.6953 2.08283,0.86765 3.06603,0.16355 1.59386,-0.61647 3.42074,-0.16988 4.98566,-0.48763 -0.0877,-1.01273 -0.76115,-2.61339 0.68409,-2.96121 1.07028,-0.38237 1.13932,-1.68652 2.2756,-1.9738 0.86247,-0.34108 0.0498,-1.40294 -0.56764,-1.49529 -1.24245,-1.12764 -2.9108,-2.15272 -3.43365,-3.81343 0.253,-1.26748 -1.10441,-2.10413 -0.98588,-3.2792 2.36446,-0.98862 4.95526,-1.87598 7.0349,-3.43669 0.36861,-0.47548 0.0925,-1.46573 0.83246,-0.57979 0.39721,0.50038 1.46323,0.66253 1.34693,-0.23495 -0.11867,-2.04311 -1.23435,-3.90372 -0.9783,-6.008 0.29095,-1.50522 -1.20977,-2.3514 -1.51048,-3.62759 0.9892,-1.31859 0.52252,-3.07169 1.0902,-4.536 -0.39241,-1.21542 -1.94502,-1.17703 -2.83563,-1.78139 -0.64195,-0.4093 -0.29604,-1.08627 0.0395,-1.50542 0.14105,-0.6174 -0.5898,-1.21551 -0.68055,-0.29267 -0.47954,0.78695 -1.68676,0.33463 -2.32362,0.99584 -1.58473,0.76409 -3.68023,2.46759 -5.36905,1.01695 0.3747,-0.56973 0.54481,-1.66157 -0.44712,-1.64264 -1.03164,-0.002 -1.93127,-0.55689 -1.96975,-1.65429 -0.36855,-1.30425 -2.08584,-1.3044 -3.16933,-1.46998 z"
       id="path38549" />
  </g>
</svg>
