<?xml version="1.0" encoding="UTF-8" standalone="no"?>
<!-- Created with Inkscape (http://www.inkscape.org/) -->

<svg
   width="111.417"
   height="113.938"
   viewBox="0 0 29.479081 30.146097"
   version="1.1"
   id="svg53898"
   inkscape:version="1.2.2 (732a01da63, 2022-12-09)"
   sodipodi:docname="greece.svg"
   xmlns:inkscape="http://www.inkscape.org/namespaces/inkscape"
   xmlns:sodipodi="http://sodipodi.sourceforge.net/DTD/sodipodi-0.dtd"
   xmlns="http://www.w3.org/2000/svg"
   xmlns:svg="http://www.w3.org/2000/svg">
  <sodipodi:namedview
     id="namedview53900"
     pagecolor="#ffffff"
     bordercolor="#000000"
     borderopacity="0.25"
     inkscape:showpageshadow="2"
     inkscape:pageopacity="0.0"
     inkscape:pagecheckerboard="0"
     inkscape:deskcolor="#d1d1d1"
     inkscape:document-units="mm"
     showgrid="false"
     inkscape:zoom="0.72515432"
     inkscape:cx="0.68950841"
     inkscape:cy="189.61481"
     inkscape:window-width="1920"
     inkscape:window-height="1001"
     inkscape:window-x="-9"
     inkscape:window-y="-9"
     inkscape:window-maximized="1"
     inkscape:current-layer="layer1" />
  <defs
     id="defs53895" />
  <g
     inkscape:label="Layer 1"
     inkscape:groupmode="layer"
     id="layer1"
     transform="translate(-66.989563,-98.39901)">
    <path
       style="fill:#01a808;fill-opacity:1;stroke:#000000;stroke-width:0.4;stroke-dasharray:none"
       d="m 93.210374,98.616472 c -0.61612,0.05144 -0.925386,0.813641 -0.423066,1.232236 0.405347,0.725042 -0.450231,1.284262 -1.102606,1.220082 -0.94396,-0.0315 -1.735392,0.91583 -2.670056,0.40813 -1.308754,-0.41872 -2.771222,-0.97638 -4.143823,-0.55118 -0.887148,0.38735 -1.663091,1.10194 -2.706065,0.99829 -0.794124,0.0584 -1.384986,0.69727 -2.203382,0.68233 -0.576275,-0.004 -0.689165,0.55083 -0.874995,0.95222 -0.796272,0.57119 -1.899063,0.0712 -2.743224,0.4104 -0.662472,1.38066 -2.270183,1.74535 -3.654423,1.87203 -0.575691,0.47847 0.292291,1.48692 -0.386609,2.01811 -0.4607,0.4901 -0.817176,1.08757 -0.856766,1.76189 -0.598598,0.61385 -1.480473,1.09734 -1.508294,2.07296 -0.22284,0.76193 -0.39048,1.67552 0.280109,2.27316 0.899478,1.052 2.398133,1.34236 3.447574,2.09381 -0.397351,0.38219 -1.483701,0.30421 -1.319075,0.97754 0.606068,0.57677 1.138346,1.20963 1.571752,1.91076 0.838981,0.40789 1.846535,-0.0373 2.73512,0.002 0.993126,-0.15158 2.223029,0.18929 2.952099,-0.7041 0.422243,0.71786 1.386726,0.62617 2.031024,1.04995 0.32522,0.16672 1.067387,0.40498 1.080989,0.55478 -0.536461,-0.0579 -0.869476,0.43504 -1.213403,0.71594 -1.276352,-0.20164 -2.487557,-0.79802 -3.533658,-1.55479 -0.800341,-0.10625 -1.3685,0.57966 -1.915319,1.02412 -0.710213,-0.10253 -1.099283,0.54307 -1.309159,1.12397 -0.69724,0.76353 0.398458,1.24897 0.840521,1.76027 0.764553,0.65778 1.54287,1.56104 1.290214,2.6498 -0.175114,0.67037 0.07496,1.80578 0.944621,1.731 0.468643,-0.15567 0.194024,-1.04783 0.816258,-0.99627 0.846577,0.40275 1.108604,1.40713 1.733534,2.0133 0.798489,0.14158 0.453107,-1.39278 1.326166,-1.16058 0.733597,0.0573 0.83285,1.037 1.469718,1.17248 0.517866,-0.36924 -0.07925,-1.07328 -0.142116,-1.55711 -0.355285,-1.1189 -0.863975,-2.18878 -1.383302,-3.22473 0.01453,-0.57752 0.691808,-0.58494 0.977535,-0.20026 0.403595,0.55602 1.027697,0.80063 1.400868,0.0659 0.816038,-0.57952 -0.372406,-1.11351 -0.714494,-1.57609 -0.226896,-0.32314 -1.116198,-0.7263 -0.478007,-1.01627 0.531865,-0.27221 1.181608,-0.69977 1.733571,-0.64946 0.66221,0.42327 1.221632,1.06899 1.947942,1.3533 0.431879,-0.40715 -0.05944,-1.10501 0.04388,-1.66005 0.118639,-0.67006 -0.160639,-1.3374 -0.835578,-1.57004 -0.934582,-0.49297 -1.974389,-0.77593 -2.821964,-1.42693 -0.768172,-0.40552 -1.827122,-0.50565 -2.507258,-0.81221 0.271098,-0.51978 1.262341,-0.45364 1.196031,-1.07273 -0.309475,-0.4463 -0.854895,-1.13172 -0.490919,-1.68467 0.530313,-0.35894 0.900875,0.90572 1.423893,0.38003 0.06087,-0.67485 -0.73868,-1.10176 -1.084919,-1.61697 -1.028605,-1.10778 -2.511891,-2.30475 -2.220873,-3.99177 0.05521,-0.59936 0.56587,-1.31766 1.106657,-1.36465 0.03627,1.08264 1.279805,1.58473 2.16521,1.64492 0.358412,0.11686 0.464352,-0.34666 0.86107,-0.25242 0.290799,-0.11291 0.460756,-0.29278 0.767141,-0.2942 0.477862,-0.61268 -0.3121,-1.33327 -0.429649,-1.96241 -0.247118,-0.48124 0.204259,-0.97435 0.710425,-0.81018 1.042265,0.14691 1.360443,-1.43076 2.40143,-1.11805 0.665083,0.19762 1.202888,-0.2219 1.746446,-0.50763 1.11651,-0.16419 2.201032,0.50669 3.330858,0.26989 0.557006,-0.0411 1.26166,0.3401 1.649479,-0.26634 0.514313,-0.43109 0.640199,-1.18868 0.181025,-1.69987 -0.01106,-0.77633 1.242981,-1.08722 0.98589,-1.96595 -0.206338,-0.561742 -0.892286,-1.065601 -1.476049,-1.127419 z"
       id="path53828" />
    <path
       style="fill:#01a808;fill-opacity:1;stroke:#000000;stroke-width:0.4;stroke-dasharray:none"
       d="m 82.793976,114.64326 c -0.236643,0.1576 -0.480173,0.37341 -0.779123,0.34086 -0.299866,0.10764 -0.183971,0.48876 0.04476,0.60457 0.874533,0.64371 1.865427,1.12796 2.690548,1.83687 0.234503,0.21616 0.44381,0.67065 0.827054,0.47204 0.319114,-0.0354 0.784838,-0.15265 0.997267,0.16864 0.189989,0.56742 0.705853,0.93854 1.10521,1.35733 0.270885,0.31067 0.801648,0.36824 1.130652,0.12761 0.241741,-0.31021 -0.170757,-0.57847 -0.421601,-0.6889 -0.321664,-0.14502 -0.680482,-0.2563 -0.868682,-0.58351 -0.360053,-0.36944 -0.25522,-0.94399 -0.516631,-1.37038 -0.292365,-0.6334 -1.069838,-0.72613 -1.676903,-0.8453 -0.654516,-0.0909 -1.358715,-0.24802 -1.801492,-0.78295 -0.250211,-0.19831 -0.263541,-0.68514 -0.640019,-0.67681 -0.03034,0.0133 -0.06069,0.0266 -0.09104,0.0399 z"
       id="path53834" />
    <path
       style="fill:#01a808;fill-opacity:1;stroke:#000000;stroke-width:0.4;stroke-dasharray:none"
       d="m 71.693798,119.09994 c -0.277405,0.29792 -0.485725,0.66948 -0.698458,1.01291 -0.126444,0.31147 0.269669,0.42311 0.506989,0.36694 0.294381,-0.0366 0.720236,0.10362 0.893702,-0.21152 0.02627,-0.36501 -0.182764,-0.70797 -0.313476,-1.03979 -0.06938,-0.14421 -0.246639,-0.19745 -0.388757,-0.12854 z"
       id="path53836" />
    <path
       style="fill:#01a808;fill-opacity:1;stroke:#000000;stroke-width:0.4;stroke-dasharray:none"
       d="m 68.291849,113.10282 c -0.593543,0.16656 -0.42077,1.27994 0.207131,1.31245 0.367486,0.17954 1.021416,-0.13648 0.711989,-0.58166 -0.211524,-0.24422 -0.608619,-0.25469 -0.674214,-0.62552 -0.06181,-0.0674 -0.152702,-0.10918 -0.244906,-0.10527 z"
       id="path53842" />
    <path
       style="fill:#01a808;fill-opacity:1;stroke:#000000;stroke-width:0.4;stroke-dasharray:none"
       d="m 68.176017,111.44987 c -0.740879,-0.009 -1.202606,0.87593 -0.880452,1.50884 0.426802,0.38305 0.465252,-0.68573 0.66043,-0.13893 0.584356,0.26731 0.753821,-0.61217 0.764084,-1.03101 -0.01167,-0.28649 -0.307681,-0.3663 -0.544062,-0.3389 z"
       id="path53844" />
    <path
       style="fill:#01a808;fill-opacity:1;stroke:#000000;stroke-width:0.4;stroke-dasharray:none"
       d="m 87.247171,104.39229 c -0.494784,0.0937 -1.10476,0.80421 -0.692833,1.26733 0.381085,0.19749 0.844524,0.5084 1.276281,0.39332 0.38354,-0.33989 0.485349,-1.00371 0.0079,-1.3239 -0.163402,-0.15163 -0.349613,-0.34727 -0.591325,-0.33675 z"
       id="path53846" />
    <path
       style="fill:#01a808;fill-opacity:1;stroke:#000000;stroke-width:0.4;stroke-dasharray:none"
       d="m 90.377985,108.48931 c -0.436776,-0.10105 -0.865957,0.57609 -0.30703,0.71557 0.369411,0.17302 1.022599,-0.20292 0.654701,-0.60869 -0.0936,-0.0846 -0.225142,-0.10975 -0.347671,-0.10688 z"
       id="path53848" />
    <path
       style="fill:#01a808;fill-opacity:1;stroke:#000000;stroke-width:0.4;stroke-dasharray:none"
       d="m 94.616976,111.39312 c -0.503233,0.0218 -0.920433,0.44941 -1.125361,0.86631 0.154509,0.3733 0.760262,0.40854 1.110142,0.2757 0.144137,-0.0418 0.399322,-0.5488 0.275881,-0.17097 -0.136671,0.57713 0.629504,0.74979 1.054285,0.79774 0.563076,-0.0934 0.315952,-0.79257 0.0093,-1.04336 -0.344082,-0.36132 -0.802277,-0.71991 -1.324258,-0.72542 z"
       id="path53850" />
    <path
       style="fill:#01a808;fill-opacity:1;stroke:#000000;stroke-width:0.4;stroke-dasharray:none"
       d="m 90.011162,119.61097 c -0.532715,0.18926 -0.085,0.81404 0.191558,1.03567 0.303064,0.30984 0.705043,-0.17191 0.425185,-0.45938 -0.153408,-0.22105 -0.29369,-0.59695 -0.616743,-0.57629 z"
       id="path53852" />
    <path
       style="fill:#01a808;fill-opacity:1;stroke:#000000;stroke-width:0.4;stroke-dasharray:none"
       d="m 94.404113,115.56623 c -0.460494,0.0125 -0.362447,0.57827 -0.106074,0.79786 0.341535,0.29298 0.05005,0.91706 0.510495,1.07422 0.525634,-0.0536 0.507357,-0.782 0.493932,-1.18856 -0.07542,-0.40497 -0.50555,-0.67833 -0.898353,-0.68352 z"
       id="path53854" />
    <path
       style="fill:#01a808;fill-opacity:1;stroke:#000000;stroke-width:0.4;stroke-dasharray:none"
       d="m 82.464964,113.5816 c -0.275325,0.0195 -0.364908,0.37332 -0.187417,0.56003 0.09479,0.17295 0.300918,0.394 0.505134,0.24383 0.246214,-0.16129 0.06753,-0.48854 -0.03776,-0.68632 -0.06203,-0.0877 -0.174567,-0.13164 -0.279957,-0.11754 z"
       id="path53856" />
    <path
       style="fill:#01a808;fill-opacity:1;stroke:#000000;stroke-width:0.4;stroke-dasharray:none"
       d="m 83.848666,107.85969 c -0.172524,-0.003 -0.24425,0.2142 -0.09051,0.29059 0.101864,0.15722 0.232955,0.29593 0.312173,0.46997 0.223436,0.2845 0.499788,0.5339 0.795624,0.73942 0.151294,0.0992 0.336452,-0.0964 0.214318,-0.23679 -0.371092,-0.35441 -0.788626,-0.68482 -1.042538,-1.14223 -0.04274,-0.0635 -0.106257,-0.12608 -0.189064,-0.12096 z"
       id="path53864" />
    <path
       style="fill:#01a808;fill-opacity:1;stroke:#000000;stroke-width:0.4;stroke-dasharray:none"
       d="m 85.172361,106.9545 c -0.262064,0.0181 -0.515744,0.10278 -0.758277,0.18805 -0.224253,0.0174 -0.158708,0.35819 0.03785,0.37123 0.165439,0.0609 0.345371,0.0821 0.505981,0.002 0.418476,-0.0858 0.851064,0.12344 1.127355,0.42256 0.109572,0.12852 0.158478,0.42538 0.384014,0.35237 0.189307,-0.15853 0.01225,-0.42008 -0.103172,-0.57011 -0.184509,-0.24791 -0.475953,-0.40147 -0.742137,-0.52567 -0.09975,-0.11292 -0.25562,-0.16192 -0.383318,-0.23533 -0.02241,-0.005 -0.04545,-0.006 -0.0683,-0.005 z"
       id="path53866" />
    <path
       style="fill:#01a808;fill-opacity:1;stroke:#000000;stroke-width:0.4;stroke-dasharray:none"
       d="m 82.715742,108.35542 c -0.142431,-0.0152 -0.353753,0.0924 -0.206087,0.24333 0.0911,0.11326 0.150945,0.24678 0.211844,0.37292 0.152429,0.10666 0.235403,-0.10955 0.192167,-0.23002 -0.02593,-0.13298 0.0066,-0.40174 -0.197924,-0.38623 z"
       id="path53868" />
    <path
       style="fill:#01a808;fill-opacity:1;stroke:#000000;stroke-width:0.4;stroke-dasharray:none"
       d="m 93.430769,123.84913 c -0.147399,0.0277 -0.27677,0.20809 -0.140263,0.32983 0.07198,0.15795 0.299762,0.0853 0.287742,-0.0815 0.01275,-0.10051 -0.0072,-0.2662 -0.147479,-0.24831 z"
       id="path53870" />
  </g>
</svg>
