<?xml version="1.0" encoding="UTF-8" standalone="no"?>
<!-- Created with Inkscape (http://www.inkscape.org/) -->

<svg
   width="87.855003"
   height="73.517998"
   viewBox="0 0 23.244969 19.451637"
   version="1.1"
   id="svg97441"
   inkscape:version="1.2.2 (732a01da63, 2022-12-09)"
   sodipodi:docname="iceland.svg"
   xmlns:inkscape="http://www.inkscape.org/namespaces/inkscape"
   xmlns:sodipodi="http://sodipodi.sourceforge.net/DTD/sodipodi-0.dtd"
   xmlns="http://www.w3.org/2000/svg"
   xmlns:svg="http://www.w3.org/2000/svg">
  <sodipodi:namedview
     id="namedview97443"
     pagecolor="#ffffff"
     bordercolor="#000000"
     borderopacity="0.25"
     inkscape:showpageshadow="2"
     inkscape:pageopacity="0.0"
     inkscape:pagecheckerboard="0"
     inkscape:deskcolor="#d1d1d1"
     inkscape:document-units="mm"
     showgrid="false"
     inkscape:zoom="0.72515432"
     inkscape:cx="101.35774"
     inkscape:cy="-53.092147"
     inkscape:window-width="1920"
     inkscape:window-height="1001"
     inkscape:window-x="-9"
     inkscape:window-y="-9"
     inkscape:window-maximized="1"
     inkscape:current-layer="layer1" />
  <defs
     id="defs97438" />
  <g
     inkscape:label="Layer 1"
     inkscape:groupmode="layer"
     id="layer1"
     transform="translate(-40.556264,-162.85537)">
    <path
       style="fill:#01a808;fill-opacity:1;stroke:#000000;stroke-width:0.4;stroke-dasharray:none"
       d="m 47.313754,163.05959 c -0.310976,-0.0487 -0.532847,0.31335 -0.34946,0.54621 -0.368478,0.75873 0.371489,1.62605 -0.01754,2.35617 -0.322965,0.008 -0.414609,-0.51566 -0.625106,-0.69691 -0.325082,-0.45826 -0.370113,-1.08697 -0.762349,-1.49312 -0.551823,0.0708 -0.609099,0.92648 -1.18981,1.05249 -0.406627,0.12356 -1.044937,-0.0761 -1.196434,0.47675 -0.02511,0.42653 -0.38206,0.31154 -0.687624,0.2491 -0.569797,0.0959 -0.06247,0.64844 0.214636,0.80752 1.089741,0.60591 2.593104,0.56099 3.332041,1.71292 0.139209,0.18972 0.289076,0.41061 0.416057,0.62104 -0.459858,0.20248 -1.011162,0.24237 -1.398555,0.56823 -0.05482,0.44484 0.641889,0.63759 0.688357,1.00345 -0.453649,0.3798 -0.96847,-0.18894 -1.357378,-0.39547 -0.901059,-0.47214 -1.941391,-0.44695 -2.886981,-0.79022 -0.431027,-0.23241 -1.000707,0.30972 -0.602783,0.69247 0.779068,0.60516 1.972524,0.53771 2.617547,1.35004 0.211147,0.9486 0.134966,1.98189 0.08647,2.97936 0.01754,0.49198 -0.388298,0.87813 -0.876155,0.82423 -0.537147,0.0858 -0.989696,-0.34159 -1.503107,-0.3038 -0.498485,0.27192 -0.309849,1.12443 0.19675,1.30617 0.793005,0.47397 1.833347,0.54414 2.49921,1.21166 1.207656,1.58868 1.944976,3.69142 3.778712,4.69819 0.672106,0.44971 1.502351,0.27625 2.178394,-0.0618 0.893633,-0.46543 1.871983,-0.12478 2.788775,0.0432 1.245344,0.15556 2.454384,-0.40217 3.685588,-0.36973 1.014635,-0.13598 2.157677,0.1287 3.076162,-0.4182 0.581753,-0.57872 1.306767,-0.99866 2.137934,-1.07845 0.432768,-0.0346 0.39638,-0.53732 0.318667,-0.83588 0.508735,0.11883 0.917443,-0.3351 0.724879,-0.82209 -0.03276,-0.70051 0.753348,-1.00437 0.991806,-1.57758 -0.157339,-0.72493 -1.163166,-0.99231 -1.190704,-1.79671 -0.02101,-0.33498 -0.456856,-0.52395 -0.504857,-0.72523 0.226256,-0.31561 0.739659,-0.71953 0.349819,-1.11086 -0.394168,-0.3566 -0.111064,-0.91698 0.20982,-1.21076 0.163629,-0.62266 -0.724109,-0.2662 -1.053751,-0.45508 -0.562959,-0.0795 -0.300821,-0.77437 -0.374166,-1.14882 0.118613,-0.55645 -0.399695,-0.95903 -0.900681,-0.98804 -0.525312,0.34815 -0.760063,1.0888 -1.360421,1.30438 -0.456465,0.0437 -0.603491,-0.85207 -1.070229,-0.40578 -0.427652,0.37455 -0.834838,0.51061 -1.181746,-0.0498 -0.277074,-0.20311 -0.846191,-1.02114 -1.064797,-0.38234 -0.106545,0.24926 -0.118264,0.75758 -0.277546,0.88075 -0.56353,-0.51338 -0.119578,-1.52823 -0.792728,-1.99973 -0.5749,-0.41984 -1.147112,0.25496 -1.453335,0.68532 -0.188654,0.20655 -0.391266,0.62326 -0.57217,0.70142 -0.338092,-0.74522 -0.455763,-1.60319 -0.870426,-2.29619 -0.532889,0.0239 -0.69482,0.77178 -1.070129,1.08958 -0.235734,0.26607 -0.528073,0.76745 -0.749675,0.88759 -0.01427,-0.35793 -0.324699,-0.78061 -0.69158,-0.49412 -0.451655,0.26264 -0.755148,0.69885 -1.089913,1.08598 -0.209267,-0.83258 -0.320102,-2.03542 0.590609,-2.4967 0.790412,-0.54244 0.316333,-1.61506 0.213757,-2.36763 -0.219819,-0.75578 -0.26146,-1.69507 -0.887792,-2.24392 -0.147907,-0.0808 -0.317832,-0.12052 -0.486057,-0.11923 z"
       id="path97427" />
  </g>
</svg>
