<?xml version="1.0" encoding="UTF-8" standalone="no"?>
<!-- Created with Inkscape (http://www.inkscape.org/) -->

<svg
   width="60.048"
   height="65.296997"
   viewBox="0 0 15.8877 17.276498"
   version="1.1"
   id="svg104311"
   inkscape:version="1.2.2 (732a01da63, 2022-12-09)"
   sodipodi:docname="ireland.svg"
   xmlns:inkscape="http://www.inkscape.org/namespaces/inkscape"
   xmlns:sodipodi="http://sodipodi.sourceforge.net/DTD/sodipodi-0.dtd"
   xmlns="http://www.w3.org/2000/svg"
   xmlns:svg="http://www.w3.org/2000/svg">
  <sodipodi:namedview
     id="namedview104313"
     pagecolor="#ffffff"
     bordercolor="#000000"
     borderopacity="0.25"
     inkscape:showpageshadow="2"
     inkscape:pageopacity="0.0"
     inkscape:pagecheckerboard="0"
     inkscape:deskcolor="#d1d1d1"
     inkscape:document-units="mm"
     showgrid="false"
     inkscape:zoom="0.72515432"
     inkscape:cx="21.374761"
     inkscape:cy="-68.261332"
     inkscape:window-width="1920"
     inkscape:window-height="1001"
     inkscape:window-x="-9"
     inkscape:window-y="-9"
     inkscape:window-maximized="1"
     inkscape:current-layer="layer1" />
  <defs
     id="defs104308" />
  <g
     inkscape:label="Layer 1"
     inkscape:groupmode="layer"
     id="layer1"
     transform="translate(-61.744406,-166.83674)">
    <path
       style="fill:#01a808;fill-opacity:1;stroke:#000000;stroke-width:0.4;stroke-dasharray:none"
       d="m 76.476122,167.08787 c -0.903702,0.13952 -1.830596,-0.009 -2.729677,0.14913 -0.38808,0.15615 -0.835522,0.34723 -0.931077,0.80575 -0.164943,0.47519 -0.725643,0.51935 -1.121846,0.65485 0.281093,0.32349 0.784857,0.48985 1.136658,0.78006 -0.524828,0.3421 -0.955895,0.80404 -1.338064,1.30097 -0.207002,0.3869 -0.531008,0.42868 -0.919533,0.27549 -0.572328,-0.15254 -1.317199,-0.0945 -1.659504,-0.67413 -0.291595,-0.35382 -0.728662,-0.71153 -1.208942,-0.68637 -0.631127,0.0862 -0.792472,0.78667 -0.902719,1.30566 -0.02088,0.1537 -0.113162,0.44932 0.115578,0.47762 0.317889,0.18899 0.622099,0.40247 0.910061,0.63448 -0.56079,0.24417 -1.146,0.43792 -1.678341,0.74207 -0.229149,-0.0318 -0.558551,0.0696 -0.67916,0.28534 0.02074,0.41661 0.364957,0.75693 0.628903,1.05576 0.640182,0.63118 1.474611,1.00426 2.28585,1.36136 0.02082,0.19165 0.0358,0.45537 -0.221154,0.46852 -0.448845,0.10165 -0.958543,0.16504 -1.232742,0.59118 -0.413599,0.47876 -0.813574,1.03078 -1.458067,1.20262 -0.482557,0.0777 -0.288212,0.33076 0.0743,0.38406 0.500386,0.20405 1.05315,0.0274 1.555295,0.0438 0.09088,0.16433 0.03336,0.28813 -0.164706,0.26901 -0.567664,0.14309 -1.15946,0.1171 -1.705674,-0.0772 -0.394341,0.14664 -0.55154,0.63091 -0.868919,0.88677 -0.254134,0.31809 -0.669504,0.44223 -1.068807,0.39294 -0.176206,0.2338 0.458574,0.15233 0.422434,0.43661 0.0935,0.39734 -0.431432,0.39771 -0.680679,0.50978 -0.343827,0.15296 -0.815906,0.0866 -1.090073,0.36091 0.0041,0.30641 0.382245,0.4674 0.576747,0.66068 0.16956,0.13039 0.46477,0.232 0.382431,0.49712 0.05543,0.50666 0.698599,0.42461 1.060578,0.50447 0.08768,0.0796 -0.165427,0.32166 -0.16672,0.48965 0.01818,0.42313 0.556406,0.567 0.896896,0.65928 0.987709,0.16638 2.035901,0.0618 2.966023,-0.30483 0.06815,-0.11397 0.128801,-0.16371 0.28331,-0.10988 1.136132,-0.11215 2.224241,-0.55112 3.364026,-0.6127 0.936374,-0.0952 1.924905,0.0254 2.748921,0.52358 0.291166,-0.16388 -0.167259,-0.84736 0.320781,-0.91196 0.895802,-0.56788 1.574982,-1.44166 2.091785,-2.35649 0.379018,-0.72649 0.0915,-1.57409 0.322768,-2.33935 0.267353,-0.97487 0.384416,-2.02344 0.04067,-2.99645 0.02304,-0.18548 0.385387,-0.13024 0.512599,-0.22283 0.384839,-0.27754 -0.628322,-0.14095 -0.686446,-0.43035 -0.364376,-0.64712 -0.680281,-1.33888 -1.087882,-1.95079 -0.253172,0.29509 -0.47022,0.7387 -0.917784,0.81132 -0.759169,0.19102 -1.297411,-0.55315 -1.56922,-1.14223 -0.139634,-0.35841 -0.351062,-0.77032 -0.289893,-1.15945 0.528201,-0.36085 0.860306,-0.93981 1.375661,-1.30718 0.3283,-0.18975 0.776968,-0.0157 1.033235,-0.35951 0.561557,-0.47879 1.107289,-1.26177 1.924434,-1.18553 0.130159,-0.15612 -0.154684,-0.41052 -0.263689,-0.56307 -0.103304,-0.0989 -0.248187,-0.13788 -0.388634,-0.13052 z"
       id="path104297" />
  </g>
</svg>
