<?xml version="1.0" encoding="UTF-8" standalone="no"?>
<!-- Created with Inkscape (http://www.inkscape.org/) -->

<svg
   width="172.86501"
   height="212.552"
   viewBox="0 0 45.737199 56.237717"
   version="1.1"
   id="svg60668"
   inkscape:version="1.2.2 (732a01da63, 2022-12-09)"
   sodipodi:docname="italy.svg"
   xmlns:inkscape="http://www.inkscape.org/namespaces/inkscape"
   xmlns:sodipodi="http://sodipodi.sourceforge.net/DTD/sodipodi-0.dtd"
   xmlns="http://www.w3.org/2000/svg"
   xmlns:svg="http://www.w3.org/2000/svg">
  <sodipodi:namedview
     id="namedview60670"
     pagecolor="#ffffff"
     bordercolor="#000000"
     borderopacity="0.25"
     inkscape:showpageshadow="2"
     inkscape:pageopacity="0.0"
     inkscape:pagecheckerboard="0"
     inkscape:deskcolor="#d1d1d1"
     inkscape:document-units="mm"
     showgrid="false"
     inkscape:zoom="0.72515432"
     inkscape:cx="77.91445"
     inkscape:cy="134.45414"
     inkscape:window-width="1920"
     inkscape:window-height="1001"
     inkscape:window-x="-9"
     inkscape:window-y="-9"
     inkscape:window-maximized="1"
     inkscape:current-layer="layer1" />
  <defs
     id="defs60665" />
  <g
     inkscape:label="Layer 1"
     inkscape:groupmode="layer"
     id="layer1"
     transform="translate(-46.817863,-113.08454)">
    <path
       style="fill:#01a808;fill-opacity:1;stroke:#000000;stroke-width:0.4;stroke-dasharray:none"
       d="m 66.507792,113.34576 c -0.944086,0.10594 -2.084474,0.0933 -2.699898,0.95099 -0.257511,0.3551 -0.744985,0.38791 -1.057688,0.0847 -0.302104,-0.3511 -0.877935,-0.41341 -1.132162,0.0254 -0.304935,0.38513 0.03301,0.91673 -0.182071,1.30027 -0.374118,0.24399 -0.991301,-0.50568 -1.198761,0.0829 -0.171492,0.5497 -0.219215,1.14479 -0.351607,1.68983 -0.221393,-0.34913 -0.476766,-1.04805 -1.02081,-0.76838 -0.574305,0.25584 -0.917922,-0.33727 -1.270551,-0.659 -0.448667,-0.1434 -0.463939,0.57324 -0.659355,0.83283 -0.336478,0.77667 -0.644305,1.56659 -1.003265,2.32842 -0.711708,-1.09047 -1.264473,-2.3198 -2.043766,-3.34815 -1.057019,0.49424 -1.147586,2.12952 -2.413456,2.36064 -0.567393,-0.13016 -1.160272,-0.36212 -1.731721,-0.0773 -0.385398,0.17724 -0.756976,0.0292 -1.120886,-0.0974 -0.327515,0.0752 -0.715331,0.31242 -0.82943,0.64163 0.0997,0.89221 0.531271,1.7191 0.740453,2.59105 -0.471879,0.35007 -1.050613,0.53456 -1.507223,0.89621 0.04536,0.57752 0.59908,1.03614 0.777153,1.57436 0.33996,0.75902 -0.632481,1.3032 -0.503063,2.07402 0.09752,0.98194 1.094383,1.65861 2.04788,1.54678 0.297545,-0.0705 0.532167,0.11193 0.480153,0.44023 0.108966,0.47944 -0.458158,0.92905 -0.276328,1.33732 0.93047,0.11184 1.990775,-0.18579 2.608373,-0.9595 0.641006,-0.66393 1.254975,-1.71234 2.328014,-1.57998 1.137827,0.0321 1.880073,1.09587 2.890742,1.50623 0.890664,0.49691 2.140543,0.83309 2.401102,1.96724 0.398078,1.40423 0.159046,2.95522 0.733414,4.3176 0.602451,1.19937 1.955628,1.95462 2.19152,3.34152 0.34767,0.42827 1.024858,0.28031 1.464077,0.59615 0.849551,0.36194 0.949804,1.47737 1.821416,1.80978 0.997558,0.5565 1.3369,1.76077 2.181974,2.49151 0.633558,0.62444 1.374666,1.14296 2.130417,1.59907 0.913857,0.14347 1.958284,-0.0778 2.773656,0.43449 0.651047,0.65804 0.658177,1.88208 1.674,2.16611 0.462852,0.14813 0.833763,0.42328 1.156767,0.76313 0.578694,0.18524 1.352139,-0.0583 1.729396,0.57843 0.642069,0.82527 0.629369,2.20002 1.720085,2.62435 0.653846,0.17075 1.555094,-0.0505 1.875303,0.73795 0.476308,1.05993 0.499081,2.26298 0.969852,3.33098 0.276119,0.99316 0.920123,1.91408 0.933378,2.96538 -0.147531,0.65573 -1.331322,0.13268 -1.287737,0.9859 0.05582,0.64338 -0.128853,1.26977 -0.5793,1.74494 -0.258755,0.30415 -0.548447,0.77302 -0.126424,1.08797 0.272627,0.39399 0.848434,0.71872 1.249246,0.3047 0.643105,-0.54105 0.879005,-1.41445 1.555743,-1.93491 0.631023,-0.48767 0.69991,-1.3015 0.838739,-2.02103 0.260914,-0.85054 1.223582,-0.97874 1.939751,-1.22598 0.561202,-0.27198 0.164661,-0.95192 0.170016,-1.395 -0.0021,-0.62483 -0.235244,-1.28748 -0.854403,-1.54583 -0.750615,-0.44973 -1.900021,-0.90005 -1.804438,-1.97219 0.179555,-1.22197 0.762321,-2.41673 1.640957,-3.28782 0.700585,-0.60639 1.608847,0.0791 2.242127,0.44953 0.528722,0.45461 1.288399,0.14543 1.826426,0.5335 0.547791,0.52927 0.299686,1.60881 1.155079,1.87942 0.300953,0.20366 0.759296,0.21486 0.876514,-0.20248 0.447215,-0.62654 0.563658,-1.53651 -0.01611,-2.12468 -1.189159,-1.42347 -3.136233,-1.85283 -4.440214,-3.12795 -1.734008,-1.00001 -3.753443,-1.40737 -5.487519,-2.40952 -0.503973,-0.29819 -0.346829,-0.95742 0.02096,-1.29597 0.231603,-0.29439 0.74527,-0.84681 0.259588,-1.15329 -0.466593,-0.15923 -1.001146,0.1025 -1.472134,0.024 -1.468967,-0.008 -3.02405,-0.26716 -4.159261,-1.27753 -1.298173,-1.07019 -2.542683,-2.36915 -3.071439,-4.00035 -0.286343,-1.05819 -0.180711,-2.2199 -0.629637,-3.22785 -0.689729,-0.94801 -1.897317,-1.29085 -2.771804,-2.03268 -0.957091,-0.73301 -2.184194,-1.54562 -2.312189,-2.85636 0.091,-0.75277 -0.625377,-1.47248 -0.251534,-2.19701 0.200713,-0.34358 0.761916,-0.45145 0.813263,-0.82579 -0.508947,-0.66274 -1.206698,-1.49669 -0.895434,-2.40367 0.485928,-0.75436 1.524071,-0.78111 2.275604,-1.12804 0.484434,-0.17542 0.989494,-0.41004 1.261957,-0.87312 0.777354,0.23306 1.534073,0.62391 2.326629,0.76212 0.383461,-0.26156 -0.0821,-0.7455 -0.207991,-1.04412 -0.30992,-0.47142 -0.650693,-1.08155 -0.319241,-1.63232 0.04545,-0.47998 -0.505087,-0.73188 -0.749763,-1.0713 0.221691,-0.29184 0.921977,-0.56492 0.673854,-1.01651 -0.734915,-0.35301 -1.622759,-0.28708 -2.411127,-0.4533 -0.806731,-0.062 -1.690119,-0.31892 -2.074558,-1.10191 -0.352407,-0.46986 -0.500724,-1.14971 -0.960478,-1.48824 -0.290263,0.019 -0.580525,0.038 -0.870786,0.0569 z"
       id="path60651" />
    <path
       style="fill:#01a808;fill-opacity:1;stroke:#000000;stroke-width:0.4;stroke-dasharray:none"
       d="m 79.966644,160.77794 c -0.83426,0.0325 -1.522804,0.57427 -2.357345,0.60453 -1.564971,0.26149 -3.136511,0.48158 -4.704712,0.72259 -0.775812,-0.38774 -1.494925,-0.95605 -2.319825,-1.21595 -0.414739,0.10408 -0.702611,0.57102 -1.100476,0.60529 -0.45484,-0.1156 -0.955897,-0.83017 -1.351068,-0.28801 -0.484722,0.49165 -1.414436,1.09423 -1.055227,1.91124 0.4909,1.07934 1.872715,1.03898 2.811343,1.48304 1.380911,0.62853 2.354641,2.13158 3.9888,2.16695 0.887728,0.0204 1.417585,0.79225 1.899471,1.4281 0.551627,0.72412 1.537779,0.85117 2.374786,0.92019 0.545833,-0.49331 0.837581,-1.24473 1.097791,-1.92346 -0.04103,-0.91679 -1.050656,-1.65223 -0.746004,-2.62882 0.246118,-1.32753 1.183759,-2.35375 1.848805,-3.4801 0.06161,-0.23616 -0.203644,-0.32482 -0.386339,-0.30559 z"
       id="path60653" />
  </g>
</svg>
