<?xml version="1.0" encoding="UTF-8" standalone="no"?>
<!-- Created with Inkscape (http://www.inkscape.org/) -->

<svg
   width="65.166"
   height="51.679001"
   viewBox="0 0 17.241837 13.673403"
   version="1.1"
   id="svg70582"
   inkscape:version="1.2.2 (732a01da63, 2022-12-09)"
   sodipodi:docname="lithuania.svg"
   xmlns:inkscape="http://www.inkscape.org/namespaces/inkscape"
   xmlns:sodipodi="http://sodipodi.sourceforge.net/DTD/sodipodi-0.dtd"
   xmlns="http://www.w3.org/2000/svg"
   xmlns:svg="http://www.w3.org/2000/svg">
  <sodipodi:namedview
     id="namedview70584"
     pagecolor="#ffffff"
     bordercolor="#000000"
     borderopacity="0.25"
     inkscape:showpageshadow="2"
     inkscape:pageopacity="0.0"
     inkscape:pagecheckerboard="0"
     inkscape:deskcolor="#d1d1d1"
     inkscape:document-units="mm"
     showgrid="false"
     inkscape:zoom="0.72515432"
     inkscape:cx="170.30858"
     inkscape:cy="-10.342626"
     inkscape:window-width="1920"
     inkscape:window-height="1001"
     inkscape:window-x="-9"
     inkscape:window-y="-9"
     inkscape:window-maximized="1"
     inkscape:current-layer="layer1" />
  <defs
     id="defs70579" />
  <g
     inkscape:label="Layer 1"
     inkscape:groupmode="layer"
     id="layer1"
     transform="translate(-22.414861,-151.51427)">
    <path
       style="fill:#01a808;fill-opacity:1;stroke:#000000;stroke-width:0.4;stroke-dasharray:none"
       d="m 32.892623,151.90764 c -1.393635,0.77787 -3.084497,0.38094 -4.580033,0.8323 -1.309926,0.007 -2.794027,-0.47593 -3.954339,0.38311 -0.648311,0.46597 -1.196385,1.06888 -1.729216,1.65063 -0.12764,1.79738 0.607433,3.89864 2.378009,4.63553 0.85089,0.31609 1.831732,0.0101 2.667275,0.21199 0.61173,0.40521 0.703104,1.18473 0.556218,1.84792 -0.110154,0.54113 -0.106217,1.24787 0.482894,1.51059 0.711782,0.38088 1.803363,0.33925 2.123252,1.23761 0.181033,0.24449 0.128011,0.97663 0.582821,0.72033 1.05346,-0.39787 2.27026,-0.36157 3.280749,-0.77242 -0.215601,-0.56843 -0.04083,-0.82971 0.559102,-0.787 0.601136,7.9e-4 0.598072,-0.99892 1.210754,-0.77821 0.594128,0.17986 0.875758,-0.0386 0.440942,-0.5559 -0.216313,-0.50383 0.195847,-1.02427 0.164706,-1.54858 0.104653,-0.50084 -0.0094,-1.09858 0.184724,-1.53671 0.491254,-0.24912 0.786823,-0.69983 0.983422,-1.19093 0.296214,-0.4654 0.91277,-0.70744 1.148635,-1.16225 -0.606536,-0.36294 -0.648652,-1.09711 -0.722193,-1.71561 -0.597887,-0.41407 -1.276546,-0.801 -1.868726,-1.25294 -0.54846,-0.34412 -1.018445,-0.91273 -1.730827,-0.80617 -0.583923,0.0159 -1.119841,-0.0555 -1.363287,-0.65865 -0.268648,-0.3688 -0.367906,-0.67532 -0.814882,-0.26464 z"
       id="path70568" />
  </g>
</svg>
