<?xml version="1.0" encoding="UTF-8" standalone="no"?>
<!-- Created with Inkscape (http://www.inkscape.org/) -->

<svg
   width="38.008999"
   height="31.676001"
   viewBox="0 0 10.056547 8.3809418"
   version="1.1"
   id="svg42079"
   inkscape:version="1.2.2 (732a01da63, 2022-12-09)"
   sodipodi:docname="macedonia.svg"
   xmlns:inkscape="http://www.inkscape.org/namespaces/inkscape"
   xmlns:sodipodi="http://sodipodi.sourceforge.net/DTD/sodipodi-0.dtd"
   xmlns="http://www.w3.org/2000/svg"
   xmlns:svg="http://www.w3.org/2000/svg">
  <sodipodi:namedview
     id="namedview42081"
     pagecolor="#ffffff"
     bordercolor="#000000"
     borderopacity="0.25"
     inkscape:showpageshadow="2"
     inkscape:pageopacity="0.0"
     inkscape:pagecheckerboard="0"
     inkscape:deskcolor="#d1d1d1"
     inkscape:document-units="mm"
     showgrid="false"
     inkscape:zoom="0.72515432"
     inkscape:cx="-178.58268"
     inkscape:cy="-7.5845925"
     inkscape:window-width="1920"
     inkscape:window-height="1001"
     inkscape:window-x="-9"
     inkscape:window-y="-9"
     inkscape:window-maximized="1"
     inkscape:current-layer="layer1" />
  <defs
     id="defs42076" />
  <g
     inkscape:label="Layer 1"
     inkscape:groupmode="layer"
     id="layer1"
     transform="translate(-65.029943,-150.14835)">
    <path
       style="fill:#f0ef19;fill-opacity:1;stroke:#000000;stroke-width:0.4;stroke-dasharray:none"
       d="m 72.023129,150.34846 c -1.06209,0.42176 -2.211533,0.53782 -3.345736,0.53716 -0.29101,0.25048 -0.620596,0.65879 -1.062341,0.52303 -0.271855,-0.1229 -0.58682,-0.12292 -0.83148,0.064 -0.514615,0.35484 -0.971534,0.81091 -1.321136,1.32933 -0.308663,0.66862 -0.206042,1.43458 -0.232437,2.14938 0.01614,1.07192 0.182698,2.30075 1.080397,3.01105 0.650616,0.49107 1.522188,0.37101 2.278764,0.28974 0.824243,-0.13981 1.720596,-0.44483 2.164136,-1.21038 0.220226,-0.34765 0.572031,-0.7003 1.02294,-0.62079 0.63736,-0.0455 1.298302,0.0375 1.919629,-0.13649 0.41054,-0.16894 0.236585,-0.75682 0.60457,-0.97632 0.163994,-0.14407 0.38485,-0.19089 0.576199,-0.26711 -0.06408,-0.91367 -0.02204,-1.89378 -0.447926,-2.73347 -0.49216,-0.91203 -1.651265,-1.06114 -2.314364,-1.79205 -0.04776,-0.0522 0.03102,-0.17195 -0.09122,-0.16712 z"
       id="path37556" />
  </g>
</svg>
