<?xml version="1.0" encoding="UTF-8" standalone="no"?>
<!-- Created with Inkscape (http://www.inkscape.org/) -->

<svg
   width="51.124001"
   height="58.448002"
   viewBox="0 0 13.526558 15.464366"
   version="1.1"
   id="svg6983"
   inkscape:version="1.2.2 (732a01da63, 2022-12-09)"
   sodipodi:docname="moldova.svg"
   xmlns:inkscape="http://www.inkscape.org/namespaces/inkscape"
   xmlns:sodipodi="http://sodipodi.sourceforge.net/DTD/sodipodi-0.dtd"
   xmlns="http://www.w3.org/2000/svg"
   xmlns:svg="http://www.w3.org/2000/svg">
  <sodipodi:namedview
     id="namedview6985"
     pagecolor="#ffffff"
     bordercolor="#000000"
     borderopacity="0.25"
     inkscape:showpageshadow="2"
     inkscape:pageopacity="0.0"
     inkscape:pagecheckerboard="0"
     inkscape:deskcolor="#d1d1d1"
     inkscape:document-units="mm"
     showgrid="false"
     inkscape:zoom="0.72515432"
     inkscape:cx="-153.76037"
     inkscape:cy="-82.0515"
     inkscape:window-width="1920"
     inkscape:window-height="1001"
     inkscape:window-x="-9"
     inkscape:window-y="-9"
     inkscape:window-maximized="1"
     inkscape:current-layer="layer1" />
  <defs
     id="defs6980" />
  <g
     inkscape:label="Layer 1"
     inkscape:groupmode="layer"
     id="layer1"
     transform="translate(-108.16993,-170.32223)">
    <path
       style="fill:#01a808;fill-opacity:1;stroke:#000000;stroke-width:0.4;stroke-dasharray:none"
       d="m 111.03563,170.52223 c -0.91208,0.1819 -1.8549,0.46218 -2.62685,0.98858 -0.20459,0.43059 0.41645,0.71604 0.62927,1.0192 0.66296,0.54794 1.10724,1.28314 1.43634,2.06454 1.28837,1.74699 3.29766,2.95458 4.21045,4.9782 0.46087,1.3555 -0.0437,2.82642 0.29992,4.20985 0.14203,0.63121 0.3344,1.30842 0.76213,1.80274 0.45426,0.0347 0.58508,-0.59356 0.86312,-0.86187 0.54996,-0.91722 1.16001,-1.90789 1.20482,-3.00242 -0.0483,-0.59401 -0.57513,-1.27793 -0.0902,-1.8121 1.16259,-0.14866 2.39934,0.15514 3.55493,-0.13445 0.47721,-0.23529 0.0527,-0.74666 -0.19389,-0.98447 -0.39768,-0.50862 -0.67255,-1.14036 -1.28881,-1.43364 -0.68859,-0.49861 -0.89976,-1.36864 -1.23153,-2.08869 -0.38644,-0.1483 -1.08046,0.0617 -1.24011,-0.5174 -0.34251,-0.74705 -0.0876,-1.70909 -0.59258,-2.39054 -1.12841,-0.85359 -2.71415,-0.33118 -3.89561,-1.07434 -0.58514,-0.2639 -1.15646,-0.68057 -1.80137,-0.76319 z"
       id="path6969" />
  </g>
</svg>
