<?xml version="1.0" encoding="UTF-8" standalone="no"?>
<!-- Created with Inkscape (http://www.inkscape.org/) -->

<svg
   width="28.821608"
   height="33.302944"
   viewBox="0 0 7.6257169 8.811404"
   version="1.1"
   id="svg29262"
   inkscape:version="1.2.2 (732a01da63, 2022-12-09)"
   sodipodi:docname="montenegro.svg"
   xmlns:inkscape="http://www.inkscape.org/namespaces/inkscape"
   xmlns:sodipodi="http://sodipodi.sourceforge.net/DTD/sodipodi-0.dtd"
   xmlns="http://www.w3.org/2000/svg"
   xmlns:svg="http://www.w3.org/2000/svg">
  <sodipodi:namedview
     id="namedview29264"
     pagecolor="#ffffff"
     bordercolor="#000000"
     borderopacity="0.25"
     inkscape:showpageshadow="2"
     inkscape:pageopacity="0.0"
     inkscape:pagecheckerboard="0"
     inkscape:deskcolor="#d1d1d1"
     inkscape:document-units="mm"
     showgrid="false"
     inkscape:zoom="0.72515432"
     inkscape:cx="-228.22728"
     inkscape:cy="-68.261332"
     inkscape:window-width="1920"
     inkscape:window-height="1001"
     inkscape:window-x="-9"
     inkscape:window-y="-9"
     inkscape:window-maximized="1"
     inkscape:current-layer="layer1" />
  <defs
     id="defs29259" />
  <g
     inkscape:label="Layer 1"
     inkscape:groupmode="layer"
     id="layer1"
     transform="translate(-88.7232,-167.31744)">
    <path
       style="fill:#f0ef19;fill-opacity:1;stroke:#000000;stroke-width:0.5;stroke-dasharray:none;stroke-opacity:1"
       d="m 91.384055,167.57239 c -0.577144,0.0225 -0.343445,0.76593 -0.216265,1.00542 -1.609971,0.0169 -2.605921,1.93129 -2.027653,3.35424 0.04508,1.73263 1.795333,2.71632 2.940688,3.75132 0.35856,0.42885 1.125437,0.0937 0.747614,-0.45688 -0.414401,-0.60692 -0.375306,-1.29323 0.175834,-1.80273 0.404593,-0.37659 0.640628,-1.30058 1.218425,-1.29621 0.401744,0.40512 1.186077,0.11921 0.779124,-0.47621 -0.506701,-0.71151 1.647013,-0.59947 0.961372,-1.35953 -1.522511,-0.55783 -2.861874,-1.57507 -4.026305,-2.64315 -0.174316,-0.0702 -0.366274,-0.0921 -0.552834,-0.0763 z"
       id="path36477" />
  </g>
</svg>
