<?xml version="1.0" encoding="UTF-8" standalone="no"?>
<!-- Created with Inkscape (http://www.inkscape.org/) -->

<svg
   width="28.643"
   height="34.060001"
   viewBox="0 0 7.5784602 9.0117087"
   version="1.1"
   id="svg29262"
   inkscape:version="1.2.2 (732a01da63, 2022-12-09)"
   sodipodi:docname="montenegro.svg"
   xmlns:inkscape="http://www.inkscape.org/namespaces/inkscape"
   xmlns:sodipodi="http://sodipodi.sourceforge.net/DTD/sodipodi-0.dtd"
   xmlns="http://www.w3.org/2000/svg"
   xmlns:svg="http://www.w3.org/2000/svg">
  <sodipodi:namedview
     id="namedview29264"
     pagecolor="#ffffff"
     bordercolor="#000000"
     borderopacity="0.25"
     inkscape:showpageshadow="2"
     inkscape:pageopacity="0.0"
     inkscape:pagecheckerboard="0"
     inkscape:deskcolor="#d1d1d1"
     inkscape:document-units="mm"
     showgrid="false"
     inkscape:zoom="0.72515432"
     inkscape:cx="-40.680996"
     inkscape:cy="33.785912"
     inkscape:window-width="1920"
     inkscape:window-height="1001"
     inkscape:window-x="-9"
     inkscape:window-y="-9"
     inkscape:window-maximized="1"
     inkscape:current-layer="layer1" />
  <defs
     id="defs29259" />
  <g
     inkscape:label="Layer 1"
     inkscape:groupmode="layer"
     id="layer1"
     transform="translate(-77.942211,-139.61482)">
    <path
       style="fill:#01a808;fill-opacity:1;stroke:#000000;stroke-width:0.4;stroke-dasharray:none"
       d="m 80.584334,139.8157 c -0.110215,0.0113 -0.143238,0.14722 -0.251309,0.17039 -0.0787,0.0794 -0.1484,0.17377 -0.205925,0.27006 -0.06567,0.24557 0.108548,0.47447 0.192317,0.69373 0.05115,0.10812 0.102286,0.21625 0.151726,0.32516 -0.337736,-0.007 -0.687232,0.0217 -0.987465,0.19151 -0.702853,0.34849 -1.162929,1.07782 -1.300448,1.83592 -0.01185,0.17859 -0.02964,0.36546 0.0016,0.53992 0.138999,0.30437 0.346594,0.63666 0.216604,0.98131 -0.01707,0.11673 -0.16718,0.0473 -0.213535,0.14371 -0.143049,0.20419 0.07243,0.42725 0.07264,0.64262 0.02474,0.11173 0.113141,0.23084 0.241104,0.20006 0.139388,0.0294 0.214408,0.18168 0.328464,0.25742 0.838621,0.75501 1.629188,1.57237 2.552571,2.22666 0.104507,0.074 0.225671,0.17407 0.361045,0.11745 0.103653,-0.0279 0.222133,0.0326 0.31674,-0.0204 0.01797,-0.14192 -0.104447,-0.27354 -0.144237,-0.41065 -0.165883,-0.37566 -0.333132,-0.7507 -0.499764,-1.12602 0.557628,-0.7838 1.101821,-1.58597 1.669108,-2.35706 0.331732,0.14446 0.653675,0.31268 0.991,0.44349 0.128423,-0.0162 0.198898,-0.15934 0.293963,-0.23309 0.02689,-0.13565 -0.158018,-0.22334 -0.220393,-0.33714 -0.110842,-0.13415 -0.231344,-0.26128 -0.329576,-0.40524 0.44745,-0.25968 0.890548,-0.53301 1.355768,-0.76104 0.08731,0.107 0.219786,-0.0772 0.08911,-0.12957 -0.47203,-0.23706 -1.007219,-0.33502 -1.461527,-0.6095 -0.840666,-0.50324 -1.685454,-1.03331 -2.366251,-1.74354 -0.206785,-0.21076 -0.366067,-0.46946 -0.565666,-0.68093 0.03164,-0.14769 -0.166909,-0.23363 -0.287649,-0.22525 z"
       id="path29248" />
  </g>
</svg>
