<?xml version="1.0" encoding="UTF-8" standalone="no"?>
<!-- Created with Inkscape (http://www.inkscape.org/) -->

<svg
   width="50.223"
   height="53.129002"
   viewBox="0 0 13.288168 14.057048"
   version="1.1"
   id="svg82448"
   inkscape:version="1.2.2 (732a01da63, 2022-12-09)"
   sodipodi:docname="netherlands.svg"
   xmlns:inkscape="http://www.inkscape.org/namespaces/inkscape"
   xmlns:sodipodi="http://sodipodi.sourceforge.net/DTD/sodipodi-0.dtd"
   xmlns="http://www.w3.org/2000/svg"
   xmlns:svg="http://www.w3.org/2000/svg">
  <sodipodi:namedview
     id="namedview82450"
     pagecolor="#ffffff"
     bordercolor="#000000"
     borderopacity="0.25"
     inkscape:showpageshadow="2"
     inkscape:pageopacity="0.0"
     inkscape:pagecheckerboard="0"
     inkscape:deskcolor="#d1d1d1"
     inkscape:document-units="mm"
     showgrid="false"
     inkscape:zoom="0.72515432"
     inkscape:cx="90.325601"
     inkscape:cy="58.608215"
     inkscape:window-width="1920"
     inkscape:window-height="1001"
     inkscape:window-x="-9"
     inkscape:window-y="-9"
     inkscape:window-maximized="1"
     inkscape:current-layer="layer1" />
  <defs
     id="defs82445" />
  <g
     inkscape:label="Layer 1"
     inkscape:groupmode="layer"
     id="layer1"
     transform="translate(-43.342553,-133.07559)">
    <path
       style="fill:#01a808;fill-opacity:1;stroke:#000000;stroke-width:0.4;stroke-dasharray:none"
       d="m 54.909058,133.28335 c -0.474708,0.0549 -0.92264,0.2621 -1.409351,0.25063 -0.7253,0.0912 -1.537229,-0.0243 -2.190782,0.37399 -0.462738,0.30646 -0.75856,0.93566 -0.60126,1.48225 0.230423,0.4297 0.53259,0.84292 0.563657,1.34869 0.02088,0.16697 0.125709,0.33152 -0.0065,0.47756 -0.04081,0.11867 -0.241906,0.10607 -0.321889,0.22146 -0.348099,0.32144 -0.778127,0.54479 -1.242087,0.63554 -0.169124,0.0549 -0.338082,-0.13396 -0.493217,-0.19818 -0.211236,-0.1614 -0.0037,-0.46552 0.131852,-0.61648 0.159377,-0.22181 0.511556,-0.32581 0.547553,-0.61585 -0.161103,-0.42384 -0.341834,-0.84325 -0.547283,-1.24746 -0.205071,-0.15311 -0.423807,0.12501 -0.582285,0.24187 -0.797163,0.86769 -0.746704,2.22776 -1.642745,3.03245 -0.546504,0.55271 -1.252198,1.01195 -1.562634,1.75105 -0.0276,0.17566 0.201271,0.37579 0.0205,0.52508 -0.191016,0.12883 -0.12958,0.4498 -0.387501,0.50987 -0.09537,0.0835 -0.111776,0.28134 -0.288949,0.23228 -0.366821,-0.13811 -0.755874,0.1 -1.093229,0.21216 -0.113379,0.19501 -0.272822,0.43521 -0.259405,0.67214 0.136295,0.18468 0.282077,0.45288 0.524277,0.49251 0.158975,-0.0886 0.25432,0.21533 0.405495,0.28868 0.26869,0.20901 0.604353,-0.0645 0.89023,-0.0926 0.666039,-0.18549 1.327756,-0.38556 1.998541,-0.55406 1.013,0.67717 2.01371,1.37834 2.967903,2.13641 0.143155,0.13922 0.171146,0.36322 0.251174,0.54165 -0.02482,0.35813 -0.319556,0.64567 -0.34382,1.01213 -0.08014,0.35682 0.33252,0.5464 0.630441,0.51917 0.280654,0.0879 0.440809,-0.15197 0.276328,-0.38777 -0.09452,-0.40218 -0.0078,-0.81983 -0.0052,-1.22714 0.407533,-0.27292 0.795107,-0.65532 0.945441,-1.13261 0.07833,-0.48015 0.03285,-0.98808 -0.222467,-1.40996 -0.15327,-0.37398 -0.411051,-0.90331 -0.08859,-1.25771 0.334568,-0.31024 0.82845,-0.10286 1.233025,-0.13344 0.366635,-0.0189 0.784309,0.11641 1.120277,-0.0742 0.2755,-0.26431 0.242853,-0.71583 0.556236,-0.96048 0.291584,-0.35333 0.774081,-0.6359 0.835607,-1.125 -0.03873,-0.53762 -0.786667,-0.54475 -0.944186,-1.01257 -0.08674,-0.34525 0.211169,-0.66507 0.559368,-0.62696 0.246404,0.0263 0.512136,0.0112 0.601618,-0.26576 0.47697,-0.74731 0.655521,-1.65235 0.695071,-2.52651 -0.02257,-0.24124 -0.203446,-0.43906 -0.407464,-0.53914 -0.296624,-0.3773 -0.528301,-0.99148 -1.113723,-0.95367 z"
       id="path82020" />
  </g>
</svg>
