<?xml version="1.0" encoding="UTF-8" standalone="no"?>
<!-- Created with Inkscape (http://www.inkscape.org/) -->

<svg
   width="126.926"
   height="113.55"
   viewBox="0 0 33.582508 30.043439"
   version="1.1"
   id="svg86959"
   inkscape:version="1.2.2 (732a01da63, 2022-12-09)"
   sodipodi:docname="poland.svg"
   xmlns:inkscape="http://www.inkscape.org/namespaces/inkscape"
   xmlns:sodipodi="http://sodipodi.sourceforge.net/DTD/sodipodi-0.dtd"
   xmlns="http://www.w3.org/2000/svg"
   xmlns:svg="http://www.w3.org/2000/svg">
  <sodipodi:namedview
     id="namedview86961"
     pagecolor="#ffffff"
     bordercolor="#000000"
     borderopacity="0.25"
     inkscape:showpageshadow="2"
     inkscape:pageopacity="0.0"
     inkscape:pagecheckerboard="0"
     inkscape:deskcolor="#d1d1d1"
     inkscape:document-units="mm"
     showgrid="false"
     inkscape:zoom="0.72515432"
     inkscape:cx="-108.25282"
     inkscape:cy="91.704618"
     inkscape:window-width="1920"
     inkscape:window-height="1001"
     inkscape:window-x="-9"
     inkscape:window-y="-9"
     inkscape:window-maximized="1"
     inkscape:current-layer="layer1" />
  <defs
     id="defs86956" />
  <g
     inkscape:label="Layer 1"
     inkscape:groupmode="layer"
     id="layer1"
     transform="translate(-57.839623,-124.56623)">
    <path
       style="fill:#01a808;fill-opacity:1;stroke:#000000;stroke-width:0.4;stroke-dasharray:none"
       d="m 70.27456,124.77695 c -1.770878,0.0758 -3.460504,0.82881 -4.916964,1.79832 -0.878758,0.7743 -1.711727,1.67915 -2.877135,2.01477 -1.095102,0.44098 -2.296464,0.61964 -3.351911,1.1463 -0.439909,0.32834 0.442473,0.93 -0.115652,1.16654 -0.713113,1.00292 0.03418,2.38787 -0.636259,3.41135 -0.231683,0.44686 -0.555305,1.011 -0.138208,1.46444 0.365617,0.60107 1.032004,1.07047 1.071292,1.81909 0.172596,1.49442 -0.01035,3.04537 0.520994,4.4873 0.336791,1.06369 0.861317,2.1561 0.53616,3.29551 -0.04051,0.50991 0.589481,0.45611 0.845899,0.1878 0.46146,-0.0476 0.786064,0.46089 1.204288,0.60601 0.880258,0.53043 1.76869,1.07576 2.775649,1.32873 -0.269947,0.36295 -0.458264,0.79946 -0.01288,1.12574 0.400441,0.45515 0.776631,1.29681 1.500227,1.19928 0.489119,-0.15321 0.615405,-0.74978 0.598128,-1.19984 0.79325,0.21877 1.659165,0.32052 2.388928,0.67421 0.04589,0.84784 1.086678,0.97095 1.720625,1.16153 1.236864,0.24054 1.979269,1.33482 2.732479,2.23532 0.211492,0.29916 0.614691,0.63607 0.937384,0.27391 0.31395,-0.20636 0.567053,-0.56734 0.8937,-0.70303 0.690483,0.62304 1.087916,1.63228 1.987909,1.97681 0.52686,-0.35144 0.745366,-1.26289 1.518322,-1.17352 0.659175,-0.0452 1.314567,0.29344 1.952464,0.18851 0.400357,-0.49458 1.008245,-0.93275 1.67336,-0.67904 1.167673,0.31497 2.254811,0.91856 3.352628,1.37617 -0.09211,0.38728 0.383379,0.61599 0.635725,0.31437 0.387819,-0.24589 0.717524,-0.61869 0.382709,-1.0708 -0.27905,-0.71672 -0.5814,-1.55681 -0.144425,-2.28093 0.90801,-1.85981 2.259695,-3.47378 3.820067,-4.81778 0.318135,-0.49568 -0.248771,-1.01739 -0.363521,-1.49615 -0.640858,-1.5068 -1.446509,-2.94515 -1.907252,-4.51556 0.01992,-0.68567 0.317201,-1.56486 -0.343551,-2.07814 -0.395245,-0.40589 -1.279067,-0.64603 -1.058405,-1.36776 0.376849,-1.06303 1.737503,-1.49728 1.857759,-2.69954 0.119327,-1.52813 -0.71973,-2.91717 -1.266759,-4.29038 -0.48464,-0.93314 -0.765789,-2.00495 -1.428128,-2.83147 -0.695471,-0.38602 -1.4907,-0.6372 -2.251795,-0.83087 -2.373955,1.00754 -4.974775,0.61777 -7.483771,0.59416 -0.63545,0.0174 -1.389483,-0.23653 -1.901333,0.27699 -0.905142,0.36633 -2.046095,0.55118 -2.937465,0.06 -0.594387,-0.58645 -0.340937,-1.79131 -1.260168,-2.09532 -0.165481,-0.0489 -0.339678,-0.056 -0.51112,-0.053 z"
       id="path14130" />
  </g>
</svg>
