<?xml version="1.0" encoding="UTF-8" standalone="no"?>
<!-- Created with Inkscape (http://www.inkscape.org/) -->

<svg
   width="17.917936mm"
   height="26.409359mm"
   viewBox="0 0 17.917936 26.409359"
   version="1.1"
   id="svg41640"
   inkscape:version="1.2.2 (732a01da63, 2022-12-09)"
   sodipodi:docname="portugal_1.svg"
   xmlns:inkscape="http://www.inkscape.org/namespaces/inkscape"
   xmlns:sodipodi="http://sodipodi.sourceforge.net/DTD/sodipodi-0.dtd"
   xmlns="http://www.w3.org/2000/svg"
   xmlns:svg="http://www.w3.org/2000/svg">
  <sodipodi:namedview
     id="namedview41642"
     pagecolor="#ffffff"
     bordercolor="#000000"
     borderopacity="0.25"
     inkscape:showpageshadow="2"
     inkscape:pageopacity="0.0"
     inkscape:pagecheckerboard="0"
     inkscape:deskcolor="#d1d1d1"
     inkscape:document-units="mm"
     showgrid="false"
     inkscape:zoom="0.72515432"
     inkscape:cx="73.777399"
     inkscape:cy="37.922962"
     inkscape:window-width="1920"
     inkscape:window-height="1001"
     inkscape:window-x="-9"
     inkscape:window-y="-9"
     inkscape:window-maximized="1"
     inkscape:current-layer="layer1" />
  <defs
     id="defs41637" />
  <g
     inkscape:label="Layer 1"
     inkscape:groupmode="layer"
     id="layer1"
     transform="translate(-47.964245,-138.57849)">
    <path
       style="fill:#01a808;fill-opacity:1;stroke:#000000;stroke-width:0.359312;stroke-dasharray:none;stroke-opacity:1"
       d="m 58.3053,138.76567 c -1.079406,-0.09 -1.930095,0.73787 -1.924535,1.80817 -0.248668,1.49934 -0.133809,3.10376 -1.192279,4.32599 -1.552429,2.83265 -3.28802,5.57816 -5.589908,7.86765 -0.492789,0.45941 -0.89391,1.18741 -0.304755,1.7271 0.1038,0.64817 0.11171,1.45289 1.044083,1.29901 0.455591,0.0526 1.42271,0.1441 0.857894,0.80311 -0.885249,1.41525 -1.505604,2.95058 -1.89947,4.56733 -0.204979,0.72169 -0.98558,1.3164 -1.112829,1.98361 1.905438,-0.0937 3.256359,2.20305 5.188903,1.54178 1.054749,-0.43953 0.08076,-1.77851 0.935593,-2.4319 0.660665,-0.85616 1.671251,-1.31338 2.612354,-1.78633 -0.780091,-1.23735 -0.769429,-3.04352 0.609764,-3.85837 1.310835,-0.41572 0.852591,-1.29649 0.491543,-2.25921 -0.04306,-0.70086 -0.666767,-2.29575 0.107148,-2.38732 0.806247,0.0985 2.538918,0.2172 2.389619,-1.03184 -0.504674,-1.76539 2.059282,-2.5573 1.657069,-4.36001 -0.05402,-1.93479 2.470098,-1.75916 3.478842,-2.77562 -0.337323,-0.53917 -1.063577,-0.98836 -0.745466,-1.75482 -0.33931,-1.17465 -1.989078,-0.75855 -2.905242,-1.00147 -0.917241,-0.25144 -1.77751,-0.62954 -2.742685,-0.68281 -0.992775,-0.26563 0.183621,-1.71628 -0.955643,-1.59405 z"
       id="path38569" />
  </g>
</svg>
