<?xml version="1.0" encoding="UTF-8" standalone="no"?>
<!-- Created with Inkscape (http://www.inkscape.org/) -->

<svg
   width="68.085999"
   height="100.969"
   viewBox="0 0 18.01442 26.714715"
   version="1.1"
   id="svg41640"
   inkscape:version="1.2.2 (732a01da63, 2022-12-09)"
   sodipodi:docname="portugal.svg"
   xmlns:inkscape="http://www.inkscape.org/namespaces/inkscape"
   xmlns:sodipodi="http://sodipodi.sourceforge.net/DTD/sodipodi-0.dtd"
   xmlns="http://www.w3.org/2000/svg"
   xmlns:svg="http://www.w3.org/2000/svg">
  <sodipodi:namedview
     id="namedview41642"
     pagecolor="#ffffff"
     bordercolor="#000000"
     borderopacity="0.25"
     inkscape:showpageshadow="2"
     inkscape:pageopacity="0.0"
     inkscape:pagecheckerboard="0"
     inkscape:deskcolor="#d1d1d1"
     inkscape:document-units="mm"
     showgrid="false"
     inkscape:zoom="0.72515432"
     inkscape:cx="-149.62332"
     inkscape:cy="-51.713131"
     inkscape:window-width="1920"
     inkscape:window-height="1001"
     inkscape:window-x="-9"
     inkscape:window-y="-9"
     inkscape:window-maximized="1"
     inkscape:current-layer="layer1" />
  <defs
     id="defs41637" />
  <g
     inkscape:label="Layer 1"
     inkscape:groupmode="layer"
     id="layer1"
     transform="translate(-69.459336,-162.31683)">
    <path
       style="fill:#01a808;stroke:#000000;stroke-width:0.6;stroke-dasharray:none"
       d="m 79.380534,162.64205 c -1.79487,0.0738 -1.542108,2.45482 -1.851264,3.66961 -0.871695,3.17098 -2.920324,5.89147 -4.856025,8.49931 -0.651301,1.03146 -2.203177,1.85907 -2.192047,3.18857 0.549229,0.54145 0.152884,1.75491 1.229451,1.74695 0.388235,0.15911 1.640897,0.001 0.989434,0.69069 -1.178098,1.61158 -1.550402,3.58191 -2.355603,5.35732 -1.056938,0.99843 -0.594199,1.46984 0.626372,1.64922 1.297648,0.37339 2.82585,1.94212 4.193701,0.98083 0.508897,-0.81335 0.206221,-1.97389 1.091719,-2.63258 0.382843,-0.90182 2.011595,-0.73151 2.044695,-1.76063 -0.791545,-1.39963 -0.180796,-3.16511 1.284644,-3.81697 0.937388,-0.72801 -0.283378,-1.93707 -0.184316,-2.88222 -0.583032,-1.47496 0.457045,-1.49277 1.646187,-1.41326 1.208499,0.10274 0.934513,-1.21552 1.052729,-1.96975 0.604856,-1.35122 1.971248,-2.40208 1.753537,-4.05091 0.418796,-1.47344 2.589946,-1.13025 3.265537,-2.28218 -0.40673,-0.59986 -0.859499,-1.20196 -0.808663,-2.01076 -0.814125,-1.24896 -2.779766,-0.15965 -3.849373,-1.09729 -0.625983,-0.56302 -2.332439,0.14785 -2.072546,-1.1373 0.214534,-0.66079 -0.520719,-0.81659 -1.008169,-0.72865 z"
       id="path38547" />
  </g>
</svg>
