<?xml version="1.0" encoding="UTF-8" standalone="no"?>
<!-- Created with Inkscape (http://www.inkscape.org/) -->

<svg
   width="87.760727"
   height="136.4257"
   viewBox="0 0 23.220026 36.095967"
   version="1.1"
   id="svg29240"
   inkscape:version="1.2.2 (732a01da63, 2022-12-09)"
   sodipodi:docname="portugal.svg"
   xmlns:inkscape="http://www.inkscape.org/namespaces/inkscape"
   xmlns:sodipodi="http://sodipodi.sourceforge.net/DTD/sodipodi-0.dtd"
   xmlns="http://www.w3.org/2000/svg"
   xmlns:svg="http://www.w3.org/2000/svg">
  <sodipodi:namedview
     id="namedview29242"
     pagecolor="#ffffff"
     bordercolor="#000000"
     borderopacity="0.25"
     inkscape:showpageshadow="2"
     inkscape:pageopacity="0.0"
     inkscape:pagecheckerboard="0"
     inkscape:deskcolor="#d1d1d1"
     inkscape:document-units="mm"
     showgrid="false"
     inkscape:zoom="1.0824912"
     inkscape:cx="141.34064"
     inkscape:cy="145.49772"
     inkscape:window-width="1920"
     inkscape:window-height="1001"
     inkscape:window-x="-9"
     inkscape:window-y="-9"
     inkscape:window-maximized="1"
     inkscape:current-layer="layer1" />
  <defs
     id="defs29237" />
  <g
     inkscape:label="Layer 1"
     inkscape:groupmode="layer"
     id="layer1"
     transform="translate(-24.167522,-72.806945)">
    <path
       style="fill:#1fae1f;fill-opacity:1;stroke:#007820;stroke-width:1.05833;stroke-linecap:round;stroke-dasharray:none;stroke-opacity:1"
       d="m 30.031407,107.76103 c -0.101443,-0.0598 -0.350785,-0.2441 -0.554093,-0.40966 -1.176405,-0.95802 -2.592635,-1.58146 -4.226141,-1.86038 -0.329049,-0.0562 -0.571998,-0.11819 -0.566329,-0.14453 0.0055,-0.0254 0.11669,-0.22222 0.247178,-0.43745 0.681938,-1.12481 1.266202,-2.23303 1.537662,-2.91663 0.07716,-0.19429 0.229379,-0.66305 0.338274,-1.04169 0.236352,-0.82182 0.392037,-1.166608 0.804068,-1.780729 0.362528,-0.540341 0.530736,-0.86183 0.698304,-1.334638 l 0.121752,-0.34354 0.359954,-8.8e-5 c 0.60481,-1.32e-4 0.82518,-0.192812 0.825323,-0.721677 1.33e-4,-0.480714 -0.190479,-0.7185 -0.700118,-0.873408 -0.16345,-0.04966 -0.416865,-0.143738 -0.563146,-0.209037 -0.259579,-0.115874 -0.287784,-0.11879 -1.174678,-0.12138 -0.552821,-0.0016 -0.939549,-0.02096 -0.987447,-0.04939 -0.07233,-0.04294 -0.06442,-0.06888 0.09718,-0.318915 0.208139,-0.32203 0.274667,-0.360574 1.063677,-0.61626 0.327593,-0.106161 0.634791,-0.22787 0.682663,-0.270465 0.217229,-0.193281 0.285368,-0.742593 0.118439,-0.954807 -0.129206,-0.164259 -0.281481,-0.200144 -1.260865,-0.29714 -0.483546,-0.04789 -0.886509,-0.0944 -0.895474,-0.103368 -0.0355,-0.0355 0.325647,-0.664117 0.594189,-1.034272 0.451262,-0.622011 0.561361,-0.803203 0.914197,-1.504511 0.288406,-0.573246 0.381386,-0.713478 0.704394,-1.062386 0.773101,-0.835089 1.208702,-1.394222 2.846692,-3.653997 1.250465,-1.725141 1.969495,-2.665584 2.600024,-3.400655 0.527766,-0.61527 0.750074,-0.92629 0.82957,-1.160605 0.109378,-0.322395 0.03464,-0.621448 -0.197594,-0.790617 l -0.118214,-0.08611 0.179506,-0.461502 c 0.2496,-0.641702 0.481019,-1.398902 0.893894,-2.92481 0.379408,-1.402217 0.620478,-2.204561 0.751093,-2.499839 0.167028,-0.377595 0.551908,-0.695595 1.04879,-0.866547 0.342899,-0.117975 1.00431,-0.196866 1.319908,-0.157435 l 0.251864,0.03147 v 0.476367 c 0,0.58339 0.07764,0.874215 0.298688,1.118894 0.276885,0.30648 0.532488,0.400587 1.371914,0.505116 0.772615,0.09621 0.883813,0.142798 1.443591,0.604813 0.54915,0.453247 0.847218,0.556501 1.771516,0.613678 0.361993,0.02238 0.835588,0.08275 1.063859,0.135593 0.546651,0.12654 1.262422,0.422667 1.35197,0.559335 0.05501,0.08395 0.07369,0.296944 0.09165,1.045133 l 0.02256,0.939689 0.296739,0.355306 c 0.613369,0.734433 0.655658,0.878552 0.34598,1.179087 -0.244832,0.237601 -0.924503,0.565761 -1.675314,0.808878 -1.35857,0.439915 -1.821727,0.684673 -1.962415,1.037059 -0.03672,0.09198 -0.170911,0.626028 -0.298194,1.186772 -0.241488,1.063866 -0.44068,1.696292 -0.646032,2.051119 -0.172725,0.298453 -0.430209,0.533006 -0.617087,0.562134 -0.0855,0.01333 -0.2295,0.0359 -0.320004,0.05017 -0.215649,0.03399 -0.427986,0.259099 -0.494841,0.524603 -0.02805,0.111392 -0.08171,0.494922 -0.119248,0.852286 -0.08549,0.813914 -0.244259,1.33712 -0.544668,1.794926 -0.260234,0.396578 -0.600107,0.721156 -0.831799,0.794364 -0.0973,0.03074 -0.526522,0.06313 -0.987661,0.07453 l -0.815579,0.02016 0.02689,1.159256 c 0.02672,1.151949 0.07777,1.926945 0.167776,2.547054 0.04474,0.308266 0.223902,1.101468 0.283591,1.255554 0.02012,0.05193 -0.145744,0.254087 -0.58767,0.716256 -0.942637,0.985816 -1.42932,1.774002 -1.681455,2.723123 -0.09605,0.361564 -0.115883,0.536279 -0.119654,1.053993 -0.0065,0.89626 0.125504,1.21469 0.683267,1.64783 0.145889,0.11329 0.265253,0.22053 0.265253,0.23832 0,0.0893 -0.445586,0.23165 -0.827918,0.26441 -0.491782,0.0421 -0.772285,0.13074 -1.018775,0.32181 -0.215695,0.1672 -1.243969,1.42626 -1.559212,1.90917 -0.292196,0.4476 -0.506846,0.9761 -0.717349,1.76622 -0.09632,0.36152 -0.216118,0.73768 -0.266225,0.83589 -0.170471,0.33415 -0.902238,0.69709 -1.48391,0.73599 -0.271386,0.0181 -0.333418,0.007 -0.494733,-0.0879 z"
       id="path68052" />
  </g>
</svg>
