<?xml version="1.0" encoding="UTF-8" standalone="no"?>
<!-- Created with Inkscape (http://www.inkscape.org/) -->

<svg
   width="17.593184mm"
   height="26.867737mm"
   viewBox="0 0 17.593184 26.867737"
   version="1.1"
   id="svg33171"
   inkscape:version="1.2.2 (732a01da63, 2022-12-09)"
   sodipodi:docname="portugal_new.svg"
   xmlns:inkscape="http://www.inkscape.org/namespaces/inkscape"
   xmlns:sodipodi="http://sodipodi.sourceforge.net/DTD/sodipodi-0.dtd"
   xmlns:xlink="http://www.w3.org/1999/xlink"
   xmlns="http://www.w3.org/2000/svg"
   xmlns:svg="http://www.w3.org/2000/svg">
  <sodipodi:namedview
     id="namedview33173"
     pagecolor="#ffffff"
     bordercolor="#000000"
     borderopacity="0.25"
     inkscape:showpageshadow="2"
     inkscape:pageopacity="0.0"
     inkscape:pagecheckerboard="0"
     inkscape:deskcolor="#d1d1d1"
     inkscape:document-units="mm"
     showgrid="false"
     inkscape:zoom="0.72515432"
     inkscape:cx="-88.257076"
     inkscape:cy="181.34071"
     inkscape:window-width="1920"
     inkscape:window-height="1001"
     inkscape:window-x="-9"
     inkscape:window-y="-9"
     inkscape:window-maximized="1"
     inkscape:current-layer="layer1" />
  <defs
     id="defs33168">
    <linearGradient
       inkscape:collect="always"
       xlink:href="#linearGradient10341"
       id="linearGradient33154"
       gradientUnits="userSpaceOnUse"
       x1="-1.3948056e-07"
       y1="548.1806"
       x2="1250.4951"
       y2="548.1806"
       gradientTransform="matrix(0.17730983,0,0,0.17730983,84.494774,100.90772)" />
    <linearGradient
       id="linearGradient10341"
       inkscape:swatch="solid">
      <stop
         style="stop-color:#468597;stop-opacity:1;"
         offset="0"
         id="stop10339" />
    </linearGradient>
  </defs>
  <g
     inkscape:label="Layer 1"
     inkscape:groupmode="layer"
     id="layer1"
     transform="translate(-84.608815,-100.76881)">
    <path
       style="fill:url(#linearGradient33154);fill-opacity:1;stroke:#4c6270;stroke-width:0.670147;stroke-linecap:round;stroke-opacity:1"
       d="m 88.42575,126.7761 c -0.841478,-0.61882 -2.296591,-1.22231 -2.94721,-1.22231 -0.664063,0 -0.699703,-0.28801 -0.148586,-1.20069 0.54549,-0.90337 0.975468,-1.87239 1.290166,-2.90759 0.108802,-0.3579 0.309343,-0.74328 0.445646,-0.8564 0.136304,-0.11312 0.337884,-0.47856 0.447956,-0.81208 0.15662,-0.47456 0.296195,-0.6064 0.641986,-0.6064 0.354685,0 0.430678,-0.0773 0.385197,-0.39168 -0.06534,-0.45169 -0.54775,-0.62853 -1.785431,-0.6545 -0.463222,-0.01 -0.842221,-0.0975 -0.842221,-0.19499 0,-0.30993 0.695564,-0.88655 1.069423,-0.88655 0.343367,0 0.673752,-0.44364 0.476947,-0.64045 -0.05127,-0.0513 -0.466261,-0.14757 -0.922191,-0.21399 l -0.828965,-0.12076 0.458678,-0.67524 c 0.252273,-0.37138 0.611676,-0.97514 0.798673,-1.34169 0.186997,-0.36654 0.467893,-0.77259 0.624212,-0.90232 0.156319,-0.12974 0.85278,-1.00208 1.54769,-1.93855 0.694909,-0.93647 1.704699,-2.24827 2.243976,-2.91513 0.804683,-0.99504 0.946209,-1.26737 0.789248,-1.51871 -0.112569,-0.18025 -0.129151,-0.41722 -0.04031,-0.57598 0.08302,-0.14836 0.317624,-0.90115 0.521335,-1.67287 0.763362,-2.89186 0.900047,-3.08521 2.376941,-3.36227 0.633335,-0.11882 0.636378,-0.11638 0.636378,0.51087 0,0.72102 0.490322,1.18231 1.25671,1.18231 0.257711,0 0.68475,0.17005 0.948975,0.37788 0.27753,0.21831 0.8305,0.4106 1.309408,0.45534 0.455949,0.0426 1.121769,0.20092 1.479579,0.35182 0.61399,0.25893 0.64893,0.31709 0.62119,1.03384 -0.0196,0.50678 0.0737,0.87334 0.2803,1.10169 0.65908,0.72827 0.31928,1.09696 -1.584255,1.71895 l -0.918733,0.3002 -0.262078,1.14896 c -0.288593,1.2652 -0.696582,2.02219 -1.089882,2.02219 -0.335181,0 -0.622735,0.55563 -0.622735,1.20329 0,0.28455 -0.182131,0.78848 -0.404735,1.11984 -0.340833,0.50736 -0.526139,0.61125 -1.173666,0.65804 l -0.76893,0.0555 0.08517,1.54023 c 0.04684,0.84713 0.140464,1.66887 0.20805,1.82608 0.08423,0.19592 -0.102918,0.52086 -0.594874,1.03289 -1.203513,1.25261 -1.510647,3.00476 -0.651667,3.71764 0.375041,0.31126 0.202121,0.54889 -0.399427,0.54889 -0.268166,0 -0.618492,0.0997 -0.778502,0.22163 -0.633548,0.48266 -1.393296,1.65659 -1.655221,2.55758 -0.209294,0.71995 -0.398867,1.01251 -0.785723,1.21255 -0.71112,0.36774 -0.887696,0.33858 -1.738494,-0.28711 z m 0.907829,-7.60572 c 0.05104,-0.19517 0.02045,-0.31015 -0.06798,-0.25549 -0.08843,0.0546 -0.160774,0.21434 -0.160774,0.35486 0,0.36699 0.120481,0.31465 0.228749,-0.0994 z"
       id="path33152" />
  </g>
</svg>
