<?xml version="1.0" encoding="UTF-8" standalone="no"?>
<!-- Created with Inkscape (http://www.inkscape.org/) -->

<svg
   width="69.931999"
   height="101.967"
   viewBox="0 0 18.502842 26.978767"
   version="1.1"
   id="svg41640"
   inkscape:version="1.2.2 (732a01da63, 2022-12-09)"
   sodipodi:docname="portugal.svg"
   xmlns:inkscape="http://www.inkscape.org/namespaces/inkscape"
   xmlns:sodipodi="http://sodipodi.sourceforge.net/DTD/sodipodi-0.dtd"
   xmlns="http://www.w3.org/2000/svg"
   xmlns:svg="http://www.w3.org/2000/svg">
  <sodipodi:namedview
     id="namedview41642"
     pagecolor="#ffffff"
     bordercolor="#000000"
     borderopacity="0.25"
     inkscape:showpageshadow="2"
     inkscape:pageopacity="0.0"
     inkscape:pagecheckerboard="0"
     inkscape:deskcolor="#d1d1d1"
     inkscape:document-units="mm"
     showgrid="false"
     inkscape:zoom="0.72515432"
     inkscape:cx="-690.19792"
     inkscape:cy="-149.62332"
     inkscape:window-width="1920"
     inkscape:window-height="1001"
     inkscape:window-x="-9"
     inkscape:window-y="-9"
     inkscape:window-maximized="1"
     inkscape:current-layer="layer1" />
  <defs
     id="defs41637" />
  <g
     inkscape:label="Layer 1"
     inkscape:groupmode="layer"
     id="layer1"
     transform="translate(-86.938895,-187.96789)">
    <path
       style="fill:#f0ef19;fill-opacity:1;stroke:#000000;stroke-width:0.4;stroke-dasharray:none"
       d="m 97.262136,188.19466 c -1.24526,-0.15517 -1.87043,1.11603 -1.908781,2.17624 -0.198606,1.42192 -0.153319,2.91398 -1.152109,4.06466 -1.516023,2.74169 -3.168712,5.43364 -5.41852,7.64296 -0.489575,0.51387 -1.201949,1.40114 -0.507361,2.04699 0.219345,0.53746 0.0171,1.48809 0.878662,1.48842 0.429098,0.12288 1.604914,-0.006 0.966743,0.70501 -0.852491,1.2986 -1.390651,2.74493 -1.751237,4.24507 -0.235389,0.83044 -1.047825,1.40526 -1.216306,2.23425 0.424763,0.54459 1.34625,0.15942 1.871184,0.66276 1.164579,0.5881 2.669264,1.92016 3.974746,0.94204 0.645266,-0.75548 0.14975,-1.99501 1.031909,-2.6589 0.653815,-0.74735 1.704171,-0.97321 2.417215,-1.59692 -0.46857,-1.03966 -0.935497,-2.50363 0.127109,-3.3725 0.47221,-0.62311 1.998703,-0.89156 1.2954,-1.88323 -0.413468,-0.96891 -0.552218,-2.02124 -0.561391,-3.04394 0.916643,0.0988 2.594112,0.2316 2.755931,-1.02367 -0.210455,-0.82559 0.0267,-1.61905 0.67744,-2.18734 0.83676,-0.73554 1.01085,-1.80761 1.01687,-2.85548 0.42376,-1.33225 2.19061,-1.20379 3.14505,-2.00091 1.1257,-0.63147 -0.96058,-1.06019 -0.4661,-1.94984 0.0542,-1.29939 -1.68785,-1.23298 -2.5744,-1.33876 -1.10416,-0.0563 -2.016028,-0.78618 -3.141556,-0.72076 -0.968327,-0.22122 0.394622,-1.81913 -0.875082,-1.57759 -0.195135,8e-4 -0.390295,-0.002 -0.585416,0.001 z"
       id="path121964" />
  </g>
</svg>
