<?xml version="1.0" encoding="UTF-8" standalone="no"?>
<!-- Created with Inkscape (http://www.inkscape.org/) -->

<svg
   width="134.52499"
   height="98.339996"
   viewBox="0 0 35.593072 26.019123"
   version="1.1"
   id="svg114888"
   inkscape:version="1.2.2 (732a01da63, 2022-12-09)"
   sodipodi:docname="romania.svg"
   xmlns:inkscape="http://www.inkscape.org/namespaces/inkscape"
   xmlns:sodipodi="http://sodipodi.sourceforge.net/DTD/sodipodi-0.dtd"
   xmlns="http://www.w3.org/2000/svg"
   xmlns:svg="http://www.w3.org/2000/svg">
  <sodipodi:namedview
     id="namedview114890"
     pagecolor="#ffffff"
     bordercolor="#000000"
     borderopacity="0.25"
     inkscape:showpageshadow="2"
     inkscape:pageopacity="0.0"
     inkscape:pagecheckerboard="0"
     inkscape:deskcolor="#d1d1d1"
     inkscape:document-units="mm"
     showgrid="false"
     inkscape:zoom="0.72515432"
     inkscape:cx="-196.5099"
     inkscape:cy="-203.40498"
     inkscape:window-width="1920"
     inkscape:window-height="1001"
     inkscape:window-x="-9"
     inkscape:window-y="-9"
     inkscape:window-maximized="1"
     inkscape:current-layer="layer1" />
  <defs
     id="defs114885" />
  <g
     inkscape:label="Layer 1"
     inkscape:groupmode="layer"
     id="layer1"
     transform="translate(-81.975812,-202.5556)">
    <path
       style="fill:#01a808;fill-opacity:1;stroke:#000000;stroke-width:0.4;stroke-dasharray:none"
       d="m 103.87009,202.75588 c -0.32603,-0.01 -0.1217,0.40368 -0.40765,0.41964 -0.84793,0.22564 -1.25165,1.07167 -1.88461,1.57722 -1.0298,0.46627 -2.303814,0.56923 -3.062599,1.52049 -0.353748,0.69663 -0.886,0.15618 -1.374201,-0.0786 -0.441293,-0.34727 -0.956103,-0.40094 -1.483601,-0.23887 -1.555191,0.17738 -3.169224,0.0455 -4.733486,0.14404 -0.745191,0.76641 -1.50028,1.5716 -2.391203,2.19582 -0.459428,0.36743 -1.094891,0.64111 -1.10167,1.31989 -0.503684,2.11997 -1.665536,4.01681 -2.330296,6.10239 -1.009666,0.28951 -2.004912,0.70284 -2.898625,1.23743 -0.191841,0.47945 0.617517,0.73388 0.849488,1.09797 0.858498,0.65136 1.263271,1.63616 1.777666,2.53667 0.612011,0.38673 1.254612,0.73467 1.878235,1.10669 0.03478,0.6178 -0.133726,1.27217 0.02649,1.86743 0.955448,0.41835 1.901532,1.17792 2.99923,1.07756 0.555143,-0.0491 0.909386,-0.86739 1.50454,-0.53028 0.193246,0.0879 0.554741,0.22793 0.244729,0.46296 -0.360461,0.35119 -0.339294,0.95067 0.114935,1.21309 0.412157,0.42679 1.164423,0.61043 1.337148,1.22006 -0.105772,0.41622 -0.286707,1.18056 0.363781,1.23171 0.846974,-0.12509 1.679927,-0.63778 2.557214,-0.32422 0.991026,0.24725 2.010339,0.66492 3.038071,0.33747 0.994732,-0.21211 1.993734,-0.58645 3.023594,-0.35627 0.82797,0.14192 1.73079,-0.0823 2.23138,-0.80078 0.90905,-1.25744 2.27092,-2.27706 3.82795,-2.4652 1.72682,-0.28687 3.37815,0.31302 5.02903,0.69301 0.50869,0.0663 1.04661,0.1887 1.54186,0.17415 0.33532,-0.39432 0.15425,-1.02245 0.24451,-1.50488 0.0622,-1.74872 0.11177,-3.49791 0.18221,-5.24634 0.25591,0.3402 0.46604,1.20961 1.02481,0.74871 0.42177,-0.30766 1.13329,-0.36563 1.36143,-0.85004 -0.11991,-0.64893 0.0359,-1.42421 -0.33872,-1.99633 -0.44782,-0.41973 -1.14999,-0.63684 -1.67265,-0.2161 -0.86725,0.50108 -1.82976,1.47872 -2.90863,0.96927 -0.75735,-0.63042 -1.46286,-1.42904 -1.60662,-2.44295 -0.48924,-1.64292 0.32563,-3.51067 -0.67687,-5.02693 -1.07767,-1.66235 -2.81329,-2.77055 -3.92659,-4.39779 -0.46934,-1.09049 -1.29131,-2.04628 -2.24445,-2.75718 -0.0365,-0.0148 -0.0763,-0.0225 -0.11583,-0.021 z"
       id="path5359" />
  </g>
</svg>
