<?xml version="1.0" encoding="UTF-8" standalone="no"?>
<!-- Created with Inkscape (http://www.inkscape.org/) -->

<svg
   width="34.340679"
   height="20.271027"
   viewBox="0 0 9.0859703 5.3633752"
   version="1.1"
   id="svg66797"
   inkscape:version="1.2.2 (732a01da63, 2022-12-09)"
   sodipodi:docname="russia.svg"
   xmlns:inkscape="http://www.inkscape.org/namespaces/inkscape"
   xmlns:sodipodi="http://sodipodi.sourceforge.net/DTD/sodipodi-0.dtd"
   xmlns="http://www.w3.org/2000/svg"
   xmlns:svg="http://www.w3.org/2000/svg">
  <sodipodi:namedview
     id="namedview66799"
     pagecolor="#ffffff"
     bordercolor="#000000"
     borderopacity="0.25"
     inkscape:showpageshadow="2"
     inkscape:pageopacity="0.0"
     inkscape:pagecheckerboard="0"
     inkscape:deskcolor="#d1d1d1"
     inkscape:document-units="mm"
     showgrid="false"
     inkscape:zoom="0.72515432"
     inkscape:cx="-182.71973"
     inkscape:cy="46.197063"
     inkscape:window-width="1920"
     inkscape:window-height="1001"
     inkscape:window-x="-9"
     inkscape:window-y="-9"
     inkscape:window-maximized="1"
     inkscape:current-layer="layer1" />
  <defs
     id="defs66794" />
  <g
     inkscape:label="Layer 1"
     inkscape:groupmode="layer"
     id="layer1"
     transform="translate(-77.774424,-136.86579)">
    <path
       style="fill:#01a808;fill-opacity:1;stroke:#000000;stroke-width:0.4;stroke-dasharray:none;stroke-opacity:1"
       d="m 81.91755,137.20007 c -0.235302,0.50947 0.105614,1.37408 -0.407622,1.72366 -1.100582,0.25188 -2.367288,-0.21341 -3.374912,0.39092 -0.512672,0.49859 0.337797,0.98013 0.627891,1.30743 -0.238612,0.31312 -0.957096,1.03814 -0.244573,1.23679 2.214475,0.14429 4.479796,0.32709 6.677666,-0.0719 0.619596,-0.19467 1.610476,-0.3919 1.405522,-1.25557 -0.02416,-0.85824 0.389787,-2.21069 -0.688258,-2.60241 -0.998093,-0.13228 -2.118715,0.24912 -2.999444,-0.44459 -0.309917,-0.15323 -0.669271,-0.65643 -0.99627,-0.28433 z"
       id="path22628" />
  </g>
</svg>
