<?xml version="1.0" encoding="UTF-8" standalone="no"?>
<!-- Created with Inkscape (http://www.inkscape.org/) -->

<svg
   width="43.960999"
   height="30.299"
   viewBox="0 0 11.631347 8.0166104"
   version="1.1"
   id="svg111037"
   inkscape:version="1.2.2 (732a01da63, 2022-12-09)"
   sodipodi:docname="slovenia.svg"
   xmlns:inkscape="http://www.inkscape.org/namespaces/inkscape"
   xmlns:sodipodi="http://sodipodi.sourceforge.net/DTD/sodipodi-0.dtd"
   xmlns="http://www.w3.org/2000/svg"
   xmlns:svg="http://www.w3.org/2000/svg">
  <sodipodi:namedview
     id="namedview111039"
     pagecolor="#ffffff"
     bordercolor="#000000"
     borderopacity="0.25"
     inkscape:showpageshadow="2"
     inkscape:pageopacity="0.0"
     inkscape:pagecheckerboard="0"
     inkscape:deskcolor="#d1d1d1"
     inkscape:document-units="mm"
     showgrid="false"
     inkscape:zoom="0.72515432"
     inkscape:cx="-31.027878"
     inkscape:cy="-131.69611"
     inkscape:window-width="1920"
     inkscape:window-height="1001"
     inkscape:window-x="-9"
     inkscape:window-y="-9"
     inkscape:window-maximized="1"
     inkscape:current-layer="layer1" />
  <defs
     id="defs111034" />
  <g
     inkscape:label="Layer 1"
     inkscape:groupmode="layer"
     id="layer1"
     transform="translate(-75.549597,-183.53565)">
    <path
       style="fill:#01a808;fill-opacity:1;stroke:#000000;stroke-width:0.4;stroke-dasharray:none"
       d="m 85.758475,183.74154 c -0.538999,0.25684 -0.638109,1.18784 -1.363467,0.96728 -1.239356,0.0678 -2.573835,0.14098 -3.591989,0.94204 -0.468852,0.30147 -0.914103,0.71656 -1.501142,0.44903 -0.890262,-0.0819 -1.793457,-0.39175 -2.675186,-0.32407 -0.259022,0.34019 -1.063599,0.55109 -0.841783,1.06306 0.158324,0.3137 0.922113,0.57152 0.536006,0.92825 -0.452638,0.79128 0.444781,1.45599 0.629814,2.17696 0.08036,0.27325 0.204947,0.66787 -0.190661,0.60887 -0.419452,0.0679 -0.435607,0.73988 0.04028,0.70107 1.127964,0.005 2.303238,-0.0236 3.313242,-0.59365 0.763696,0.1941 1.497828,0.61328 2.276859,0.68316 0.512651,-0.63679 0.567648,-1.63096 1.328555,-2.09998 0.547434,-0.34179 0.122386,-1.04953 0.09471,-1.5373 1.009954,-0.71166 2.103607,-1.29055 3.124192,-1.98988 0.203182,-0.46424 -0.3415,-0.87615 -0.490596,-1.29128 -0.196913,-0.22466 -0.30377,-0.75658 -0.688829,-0.68356 z"
       id="path111023" />
  </g>
</svg>
