<?xml version="1.0" encoding="UTF-8" standalone="no"?>
<!-- Created with Inkscape (http://www.inkscape.org/) -->

<svg
   width="74.337349"
   height="38.089001"
   viewBox="0 0 19.668423 10.077714"
   version="1.1"
   id="svg99799"
   inkscape:version="1.2.2 (732a01da63, 2022-12-09)"
   sodipodi:docname="slovakia.svg"
   xmlns:inkscape="http://www.inkscape.org/namespaces/inkscape"
   xmlns:sodipodi="http://sodipodi.sourceforge.net/DTD/sodipodi-0.dtd"
   xmlns="http://www.w3.org/2000/svg"
   xmlns:svg="http://www.w3.org/2000/svg">
  <sodipodi:namedview
     id="namedview99801"
     pagecolor="#ffffff"
     bordercolor="#000000"
     borderopacity="0.25"
     inkscape:showpageshadow="2"
     inkscape:pageopacity="0.0"
     inkscape:pagecheckerboard="0"
     inkscape:deskcolor="#d1d1d1"
     inkscape:document-units="mm"
     showgrid="false"
     inkscape:zoom="0.72515432"
     inkscape:cx="-68.261332"
     inkscape:cy="-83.430517"
     inkscape:window-width="1920"
     inkscape:window-height="1001"
     inkscape:window-x="-9"
     inkscape:window-y="-9"
     inkscape:window-maximized="1"
     inkscape:current-layer="layer1" />
  <defs
     id="defs99796" />
  <g
     inkscape:label="Layer 1"
     inkscape:groupmode="layer"
     id="layer1"
     transform="translate(-85.395462,-170.82591)">
    <path
       style="fill:#01a808;fill-opacity:1;stroke:#000000;stroke-width:0.4;stroke-dasharray:none"
       d="m 100.87035,171.02595 c -0.75944,-0.008 -1.057104,1.18688 -1.852568,0.75155 -0.894228,-0.36737 -2.044571,-0.28449 -2.51926,0.676 -0.739126,0.65458 -1.384998,-0.63886 -1.85543,-1.04121 -0.438261,-0.68743 -1.01246,-0.0343 -1.481624,0.17115 -0.772891,-0.0367 -1.707322,-0.38138 -2.291895,0.3627 -1.271495,1.2144 -2.017959,3.44628 -4.085027,3.44304 -1.306793,0.068 -1.416571,1.72138 -0.898713,2.62202 0.226502,0.73709 0.685885,1.35199 1.412878,1.61375 0.772983,0.78729 1.804075,1.2199 2.918129,1.03763 0.935411,0.0747 2.333898,-0.24413 2.174098,-1.45906 0.436776,-0.731 1.629391,-0.0636 2.160135,-0.78772 0.531294,-0.94098 1.74734,0.0594 2.361358,-0.78055 0.899885,-0.76966 1.449176,-2.21044 2.848669,-1.87727 0.99553,-0.038 2.1719,-0.3393 2.90309,0.53349 1.01069,0.5305 1.41616,-0.98128 1.65457,-1.65742 0.0941,-0.76419 1.20446,-2.04491 -0.0479,-2.29647 -1.11574,-0.44881 -2.19988,-1.13095 -3.40054,-1.31163 z"
       id="path99785" />
  </g>
</svg>
