<?xml version="1.0" encoding="UTF-8" standalone="no"?>
<!-- Created with Inkscape (http://www.inkscape.org/) -->

<svg
   width="75.717445"
   height="39.133499"
   viewBox="0 0 20.033574 10.354071"
   version="1.1"
   id="svg99799"
   inkscape:version="1.2.2 (732a01da63, 2022-12-09)"
   sodipodi:docname="slovakia.svg"
   xmlns:inkscape="http://www.inkscape.org/namespaces/inkscape"
   xmlns:sodipodi="http://sodipodi.sourceforge.net/DTD/sodipodi-0.dtd"
   xmlns="http://www.w3.org/2000/svg"
   xmlns:svg="http://www.w3.org/2000/svg">
  <sodipodi:namedview
     id="namedview99801"
     pagecolor="#ffffff"
     bordercolor="#000000"
     borderopacity="0.25"
     inkscape:showpageshadow="2"
     inkscape:pageopacity="0.0"
     inkscape:pagecheckerboard="0"
     inkscape:deskcolor="#d1d1d1"
     inkscape:document-units="mm"
     showgrid="false"
     inkscape:zoom="0.72515432"
     inkscape:cx="-200.64695"
     inkscape:cy="-79.293467"
     inkscape:window-width="1920"
     inkscape:window-height="1001"
     inkscape:window-x="-9"
     inkscape:window-y="-9"
     inkscape:window-maximized="1"
     inkscape:current-layer="layer1" />
  <defs
     id="defs99796" />
  <g
     inkscape:label="Layer 1"
     inkscape:groupmode="layer"
     id="layer1"
     transform="translate(-82.673933,-169.28943)">
    <path
       style="fill:#01a808;fill-opacity:1;stroke:#000000;stroke-width:0.4;stroke-dasharray:none;stroke-opacity:1"
       d="m 91.395083,169.56412 c -0.438169,0.3902 -1.188347,0.99764 -1.692773,0.39344 -1.023151,-0.14574 -1.833245,0.82216 -2.369759,1.58023 -0.727443,1.01598 -1.477238,2.38111 -2.903,2.41092 -0.716765,-0.005 -1.49315,0.41298 -1.515042,1.2092 -0.208274,1.02378 0.443384,1.99837 1.004626,2.79462 0.645395,0.31017 1.239028,0.72137 1.786197,1.19958 0.837184,0.49212 1.906561,0.20868 2.825255,0.16304 0.75233,-0.0533 1.45959,-0.6443 1.306923,-1.45706 0.19686,-0.66644 1.128532,-0.20585 1.621374,-0.40787 0.600525,-0.17849 0.836885,-1.1597 1.584667,-0.80385 0.865637,0.43975 1.502942,-0.54194 2.007433,-1.08897 0.404934,-0.63213 1.073902,-1.35455 1.90954,-1.05346 0.702512,0.33564 1.363012,-0.29135 2.045709,-0.17571 0.588322,0.27314 1.317897,1.2388 1.977857,0.57701 0.80384,-0.99185 0.75579,-2.39527 1.50035,-3.43669 0.19331,-0.66229 -0.73242,-0.37834 -1.05248,-0.65701 -1.14854,-0.38039 -2.212598,-1.29222 -3.465294,-1.20413 -0.620591,0.14859 -0.824418,1.21703 -1.539303,0.77511 -0.817497,-0.27416 -2.063983,-0.49782 -2.492854,0.497 -0.147056,0.33882 -0.524632,0.74387 -0.837539,0.27002 -0.613436,-0.44282 -0.970703,-1.1538 -1.51276,-1.63809 l -0.124879,0.0348 z"
       id="path19437" />
  </g>
</svg>
