<?xml version="1.0" encoding="UTF-8" standalone="no"?>
<!-- Created with Inkscape (http://www.inkscape.org/) -->

<svg
   width="186.698"
   height="160.897"
   viewBox="0 0 49.397178 42.570665"
   version="1.1"
   id="svg44695"
   inkscape:version="1.2.2 (732a01da63, 2022-12-09)"
   sodipodi:docname="spain.svg"
   xmlns:inkscape="http://www.inkscape.org/namespaces/inkscape"
   xmlns:sodipodi="http://sodipodi.sourceforge.net/DTD/sodipodi-0.dtd"
   xmlns="http://www.w3.org/2000/svg"
   xmlns:svg="http://www.w3.org/2000/svg">
  <sodipodi:namedview
     id="namedview44697"
     pagecolor="#ffffff"
     bordercolor="#000000"
     borderopacity="0.25"
     inkscape:showpageshadow="2"
     inkscape:pageopacity="0.0"
     inkscape:pagecheckerboard="0"
     inkscape:deskcolor="#d1d1d1"
     inkscape:document-units="mm"
     showgrid="false"
     inkscape:zoom="0.72515432"
     inkscape:cx="-35.164929"
     inkscape:cy="-21.374761"
     inkscape:window-width="1920"
     inkscape:window-height="1001"
     inkscape:window-x="-9"
     inkscape:window-y="-9"
     inkscape:window-maximized="1"
     inkscape:current-layer="layer1" />
  <defs
     id="defs44692" />
  <g
     inkscape:label="Layer 1"
     inkscape:groupmode="layer"
     id="layer1"
     transform="translate(-38.862782,-154.46392)">
    <path
       style="fill:#01a808;stroke:#000000;stroke-width:0.6;stroke-dasharray:none"
       d="m 48.259496,154.77593 c -1.374452,-0.17132 -2.10914,1.56908 -3.47264,1.13831 -0.882959,-0.14234 -2.822831,-0.0321 -2.666509,1.24109 0.345663,0.86755 1.268942,1.6977 0.538264,2.65892 -0.205499,0.52711 0.720754,0.99938 0.01418,1.37629 -1.796241,1.03572 0.102385,0.94344 1.170205,0.93677 0.976188,-0.15691 0.73871,0.67902 0.315971,1.13983 -0.184838,0.87955 1.278505,0.28261 1.689228,0.6608 1.276575,0.894 3.157606,0.1543 4.243831,1.27401 0.263288,0.69 0.291898,1.48312 0.922594,1.98951 0.158776,1.26383 -1.681068,1.39722 -2.469027,1.93025 -1.273374,0.39321 -0.982198,1.77619 -1.284644,2.75563 -0.570046,1.0607 -1.768735,1.94625 -1.423387,3.29136 -0.243822,1.29409 -1.979322,1.02657 -2.821457,1.20818 -0.02778,1.21948 0.744081,2.26381 0.991966,3.35821 -0.863315,0.87859 -2.610287,1.61633 -2.140904,3.17489 0.0326,0.65756 1.178427,1.64062 0.03089,1.85583 -1.191015,0.60503 -3.124843,1.68108 -2.669548,3.27668 0.719651,0.67166 2.026465,0.71262 2.406745,1.80315 0.865361,1.50435 1.216179,3.2145 1.606691,4.86565 0.429273,0.97629 1.491585,2.32698 2.639166,1.38541 1.430338,-1.02712 3.321443,-0.478 4.84539,-1.28414 2.474219,0.10028 4.819014,1.06165 7.179726,1.66644 0.800373,-0.13683 1.608152,-0.28379 2.313573,0.21977 1.877163,-0.68099 2.747865,-3.39363 5.081863,-3.07515 1.113808,0.13175 2.193115,-0.34508 2.46852,-1.51656 0.830488,-1.75647 2.636359,-2.6784 4.388144,-3.27566 -0.866815,-1.31652 -1.669767,-3.22594 -0.811191,-4.85502 1.708382,-2.5142 4.607536,-3.95131 6.347264,-6.42017 1.752248,-0.98126 4.010713,-0.17014 5.701776,-1.44107 1.318975,-0.89265 3.560527,-0.60465 4.325737,-2.20424 0.05057,-0.70448 0.592587,-1.96418 -0.152922,-2.3865 -1.778455,0.463 -3.435643,-0.30454 -5.055531,-0.90233 -0.782595,0.0516 -1.161989,-0.53392 -1.235527,-1.21426 -0.706263,-1.35181 -2.352742,-0.96001 -3.577964,-1.06742 -2.44222,-0.64762 -4.693605,-2.07138 -6.561455,-3.73645 0.114713,-1.25571 -1.430401,-1.66546 -2.454849,-1.59555 -1.201235,-0.10744 -1.939578,-1.64317 -3.250853,-1.11501 -1.27539,-0.30844 -2.353464,-1.35563 -3.749115,-1.29224 -2.408518,-0.42431 -4.567607,-1.64121 -6.64298,-2.84931 -2.04031,-0.6085 -4.889166,-0.34714 -5.953314,-2.60828 -0.186693,-0.26652 -0.504715,-0.40925 -0.827904,-0.36762 z"
       id="path38545" />
  </g>
</svg>
