<?xml version="1.0" encoding="UTF-8" standalone="no"?>
<!-- Created with Inkscape (http://www.inkscape.org/) -->

<svg
   width="49.881149mm"
   height="44.159367mm"
   viewBox="0 0 49.881149 44.159367"
   version="1.1"
   id="svg32953"
   inkscape:version="1.2.2 (732a01da63, 2022-12-09)"
   sodipodi:docname="spain_new.svg"
   xmlns:inkscape="http://www.inkscape.org/namespaces/inkscape"
   xmlns:sodipodi="http://sodipodi.sourceforge.net/DTD/sodipodi-0.dtd"
   xmlns:xlink="http://www.w3.org/1999/xlink"
   xmlns="http://www.w3.org/2000/svg"
   xmlns:svg="http://www.w3.org/2000/svg">
  <sodipodi:namedview
     id="namedview32955"
     pagecolor="#ffffff"
     bordercolor="#000000"
     borderopacity="0.25"
     inkscape:showpageshadow="2"
     inkscape:pageopacity="0.0"
     inkscape:pagecheckerboard="0"
     inkscape:deskcolor="#d1d1d1"
     inkscape:document-units="mm"
     showgrid="false"
     inkscape:zoom="0.72515432"
     inkscape:cx="175.13514"
     inkscape:cy="441.97489"
     inkscape:window-width="1920"
     inkscape:window-height="1001"
     inkscape:window-x="-9"
     inkscape:window-y="-9"
     inkscape:window-maximized="1"
     inkscape:current-layer="layer1" />
  <defs
     id="defs32950">
    <linearGradient
       inkscape:collect="always"
       xlink:href="#linearGradient10341"
       id="linearGradient24518"
       gradientUnits="userSpaceOnUse"
       x1="-1.3948056e-07"
       y1="548.1806"
       x2="1250.4951"
       y2="548.1806"
       gradientTransform="matrix(0.17730983,0,0,0.17730983,14.810122,31.818541)" />
    <linearGradient
       id="linearGradient10341"
       inkscape:swatch="solid">
      <stop
         style="stop-color:#468597;stop-opacity:1;"
         offset="0"
         id="stop10339" />
    </linearGradient>
  </defs>
  <g
     inkscape:label="Layer 1"
     inkscape:groupmode="layer"
     id="layer1"
     transform="translate(-14.829668,-31.78267)">
    <path
       style="fill:url(#linearGradient24518);fill-opacity:1;stroke:#4c6270;stroke-width:0.670147;stroke-linecap:round;stroke-opacity:1"
       d="m 35.378062,75.348106 c -0.1214,-0.14628 -0.44368,-0.265965 -0.71617,-0.265965 -0.27249,0 -0.53173,-0.09974 -0.57608,-0.221638 -0.0597,-0.164016 -0.16426,-0.17239 -0.4023,-0.03221 -0.32829,0.193331 -1.13804,-0.03547 -1.14102,-0.322411 -8e-4,-0.07314 -0.50007,-0.135519 -1.10957,-0.13862 -0.69205,-0.0035 -1.23743,-0.103394 -1.45237,-0.265965 -0.1893,-0.143179 -0.45519,-0.260326 -0.59086,-0.260326 -0.13568,0 -0.79207,-0.239369 -1.45864,-0.531932 -1.35347,-0.594042 -1.97687,-0.654653 -2.72424,-0.264871 -0.61365,0.32004 -1.03369,0.33683 -1.31784,0.05268 -0.16472,-0.164716 -0.31484,-0.0883 -0.67094,0.341551 -0.31252,0.37724 -0.68006,0.591132 -1.15309,0.671052 -0.3819,0.06452 -0.69435,0.190084 -0.69435,0.279032 0,0.329568 -0.74345,0.157858 -0.83518,-0.192895 -0.051,-0.19504 -0.14327,-0.35615 -0.20504,-0.358021 -0.0618,-0.0019 -0.40577,-0.261186 -0.76446,-0.576257 -0.73161,-0.642649 -1.08735,-1.548058 -0.60823,-1.548058 0.17222,0 0.28519,-0.148664 0.28519,-0.375301 0,-0.281908 -0.0841,-0.353296 -0.33814,-0.286872 -0.29559,0.07729 -0.33432,-0.0038 -0.30772,-0.644231 0.0244,-0.588291 0.0911,-0.722395 0.33814,-0.680559 0.20871,0.03534 0.30772,-0.0645 0.30772,-0.310293 0,-0.393935 -0.44678,-0.500197 -0.59181,-0.140755 -0.0492,0.121901 -0.0957,-0.006 -0.10343,-0.28424 -0.009,-0.337431 -0.27969,-0.801383 -0.8119,-1.393327 -0.43884,-0.488098 -0.79789,-0.98094 -0.79789,-1.095206 0,-0.114265 -0.39895,-0.362572 -0.88655,-0.551786 -0.7102,-0.275598 -0.88655,-0.425847 -0.88655,-0.755337 0,-0.992106 1.43789,-2.879516 2.19371,-2.879516 0.90433,0 1.29561,-0.916758 0.64325,-1.507133 -0.68421,-0.619202 -0.37385,-1.782596 0.83147,-3.116739 l 0.6341,-0.701868 -0.19414,-1.01631 c -0.47081,-2.464675 -0.47349,-2.408181 0.10861,-2.29176 0.90727,0.181454 1.83454,-0.845018 2.07043,-2.291931 0.0867,-0.53163 0.23422,-0.782889 0.54215,-0.923187 0.54546,-0.248534 0.93858,-1.020768 1.1053,-2.171253 l 0.13272,-0.915839 1.09423,-0.33577 c 0.74618,-0.22897 1.23967,-0.508606 1.55146,-0.879155 0.55024,-0.653923 0.56504,-0.863227 0.10261,-1.45111 -0.24618,-0.312962 -0.35462,-0.719309 -0.35462,-1.32879 V 42.50702 l -1.17291,-0.38504 c -0.6451,-0.21177 -1.30738,-0.342361 -1.47172,-0.290201 -0.16577,0.05261 -0.56676,-0.102843 -0.9006,-0.349144 -0.33099,-0.244192 -0.81041,-0.443984 -1.06538,-0.443984 -0.25498,0 -0.60443,-0.102981 -0.77656,-0.228846 -0.26917,-0.196826 -0.28229,-0.296169 -0.0937,-0.709991 0.12057,-0.264628 0.15957,-0.540647 0.0866,-0.613375 -0.16442,-0.164005 -1.79287,-0.15384 -2.4517,0.01529 -0.37287,0.09573 -0.4876,0.06181 -0.4876,-0.144158 0,-0.156083 0.15781,-0.269343 0.3753,-0.269343 0.28237,0 0.35333,-0.08402 0.28656,-0.339325 -0.0601,-0.229857 0.019,-0.367507 0.24529,-0.426675 0.18371,-0.04804 0.33402,-0.01503 0.33402,0.07336 0,0.08839 0.0898,0.16071 0.19947,0.16071 0.12858,0 0.16033,-0.195702 0.0893,-0.550635 -0.0885,-0.442666 -0.0581,-0.530675 0.15514,-0.448839 0.16129,0.06189 0.26528,-2.65e-4 0.26528,-0.158604 0,-0.159555 -0.17167,-0.260401 -0.44328,-0.260401 -0.53482,0 -0.56844,-0.250917 -0.0887,-0.661725 0.19504,-0.167 0.34832,-0.465429 0.34062,-0.663176 -0.008,-0.197747 -0.0542,-0.259805 -0.10343,-0.137903 -0.0492,0.121899 -0.19677,0.221636 -0.32796,0.221636 -0.13119,0 -0.35882,0.120295 -0.50585,0.267324 -0.18312,0.183126 -0.30511,0.206185 -0.38729,0.07321 -0.13917,-0.225173 0.0749,-0.474189 0.65712,-0.764466 0.22677,-0.113053 0.43881,-0.343183 0.4712,-0.511394 0.0468,-0.242732 -0.0697,-0.305837 -0.56422,-0.305837 -0.78381,0 -0.88712,-0.168315 -0.53571,-0.872744 0.22538,-0.451784 0.32854,-0.520888 0.52909,-0.354447 0.19555,0.16229 0.24912,0.148241 0.24912,-0.06534 0,-0.179223 0.24187,-0.312951 0.70865,-0.391816 0.57518,-0.09718 0.86326,-0.03332 1.52947,0.339035 0.45145,0.25232 0.98031,0.458761 1.17526,0.458761 0.29927,0 0.33789,-0.08281 0.24807,-0.531929 -0.06,-0.300064 -0.031,-0.531929 0.0665,-0.531929 0.0951,0 0.17287,-0.128334 0.17287,-0.285187 0,-0.218463 0.10768,-0.258161 0.46024,-0.169674 0.25781,0.06471 0.56671,0.02714 0.70233,-0.08541 0.34355,-0.285123 1.78686,0.781913 2.22844,1.647484 0.35532,0.696491 0.58657,0.780214 1.90044,0.688019 0.37901,-0.02659 0.55105,0.02585 0.47714,0.145447 -0.0686,0.111067 0.0549,0.187042 0.30425,0.187042 0.23092,0 0.57473,0.117144 0.76403,0.260324 0.1893,0.143179 0.52371,0.262863 0.74313,0.265967 0.21942,0.0031 0.39895,0.09177 0.39895,0.197035 0,0.119028 0.19475,0.148624 0.51505,0.07827 0.29751,-0.06534 0.5645,-0.03311 0.63213,0.07632 0.0644,0.104196 0.71031,0.515025 1.43536,0.912955 0.72505,0.397934 1.31827,0.794041 1.31827,0.880243 0,0.1891 1.06054,0.760187 1.18346,0.637275 0.0476,-0.04765 0.35683,0.02625 0.68706,0.164235 0.33024,0.137983 1.06648,0.250875 1.63609,0.250875 1.14772,0 1.94582,0.379757 1.4632,0.69623 -0.14345,0.09407 -0.20646,0.225406 -0.14001,0.291857 0.14519,0.145184 1.45475,0.448312 2.11484,0.489526 0.26005,0.01625 0.53267,0.08936 0.60581,0.162505 0.0731,0.07314 0.30818,0.132982 0.52232,0.132982 0.35864,0 1.3358,0.637008 2.07327,1.35156 0.24583,0.238178 0.35665,0.253281 0.5685,0.07747 0.14472,-0.120116 0.34091,-0.170323 0.43596,-0.111578 0.0951,0.05875 0.2171,0.03518 0.27121,-0.05238 0.15453,-0.250023 1.3446,0.973749 1.3446,1.382668 0,0.246729 0.11442,0.366525 0.35007,0.366525 0.20727,0 0.45897,0.210595 0.61704,0.516273 0.14684,0.283951 0.4485,0.662951 0.67036,0.842222 0.22186,0.179271 0.54445,0.54537 0.71687,0.813551 0.17242,0.268182 0.44791,0.487601 0.61221,0.487601 0.1643,0 0.58758,0.282054 0.94061,0.626782 0.44008,0.42972 0.86053,0.656317 1.3373,0.720725 1.39888,0.188976 1.49331,0.23292 1.49331,0.694936 0,0.31723 0.096,0.439896 0.34416,0.439896 0.18928,0 0.39586,-0.08366 0.45906,-0.18592 0.0792,-0.12822 0.18347,-0.129016 0.33584,-0.0026 0.12151,0.100846 0.5918,0.167214 1.0451,0.147487 0.50194,-0.02186 0.91199,0.05714 1.04878,0.202036 0.17898,0.189579 0.17958,0.254415 0.003,0.319175 -0.25079,0.09195 -0.30556,0.583644 -0.065,0.583644 0.0862,0 0.19836,0.159578 0.24937,0.354621 0.051,0.19504 0.1847,0.354618 0.29711,0.354618 0.1124,0 0.15506,-0.07979 0.0948,-0.17731 -0.0603,-0.09752 0.0195,-0.177308 0.17731,-0.177308 0.15779,0 0.23758,0.07979 0.17731,0.177308 -0.0606,0.09796 0.0674,0.17731 0.28586,0.17731 0.2175,0 0.53368,0.125095 0.70263,0.277988 0.36924,0.334158 1.95289,0.763172 3.53291,0.957066 1.35513,0.166299 2.1076,0.419968 1.80341,0.607965 -0.11419,0.07057 -0.20762,0.530027 -0.20762,1.021003 0,0.743567 -0.0592,0.908177 -0.35462,0.98542 -0.19505,0.051 -0.35462,0.161597 -0.35462,0.245761 0,0.309062 -1.46132,0.905232 -1.96967,0.803563 -0.27441,-0.05488 -0.54662,-0.02262 -0.60491,0.07172 -0.0583,0.09433 -0.29412,0.171503 -0.52403,0.171503 -0.22992,0 -0.44464,0.05984 -0.47714,0.132982 -0.0325,0.07314 -0.3975,0.395486 -0.81109,0.716322 -0.65263,0.50627 -0.80362,0.555707 -1.14279,0.374193 -0.26694,-0.142865 -0.96887,-0.176417 -2.21474,-0.105863 -1.65062,0.09347 -1.88374,0.150585 -2.45321,0.601012 -0.3461,0.273748 -0.67522,0.676701 -0.73137,0.895448 -0.0562,0.218747 -0.17236,0.35429 -0.25825,0.301209 -0.19433,-0.120105 -0.44535,0.08534 -1.77914,1.456143 -0.58397,0.60017 -1.37488,1.308211 -1.75758,1.573421 -0.3827,0.265213 -0.6493,0.557485 -0.59244,0.649491 0.0569,0.092 -0.0642,0.211114 -0.26907,0.264684 -0.20485,0.05357 -0.37246,0.221443 -0.37246,0.37305 0,0.151608 -0.12161,0.410027 -0.27024,0.574264 -0.31693,0.350203 -0.60645,2.779342 -0.30938,2.595743 0.10994,-0.06795 0.23268,0.133165 0.29988,0.491352 0.0626,0.333513 0.25948,0.786339 0.43758,1.00629 0.31838,0.393184 0.31301,1.043876 -0.009,1.043876 -0.0902,0 -0.33533,0.159579 -0.54468,0.354619 -0.20935,0.19504 -0.60967,0.354621 -0.8896,0.354621 -0.29416,0 -0.46271,0.07483 -0.39938,0.177308 0.0603,0.09752 -0.0348,0.177609 -0.21117,0.177974 -0.44031,7.94e-4 -1.24024,0.526053 -2.13818,1.403692 -0.55127,0.538802 -0.75357,0.877559 -0.75357,1.261877 0,0.527227 -0.25515,0.718407 -0.40533,0.303707 -0.0642,-0.17731 -0.15534,-0.17731 -0.45565,0 -0.20645,0.121902 -0.77708,0.221636 -1.26806,0.221636 -1.22177,0 -3.09935,0.902611 -3.34532,1.608196 -0.0953,0.273227 -0.41848,0.623628 -0.7183,0.778669 -0.29981,0.15504 -0.54511,0.359629 -0.54511,0.454647 0,0.257929 -0.28144,0.208613 -0.53193,-0.09321 z m 28.54688,-22.528813 c 0,-0.152038 -0.0798,-0.227118 -0.1773,-0.166846 -0.0975,0.06027 -0.17731,0.184666 -0.17731,0.276428 0,0.09177 0.0798,0.166847 0.17731,0.166847 0.0975,0 0.1773,-0.124394 0.1773,-0.276429 z M 22.124152,34.00614 c -0.1219,-0.04919 -0.32137,-0.04919 -0.44327,0 -0.1219,0.04919 -0.0222,0.08943 0.22164,0.08943 0.2438,0 0.34353,-0.04024 0.22163,-0.08943 z"
       id="path24516" />
  </g>
</svg>
