<?xml version="1.0" encoding="UTF-8" standalone="no"?>
<!-- Created with Inkscape (http://www.inkscape.org/) -->

<svg
   width="188.332"
   height="161.961"
   viewBox="0 0 49.829508 42.852181"
   version="1.1"
   id="svg44695"
   inkscape:version="1.2.2 (732a01da63, 2022-12-09)"
   sodipodi:docname="spain.svg"
   xmlns:inkscape="http://www.inkscape.org/namespaces/inkscape"
   xmlns:sodipodi="http://sodipodi.sourceforge.net/DTD/sodipodi-0.dtd"
   xmlns="http://www.w3.org/2000/svg"
   xmlns:svg="http://www.w3.org/2000/svg">
  <sodipodi:namedview
     id="namedview44697"
     pagecolor="#ffffff"
     bordercolor="#000000"
     borderopacity="0.25"
     inkscape:showpageshadow="2"
     inkscape:pageopacity="0.0"
     inkscape:pagecheckerboard="0"
     inkscape:deskcolor="#d1d1d1"
     inkscape:document-units="mm"
     showgrid="false"
     inkscape:zoom="0.72515432"
     inkscape:cx="-359.23388"
     inkscape:cy="-160.65546"
     inkscape:window-width="1920"
     inkscape:window-height="1001"
     inkscape:window-x="-9"
     inkscape:window-y="-9"
     inkscape:window-maximized="1"
     inkscape:current-layer="layer1" />
  <defs
     id="defs44692" />
  <g
     inkscape:label="Layer 1"
     inkscape:groupmode="layer"
     id="layer1"
     transform="translate(-48.709907,-191.15291)">
    <path
       style="fill:#01a808;fill-opacity:1;stroke:#000000;stroke-width:0.4;stroke-dasharray:none"
       d="m 58.078538,191.35563 c -1.068398,-0.0146 -1.888887,0.70138 -2.659975,1.30725 -1.255502,-0.45466 -2.917044,-0.32382 -3.730912,0.85539 -0.09111,0.83685 0.885841,1.38685 1.024747,2.09389 -0.240184,0.61934 -0.609068,1.32595 -0.04368,1.91523 -0.02114,0.50575 -1.089696,0.7687 -1.433551,1.22681 -0.198908,0.94062 1.455583,0.24178 2.066523,0.38992 0.355811,7.9e-4 1.409726,-0.1164 0.803895,0.4811 -0.571265,0.7127 0.339399,1.3344 1.029402,1.14004 1.037696,0.28716 2.029847,0.79811 3.157699,0.74806 0.773792,-0.061 2.031825,0.28681 1.686399,1.30108 -0.294926,0.81057 1.347571,1.03286 0.643063,1.78883 -0.973286,0.9262 -2.856698,0.80982 -3.377513,2.18663 0.116289,0.70857 0.138633,1.4567 -0.36414,2.07205 -0.579144,0.89529 -1.644274,1.72093 -1.234925,2.92386 -0.0092,1.24126 -1.672261,1.03725 -2.529286,1.08454 -0.761023,0.30854 -0.06239,1.31938 -0.0082,1.88623 0.149374,0.59264 0.44619,1.20735 0.670992,1.72331 -1.017994,0.83412 -2.763832,1.84995 -2.14796,3.43014 0.09239,0.53374 0.957961,1.33789 0.01405,1.5038 -1.449609,0.6117 -3.244003,2.04672 -2.604204,3.82296 0.637047,0.5276 1.839121,0.21115 2.186272,1.17083 0.805773,1.16539 1.02738,2.569 1.624486,3.82365 -0.05924,0.82347 0.05755,1.67961 0.760505,2.24535 0.495831,0.53576 1.171275,1.5621 1.95282,0.80418 1.21704,-0.96477 2.777724,-0.97846 4.236483,-1.21236 1.610843,-0.69575 3.283696,0.27551 4.906793,0.48465 1.132111,0.0437 2.064849,0.81977 3.152979,0.98014 0.782065,-0.174 1.63434,-0.39088 2.280257,0.26422 0.940488,-0.0841 1.607132,-1.15724 2.316784,-1.78809 0.748996,-1.18671 2.16494,-1.59466 3.498176,-1.43635 1.146103,0.37825 1.5407,-0.60161 1.89231,-1.46925 0.89144,-1.79791 2.681053,-2.90037 4.595969,-3.30877 0.507524,-0.64734 -0.864198,-1.07961 -0.989301,-1.75553 -0.707948,-1.60865 -0.192119,-3.54114 1.183807,-4.62456 1.628704,-1.6861 3.858511,-2.85909 5.061352,-4.90502 1.735942,-0.96262 3.982239,-0.16541 5.669601,-1.35552 1.418807,-0.86823 3.368471,-0.87327 4.517006,-2.14301 0.227375,-0.68085 0.08016,-1.44903 0.451506,-2.08065 0.03059,-0.88931 -1.061167,-1.15362 -1.712759,-0.73874 -1.756323,0.45596 -3.195966,-1.13117 -4.911937,-1.04974 -0.338412,-0.51431 0.01471,-1.30114 -0.706797,-1.59441 -0.655307,-0.51243 -1.490821,-0.88761 -2.2987,-0.51344 -2.795154,-0.0299 -5.006176,-2.0174 -7.212619,-3.481 -0.510865,-0.32337 0.05877,-1.08491 -0.545314,-1.41287 -1.005419,-0.85562 -2.601619,0.003 -3.461298,-1.13109 -0.534344,-0.62473 -1.33401,-0.85527 -2.103562,-0.57324 -1.077137,-0.0357 -1.695987,-1.27617 -2.847207,-1.18934 -2.431286,-0.0573 -4.65265,-1.29196 -6.68989,-2.53441 -1.202158,-0.89188 -2.859262,-0.49888 -4.187128,-1.09085 -1.209052,-0.14427 -1.930334,-1.08907 -2.657054,-1.94115 -0.236279,-0.26414 -0.583649,-0.34427 -0.925925,-0.32475 z"
       id="path121962" />
  </g>
</svg>
