<?xml version="1.0" encoding="UTF-8" standalone="no"?>
<!-- Created with Inkscape (http://www.inkscape.org/) -->

<svg
   width="248.77148"
   height="224.41211"
   viewBox="0 0 65.820789 59.375703"
   version="1.1"
   id="svg32297"
   inkscape:version="1.2.2 (732a01da63, 2022-12-09)"
   sodipodi:docname="spain.svg"
   xmlns:inkscape="http://www.inkscape.org/namespaces/inkscape"
   xmlns:sodipodi="http://sodipodi.sourceforge.net/DTD/sodipodi-0.dtd"
   xmlns="http://www.w3.org/2000/svg"
   xmlns:svg="http://www.w3.org/2000/svg">
  <sodipodi:namedview
     id="namedview32299"
     pagecolor="#ffffff"
     bordercolor="#000000"
     borderopacity="0.25"
     inkscape:showpageshadow="2"
     inkscape:pageopacity="0.0"
     inkscape:pagecheckerboard="0"
     inkscape:deskcolor="#d1d1d1"
     inkscape:document-units="mm"
     showgrid="false"
     inkscape:zoom="0.72515432"
     inkscape:cx="77.224941"
     inkscape:cy="133.07512"
     inkscape:window-width="1920"
     inkscape:window-height="1001"
     inkscape:window-x="-9"
     inkscape:window-y="-9"
     inkscape:window-maximized="1"
     inkscape:current-layer="layer1" />
  <defs
     id="defs32294">
    <clipPath
       clipPathUnits="userSpaceOnUse"
       id="clipPath20137">
      <path
         id="path20139"
         style="fill:#ff0000;fill-opacity:1;fill-rule:nonzero;stroke:none"
         d="m 44.681641,657.05273 v 109.31641 c 0.570104,-3.15148 1.142359,-6.30275 1.673828,-9.46094 0.813197,-4.55945 1.554015,-9.16531 3.320312,-13.47851 1.43907,-3.49129 3.088499,-6.88851 4.712891,-10.29688 1.177348,-2.47036 2.856961,-3.60085 4.333984,-3.70117 1.838289,-0.12486 3.359406,1.34806 3.205078,3.82031 0.464637,-0.22227 0.934697,-0.35905 1.390625,-0.36328 2.116593,-0.0196 3.869171,2.24601 2.75,6.19531 -0.179535,0.63355 -0.407225,1.2514 -0.605468,1.87891 1.135299,0.42175 2.303948,1.44417 3.234375,3.2168 0.466141,0.88808 0.90553,1.78751 1.289062,2.71484 2.789044,6.74351 -4.018749,9.466 -6.845703,2.73828 -0.109452,-0.26048 -0.224772,-0.51822 -0.34375,-0.77343 -0.02327,0.0686 -0.04912,0.13642 -0.07227,0.20507 -0.218587,0.64827 -0.323976,1.04486 -0.482421,1.53321 2.024742,0.25482 3.497314,2.64184 2.15039,6.41992 -0.432565,1.21334 -0.939584,2.40099 -1.5,3.56054 -0.640801,1.29388 -1.379813,2.53865 -2.144531,3.76172 -0.988506,1.38489 -2.12526,2.64068 -3.345703,3.8125 -0.412869,1.66259 -0.828082,3.32477 -1.244141,4.98633 -1.142054,5.02625 -2.756473,9.91548 -4.546875,14.74219 -1.648102,3.81163 -3.628656,7.4647 -5.300781,11.26562 l -0.546875,1.35547 c -0.313145,0.77404 -0.681828,1.4167 -1.082031,1.94922 v 79.01367 H 293.45312 V 657.05273 Z" />
    </clipPath>
  </defs>
  <g
     inkscape:label="Layer 1"
     inkscape:groupmode="layer"
     id="layer1"
     transform="translate(-40.792351,-113.33918)">
    <path
       style="fill:#1fae1f;fill-opacity:1;stroke:#007820;stroke-width:5;stroke-linecap:round;stroke-dasharray:none;stroke-opacity:1"
       d="m 147.6519,879.12326 c -0.305,-0.33702 -0.55454,-0.766 -0.55454,-0.95329 0,-0.18729 -0.31761,-0.62777 -0.70579,-0.97884 -0.59953,-0.54221 -1.18989,-0.63155 -3.92116,-0.59342 -2.96204,0.0414 -3.14403,0.008 -2.30988,-0.42954 1.03296,-0.54122 1.21258,-1.45826 0.28563,-1.45826 -0.74505,0 -3.40101,1.86171 -3.40101,2.38395 0,0.23014 0.34719,0.29055 0.92145,0.16031 l 0.92145,-0.20897 -0.79103,0.67526 c -1.31066,1.11883 -2.31442,0.69287 -2.10932,-0.89514 0.052,-0.40299 -0.21648,-1.04382 -0.59672,-1.42406 -0.80616,-0.80616 -1.51887,-0.91461 -1.24032,-0.18874 0.24743,0.64482 -0.11341,0.63831 -1.05184,-0.019 -0.40959,-0.28688 -0.74471,-0.83588 -0.74471,-1.22 0,-0.68301 -0.0941,-0.69345 -4.27219,-0.47425 -4.71492,0.24738 -6.08465,0.0108 -7.43638,-1.2842 -0.53502,-0.51258 -2.00407,-1.16157 -3.82155,-1.68825 -3.30949,-0.95906 -7.91004,-2.92862 -9.43408,-4.03888 -0.71761,-0.52278 -1.31983,-0.68719 -2.09853,-0.5729 -0.90275,0.13249 -1.05608,0.0664 -0.88439,-0.38099 0.17907,-0.46666 -0.11678,-0.54127 -2.14625,-0.54127 -2.649177,0 -3.413996,0.19569 -3.413996,0.87353 0,0.32372 -0.424643,0.46676 -1.385641,0.46676 -1.047608,0 -1.57503,0.20436 -2.161979,0.83768 -0.572303,0.61753 -1.119659,0.83769 -2.082634,0.83769 -1.629762,0 -3.304627,-0.56484 -3.546892,-1.19617 -0.101136,-0.26356 -0.507761,-0.4792 -0.90361,-0.4792 -0.588554,0 -0.690309,0.1539 -0.55831,0.84439 0.152411,0.79729 0.09852,0.83259 -0.966162,0.63286 -1.029454,-0.19313 -1.127573,-0.14048 -1.127573,0.60503 0,1.46919 -2.439642,3.1428 -4.097851,2.81116 -0.943038,-0.18861 -0.98771,-0.14984 -0.780156,0.67713 l 0.220164,0.87719 -1.858667,-0.23222 c -1.760839,-0.22 -1.875071,-0.18907 -2.170376,0.58764 -0.217171,0.5712 -0.661094,0.8854 -1.463684,1.03597 -2.157736,0.40479 -3.587452,-0.60346 -3.587452,-2.5299 0,-1.14125 -0.09305,-1.28837 -0.814868,-1.28837 -0.520668,0 -1.070058,-0.35838 -1.521688,-0.99263 -0.452786,-0.63588 -1.119661,-1.07009 -1.855503,-1.20813 -0.918154,-0.17225 -1.133923,-0.35949 -1.075134,-0.93296 0.05234,-0.51051 -0.136887,-0.74773 -0.656032,-0.82242 -1.049626,-0.15102 -1.3662,-0.65718 -2.703272,-4.32224 -1.170982,-3.20978 -1.325864,-4.26792 -1.424473,-9.73183 -0.01509,-0.83643 -0.184992,-1.42406 -0.411727,-1.42406 -0.212314,0 -0.05785,-0.30574 0.343247,-0.67942 1.027108,-0.9569 1.190822,-1.97112 0.561357,-3.47765 -0.386141,-0.92416 -0.479903,-1.7647 -0.323613,-2.90106 0.204667,-1.48811 0.166498,-1.60764 -0.546212,-1.71062 -1.53574,-0.22188 -7.618891,-8.18509 -7.162062,-9.37557 0.124088,-0.32336 -0.310953,-0.57455 -1.473284,-0.85065 -1.987756,-0.47218 -4.391896,-1.92232 -4.391896,-2.64914 0,-0.41982 -0.321391,-0.50355 -1.5916,-0.41463 l -1.5916,0.11141 -0.104887,-1.46198 c -0.221036,-3.08094 1.853733,-7.73467 5.209203,-11.6843 0.902764,-1.06262 1.898784,-2.34669 2.213377,-2.85349 0.443683,-0.71476 0.829622,-0.92145 1.720529,-0.92145 2.114575,0 4.403113,-0.68955 5.621392,-1.69376 2.156537,-1.7776 1.992861,-4.03444 -0.434041,-5.98475 -3.594626,-2.88872 -1.920549,-9.5119 4.021493,-15.91031 1.604663,-1.72791 3.114833,-3.61789 3.355932,-4.19995 0.397261,-0.95907 0.355705,-1.2218 -0.443206,-2.80207 -0.905415,-1.79094 -1.628921,-5.68842 -2.090435,-11.26104 l -0.233199,-2.81579 1.136743,0.23976 c 0.625208,0.13187 1.907009,0.32469 2.848445,0.42849 1.626207,0.1793 1.782548,0.12472 3.130088,-1.0927 1.840743,-1.663 4.236752,-5.03433 4.886286,-6.87531 0.281753,-0.79857 0.607834,-2.58238 0.724625,-3.96402 0.234067,-2.769 0.505872,-3.18346 3.091933,-4.71465 2.703954,-1.60101 4.387378,-5.31639 5.358733,-11.82694 l 0.545862,-3.65866 3.976229,-1.14296 c 2.186926,-0.62862 4.860278,-1.61415 5.940783,-2.19005 3.723148,-1.98442 5.823314,-5.26313 4.989534,-7.78951 -0.19906,-0.60317 -1.05645,-1.91031 -1.905308,-2.90477 l -1.543376,-1.80812 0.212889,-2.51836 c 0.117088,-1.3851 0.301453,-3.1215 0.409702,-3.85866 l 0.196812,-1.3403 -3.3121,-1.43589 c -4.679827,-2.02885 -6.189357,-2.41746 -9.390474,-2.41746 -3.155768,0 -3.605973,-0.16951 -5.899298,-2.22117 -1.766812,-1.58064 -3.225374,-2.13004 -5.662452,-2.13291 -0.871651,-10e-4 -2.192377,-0.24497 -2.934949,-0.54209 -1.840736,-0.73652 -2.031319,-1.66124 -0.851234,-4.13026 1.497042,-3.13218 1.053645,-3.61111 -3.400437,-3.67297 -3.416209,-0.0474 -7.305411,0.56054 -9.631268,1.50563 -1.098867,0.44651 -2.12471,0.68506 -2.279653,0.53012 -0.489097,-0.4891 0.101113,-1.38366 0.861391,-1.30558 0.597659,0.0614 0.74086,-0.12704 0.832796,-1.09571 0.12885,-1.35762 0.490841,-1.6661 1.963408,-1.67317 1.383357,-0.007 1.577275,-0.37744 0.964436,-1.84417 l -0.500721,-1.1984 1.010033,-0.202 c 0.789019,-0.15781 0.987905,-0.35705 0.908904,-0.91057 -0.06296,-0.44111 -0.387571,-0.74922 -0.860015,-0.81628 -0.875623,-0.1243 -0.677378,-0.72996 0.238929,-0.72996 1.000217,0 2.165777,1.17082 2.211783,2.22176 0.0342,0.78124 0.193606,0.96144 0.850499,0.96144 1.17005,0 1.334865,-1.92028 0.262762,-3.06148 l -0.761115,-0.81017 0.891973,-0.89197 c 0.872734,-0.87274 0.906747,-0.87861 1.57689,-0.27213 0.805537,0.729 1.062701,0.59614 0.798876,-0.41273 -0.323346,-1.23648 -2.822297,-1.58614 -4.320429,-0.60453 -0.440092,0.28836 -0.888236,0.52429 -0.995876,0.52429 -0.360142,0 -1.488429,-2.83676 -1.495879,-3.76097 -0.0054,-0.67147 -0.273165,-1.0503 -1.01258,-1.43267 -0.552872,-0.2859 -1.005221,-0.63163 -1.005221,-0.76828 0,-0.13665 0.678524,-1.02411 1.507831,-1.97213 1.658992,-1.89648 1.772576,-2.27546 0.953289,-3.18076 -0.527954,-0.58339 -0.49372,-0.61277 0.71399,-0.61277 1.262618,0 1.267644,0.005 1.078219,1.17276 -0.104672,0.64502 -0.07529,1.17276 0.06529,1.17276 0.444222,0 1.653572,-1.46957 2.032667,-2.47004 0.568927,-1.50146 -0.05007,-1.99686 -2.164919,-1.73262 -0.941903,0.11768 -2.112355,0.062 -2.601004,-0.12382 -0.970596,-0.36902 -2.255508,-1.51951 -2.255508,-2.01954 0,-0.17309 0.605018,-1.01374 1.344484,-1.86813 0.739466,-0.85438 1.269561,-1.67465 1.177989,-1.82282 -0.09157,-0.14817 0.241388,-0.67728 0.739912,-1.1758 l 0.906406,-0.90641 0.489448,1.03348 c 0.632708,1.33598 1.03669,1.31449 1.043145,-0.0555 0.0075,-1.58394 0.323481,-1.87083 2.060771,-1.87083 0.890499,0 1.92375,-0.23948 2.411162,-0.55885 0.796276,-0.52174 0.980542,-0.52174 2.775173,-2e-5 2.307946,0.67093 6.281462,2.62487 7.62123,3.74767 0.712141,0.59681 1.287668,0.7844 2.177979,0.70993 l 1.210071,-0.10123 -0.105983,-2.90633 c -0.103073,-2.82652 -0.08632,-2.9012 0.610055,-2.71909 0.65858,0.17222 0.69828,0.0926 0.494733,-0.99241 -0.121716,-0.64881 -0.09467,-1.25349 0.06009,-1.34372 0.15477,-0.0902 1.186097,-0.2616 2.29184,-0.3808 1.769679,-0.19076 1.918897,-0.16359 1.246019,0.22688 -0.914641,0.53077 -0.646914,0.91139 0.641073,0.91139 0.571214,0 1.400993,-0.40677 2.123037,-1.04073 0.651923,-0.5724 1.37339,-0.96488 1.603257,-0.87219 0.229868,0.0927 1.662335,1.15412 3.183261,2.35874 1.520926,1.20462 3.054904,2.28213 3.408839,2.39446 0.734103,0.233 2.209315,2.42917 3.606466,5.36902 l 0.95546,2.01044 4.51663,0.2038 c 2.48415,0.11208 4.74281,0.28609 5.01924,0.38669 0.27644,0.1006 0.8032,0.28212 1.17057,0.40338 0.64232,0.21201 0.63667,0.24408 -0.14716,0.83532 l -0.81513,0.61486 2.02491,-0.0191 c 2.43752,-0.023 5.13843,1.0958 5.13843,2.12842 0,0.4497 0.23571,0.64026 0.79196,0.64026 0.83214,0 3.92921,-0.53928 5.07183,-0.88314 0.56474,-0.16995 0.52448,-0.0468 -0.25599,0.78281 -1.5273,1.6235 0.0883,2.05943 2.23456,0.60294 1.4739,-1.00022 1.53971,-1.01006 1.53971,-0.23023 0,0.80958 1.43591,2.09774 3.65943,3.28289 0.99909,0.53252 2.20754,1.35896 2.68544,1.83653 0.47791,0.47758 1.62065,1.1203 2.53943,1.42828 2.40272,0.80539 6.83846,3.34178 6.11025,3.49387 -0.32251,0.0674 -0.58638,0.23883 -0.58638,0.38104 0,0.37862 1.01846,1.20872 2.24511,1.82986 1.33847,0.67778 1.90449,0.69161 1.6546,0.0404 -0.24381,-0.63536 0.57271,-0.66715 1.09115,-0.0425 0.21003,0.25308 0.28597,0.71007 0.16875,1.01555 -0.18405,0.47961 -0.0309,0.52626 1.12233,0.34186 1.36679,-0.21856 2.60959,0.19968 3.27563,1.10235 0.2526,0.34235 1.84272,0.54351 6.03132,0.763 6.73541,0.35294 9.00985,0.78096 10.13642,1.90753 0.65191,0.65191 0.77758,1.03446 0.61193,1.86274 -0.27769,1.38843 -0.4138,1.47372 -1.20671,0.75614 -0.85305,-0.772 -1.0916,-0.55331 -0.5605,0.51383 0.36691,0.73722 0.69695,0.85244 3.05668,1.06702 1.70868,0.15538 3.24781,0.53049 4.34678,1.05938 2.49847,1.20241 2.75136,1.23863 3.65956,0.52424 0.45548,-0.35828 1.22918,-0.65142 1.71933,-0.65142 0.73858,0 0.85477,0.11471 0.67857,0.66989 -0.24371,0.76785 0.84488,1.34055 2.54813,1.34055 1.41585,0 3.16775,0.98485 5.57883,3.13622 2.69746,2.4069 2.95545,2.53144 6.39854,3.08877 1.59404,0.25803 3.32055,0.56523 3.8367,0.68267 0.87866,0.19991 0.92439,0.15744 0.71759,-0.66648 -0.16584,-0.66076 -0.094,-0.88 0.28829,-0.88 0.47451,0 0.79557,0.33842 2.85726,3.01173 0.42938,0.55677 1.44717,1.40288 2.26174,1.88025 0.81458,0.47738 1.50294,1.0421 1.52969,1.25495 0.0268,0.21286 0.0645,1.14092 0.0838,2.06238 l 0.0351,1.67537 1.55358,0.17872 c 1.97922,0.22768 2.44303,0.63252 3.80388,3.32026 1.1085,2.18934 1.91722,3.10498 4.24602,4.80736 0.72949,0.53327 1.53433,1.57751 1.98584,2.57655 0.59322,1.3126 1.06243,1.82666 2.14613,2.35127 0.7628,0.36926 1.57149,0.67139 1.79708,0.67139 0.79798,0 3.04693,1.35234 3.4256,2.05989 0.21117,0.39457 0.98915,1.37398 1.72885,2.17646 1.53644,1.66683 3.64082,2.46513 6.49832,2.46513 2.43658,0 4.95587,0.58907 5.98654,1.3998 0.74162,0.58336 0.85066,0.90113 0.76751,2.23689 l -0.0969,1.55695 1.60028,0.10248 c 1.33587,0.0856 1.71725,-0.0289 2.30818,-0.69225 l 0.70789,-0.79474 0.77603,0.77602 c 0.65323,0.65324 1.12304,0.77603 2.96923,0.77603 1.71544,0 2.33325,-0.14005 2.8361,-0.64289 0.63379,-0.6338 0.65136,-0.63352 1.24248,0.0197 0.37769,0.41734 0.97683,0.64271 1.61886,0.60894 0.5606,-0.0295 1.19299,-0.0383 1.40533,-0.0197 0.64668,0.0569 1.15641,2.05088 1.36187,5.32752 0.16572,2.64296 0.30071,3.18938 0.88987,3.60204 1.20788,0.84603 1.82483,0.55912 0.77802,-0.36182 l -0.94014,-0.8271 h 1.91352 c 1.83257,0 1.89006,0.0259 1.35898,0.61277 -0.81571,0.90134 -0.69319,1.02396 0.70198,0.70258 1.73672,-0.40005 2.31895,-0.15469 4.47272,1.8849 1.95046,1.84706 2.18029,1.93358 6.16587,2.32129 1.23689,0.12033 2.84846,0.6008 4.18842,1.24874 2.06199,0.99707 2.36939,1.05009 5.77212,0.99558 3.02711,-0.0485 3.99859,0.0745 6.15786,0.77932 1.41006,0.46029 2.99684,0.83689 3.52618,0.83689 0.72719,0 0.96246,0.15796 0.96246,0.64621 0,0.653 -0.68288,1.53601 -1.36328,1.76281 -0.41036,0.13679 -0.47829,1.35887 -0.31827,5.72619 0.0925,2.52579 0.0223,3.00407 -0.49682,3.38368 -0.37987,0.27777 -0.50394,0.60497 -0.33378,0.8803 0.21158,0.34235 0.003,0.39472 -0.95403,0.23943 -1.04765,-0.17001 -1.22486,-0.10719 -1.22486,0.43422 0,0.73624 -2.14579,2.30476 -4.95293,3.62046 -1.72873,0.81026 -2.24038,0.89011 -5.23282,0.81668 -3.30423,-0.0811 -3.31444,-0.0788 -2.70664,0.59277 0.6082,0.67206 0.6008,0.67346 -2.37951,0.45081 l -2.98961,-0.22335 0.61085,0.68922 c 0.59536,0.67175 0.59111,0.6954 -0.16754,0.93301 -1.05062,0.32905 -3.39161,1.93386 -5.68033,3.894 l -1.88628,1.61548 -11.76797,-0.21999 c -8.54093,-0.15967 -11.76798,-0.11786 -11.76798,0.15245 0,0.20484 -0.97441,1.06776 -2.16537,1.91761 -3.29215,2.34923 -3.86595,3.17313 -3.86595,5.55094 0,1.98961 -0.35472,2.49461 -0.98222,1.39835 -0.93571,-1.63472 -0.9186,-1.63482 -2.45452,0.0145 -1.18521,1.27271 -1.68511,1.5771 -2.59008,1.5771 -0.61678,0 -1.02691,0.0945 -0.9114,0.21002 0.45095,0.45096 -0.89543,2.20628 -4.52436,5.89852 -4.38105,4.45751 -8.76106,8.23268 -9.87645,8.51263 -0.6379,0.1601 -0.77584,0.41731 -0.77584,1.44676 0,0.8265 -0.22777,1.45817 -0.67015,1.85851 -0.60266,0.5454 -0.67014,0.55063 -0.67014,0.0519 0,-0.30501 -0.12742,-0.55455 -0.28314,-0.55455 -0.54187,0 -1.47224,1.31865 -1.28135,1.8161 0.10696,0.27871 -0.33627,1.26898 -0.99953,2.23319 -1.79292,2.60645 -2.08594,3.57337 -2.44643,8.07272 -0.18196,2.27098 -0.43437,4.50602 -0.56092,4.96675 -0.22326,0.81278 -0.21032,0.82025 0.43527,0.2513 0.36595,-0.32251 0.7545,-0.58638 0.86343,-0.58638 0.10894,0 0.44139,1.06981 0.73879,2.37736 0.60697,2.66865 1.94421,5.52029 3.50725,7.47915 1.13831,1.42657 1.48385,2.37446 1.31092,3.59613 -0.10033,0.70881 -0.30515,0.79809 -2.03821,0.88848 -1.37965,0.072 -1.92667,0.23361 -1.92667,0.56933 0,0.25786 -0.49005,0.83625 -1.08899,1.2853 -1.47267,1.10412 -3.93712,2.31903 -3.93712,1.94089 0,-0.53636 -0.98048,-0.70599 -1.92958,-0.33382 l -0.91854,0.36018 0.83768,0.34256 0.83768,0.34257 -1.00522,0.26019 c -0.55287,0.14311 -1.56912,0.35693 -2.25833,0.47516 -1.67421,0.28719 -5.24217,2.744 -8.98039,6.18367 -4.07365,3.74831 -4.83316,4.9112 -4.56467,6.98906 0.11292,0.87386 0.30214,1.92811 0.4205,2.34276 l 0.2152,0.75392 -7.32693,0.008 c -8.09749,0.009 -9.61679,0.22788 -11.84266,1.70578 -1.19826,0.79559 -1.74362,0.96389 -2.60459,0.80374 -0.92246,-0.17159 -1.08899,-0.10366 -1.08899,0.44423 0,0.75849 -1.25054,1.66087 -2.70472,1.95171 -1.18996,0.23799 -1.81875,1.09467 -2.13825,2.91321 -0.12519,0.71252 -0.59333,1.63227 -1.04283,2.04886 -0.44862,0.41575 -0.81568,1.00251 -0.81568,1.30388 0,0.3757 -0.29256,0.54796 -0.93066,0.54796 -1.10387,0 -2.10041,0.64945 -3.68094,2.39892 -1.3045,1.44392 -1.73945,1.55933 -2.54055,0.67413 z m 33.95805,-15.78327 c 0,-0.45245 -1.2285,-0.77337 -2.01044,-0.52519 -1.12909,0.35835 -0.74563,0.83768 0.67014,0.83768 0.73717,0 1.3403,-0.14062 1.3403,-0.31249 z M 65.188341,845.96593 c -0.322619,-0.32263 -1.189263,0.26527 -1.189263,0.80674 0,0.51565 0.05878,0.51187 0.672202,-0.0433 0.369711,-0.33459 0.602388,-0.67815 0.517061,-0.76347 z m 145.175409,-4.82135 c -0.1517,-1.53609 -0.94268,-1.65146 -0.94268,-0.1375 0,0.86552 0.14622,1.20068 0.52384,1.20068 0.38707,0 0.49642,-0.27759 0.41884,-1.06318 z m 48.48069,-58.57994 c 0.13556,-0.21934 -2.23694,-0.33507 -6.86901,-0.33507 -4.63208,0 -7.00457,0.11573 -6.86901,0.33507 0.12682,0.20521 2.78917,0.33508 6.86901,0.33508 4.07984,0 6.74219,-0.12987 6.86901,-0.33508 z m 30.87343,-17.59212 c 0.25286,-0.65892 -0.13463,-2.17723 -0.55564,-2.17723 -0.18078,0 -0.32869,0.60314 -0.32869,1.3403 0,1.32608 0.51104,1.80973 0.88433,0.83693 z m -33.72156,-18.92328 c 0,-0.85778 -0.34617,-1.683 -0.70599,-1.683 -0.33957,0 -0.41314,2.11992 -0.085,2.4481 0.34383,0.34382 0.79095,-0.0887 0.79095,-0.7651 z m -60.31326,-38.54111 c 0,-0.18429 -0.66963,-0.33507 -1.48806,-0.33507 -0.81843,0 -1.58125,0.15078 -1.69515,0.33507 -0.12763,0.20652 0.44329,0.33508 1.48806,0.33508 0.93233,0 1.69515,-0.15079 1.69515,-0.33508 z M 61.635783,683.57179 c 0.219643,-0.26466 0.511782,-0.90549 0.649199,-1.42407 0.179262,-0.6765 0.572859,-1.04926 1.393202,-1.31946 1.229044,-0.40481 2.128981,-1.93581 1.920328,-3.2669 -0.09435,-0.60193 -0.219222,-0.50973 -0.804792,0.5942 -0.427956,0.80679 -0.784189,1.1593 -0.931188,0.92145 -0.397728,-0.64353 -1.781632,-0.43244 -2.776664,0.42354 -0.797549,0.6861 -0.931372,1.04032 -0.882345,2.33549 0.08232,2.17467 0.573732,2.77021 1.43226,1.73575 z m 46.257947,-12.08408 c 0,-0.55138 -2.16064,-0.73775 -2.48417,-0.21427 -0.29081,0.47055 0.17899,0.71688 1.36726,0.71688 0.76943,0 1.11691,-0.15637 1.11691,-0.50261 z m -27.113561,-2.51305 c 0.508093,0 0.346815,-0.58343 -0.221567,-0.80154 -0.636084,-0.24409 -2.151354,0.0927 -2.151354,0.47822 0,0.33978 1.01738,0.6232 1.619005,0.45103 0.245435,-0.0702 0.584697,-0.12771 0.753916,-0.12771 z"
       id="path1213"
       transform="matrix(0.26458333,0,0,0.26458333,28.970335,-60.506016)"
       clip-path="url(#clipPath20137)" />
  </g>
</svg>
