<?xml version="1.0" encoding="UTF-8" standalone="no"?>
<!-- Created with Inkscape (http://www.inkscape.org/) -->

<svg
   width="49.247162mm"
   height="42.354347mm"
   viewBox="0 0 49.247162 42.354347"
   version="1.1"
   id="svg44695"
   inkscape:version="1.2.2 (732a01da63, 2022-12-09)"
   sodipodi:docname="spain_1.svg"
   xmlns:inkscape="http://www.inkscape.org/namespaces/inkscape"
   xmlns:sodipodi="http://sodipodi.sourceforge.net/DTD/sodipodi-0.dtd"
   xmlns="http://www.w3.org/2000/svg"
   xmlns:svg="http://www.w3.org/2000/svg">
  <sodipodi:namedview
     id="namedview44697"
     pagecolor="#ffffff"
     bordercolor="#000000"
     borderopacity="0.25"
     inkscape:showpageshadow="2"
     inkscape:pageopacity="0.0"
     inkscape:pagecheckerboard="0"
     inkscape:deskcolor="#d1d1d1"
     inkscape:document-units="mm"
     showgrid="false"
     inkscape:zoom="0.72515432"
     inkscape:cx="188.23579"
     inkscape:cy="71.019366"
     inkscape:window-width="1920"
     inkscape:window-height="1001"
     inkscape:window-x="-9"
     inkscape:window-y="-9"
     inkscape:window-maximized="1"
     inkscape:current-layer="layer1" />
  <defs
     id="defs44692" />
  <g
     inkscape:label="Layer 1"
     inkscape:groupmode="layer"
     id="layer1"
     transform="translate(-17.341937,-129.896)">
    <path
       style="fill:#01a808;fill-opacity:1;stroke:#000000;stroke-width:0.359312;stroke-dasharray:none;stroke-opacity:1"
       d="m 26.41973,130.08485 c -1.088952,-0.0531 -1.796068,0.81601 -2.625603,1.30475 -1.180905,-0.35466 -2.743235,-0.41588 -3.528611,0.71968 0.113385,0.95501 1.55732,1.51045 0.879378,2.54146 -0.735372,0.60055 0.792434,1.46574 -0.11601,1.83932 -1.198683,0.69809 -1.599025,1.18559 0.113503,0.87186 0.492427,0.088 1.686579,-0.31483 1.765201,0.4157 -0.389005,0.42974 -0.608512,1.31655 0.294678,1.17978 1.186009,0.0766 2.205738,0.87061 3.449511,0.75703 1.062515,-0.15445 2.349251,0.58851 1.917703,1.78551 0.290446,0.52533 1.33353,1.07916 0.57002,1.76091 -0.935059,0.92495 -2.73836,0.80735 -3.303397,2.07563 0.509122,1.56728 -1.017403,2.71679 -1.639882,3.96543 0.116287,0.85234 0.141577,2.01409 -0.987868,2.17016 -0.522694,0.34984 -1.487589,-0.20942 -1.841108,0.28 0.142206,1.13101 0.626166,2.21625 1.03334,3.23716 -0.88382,0.94913 -2.854551,1.8013 -2.142589,3.41546 0.121818,0.50813 0.993701,1.46937 0.0097,1.62091 -1.346294,0.59074 -3.28947,1.88781 -2.608415,3.58984 0.961754,0.16921 2.03287,0.44524 2.362075,1.51564 0.664705,1.14708 0.949971,2.43983 1.451905,3.64856 -0.284464,1.28774 0.845691,2.31476 1.773794,2.99224 1.236347,-0.72878 2.535771,-1.38178 4.014489,-1.35594 1.141387,-0.17816 2.250047,-0.70607 3.402622,-0.20477 1.807455,0.43593 3.686042,0.68175 5.359292,1.51524 0.885236,-0.10273 1.850569,-0.4577 2.586769,0.30643 1.671693,-0.78903 2.538913,-3.36944 4.74902,-3.24927 1.011206,-0.0507 2.271292,0.34744 2.435476,-1.02832 0.867251,-2.00708 2.814789,-3.306 4.907831,-3.74846 -1.987101,-1.46126 -1.949374,-4.6657 -0.04726,-6.18214 1.665253,-1.75054 3.947285,-2.9547 5.204659,-5.04712 1.759474,-1.0542 4.082132,-0.19466 5.8069,-1.43471 1.361602,-0.8392 3.275436,-0.82741 4.356074,-2.06346 0.03973,-0.70129 0.181718,-1.39505 0.377386,-2.0341 -0.362776,-1.06558 -1.565437,-0.0423 -2.324836,-0.2535 -1.449562,-0.10662 -2.65594,-1.18954 -4.1305,-1.13539 -0.608465,-0.46641 -0.01172,-1.48422 -0.918404,-1.73942 -0.627697,-0.58462 -1.402458,-0.54639 -2.156195,-0.34875 -2.830724,-0.13847 -5.071703,-2.1091 -7.305712,-3.62707 -0.475724,-0.4642 0.08678,-1.49529 -0.893342,-1.59907 -1.092859,-0.23711 -2.389383,0.0765 -3.156405,-0.98392 -0.747901,-1.07426 -2.089627,0.12581 -2.913775,-0.80471 -1.409702,-1.29186 -3.546895,-0.54883 -5.12005,-1.55164 -1.480345,-0.57342 -2.814021,-1.46284 -4.187787,-2.20597 -2.05849,-0.40388 -4.656724,-0.39029 -5.881377,-2.40325 -0.255006,-0.30906 -0.564479,-0.57132 -0.992165,-0.50772 z"
       id="path38567" />
  </g>
</svg>
