<?xml version="1.0" encoding="UTF-8" standalone="no"?>
<!-- Created with Inkscape (http://www.inkscape.org/) -->

<svg
   width="116.844"
   height="280.05099"
   viewBox="0 0 30.914975 74.096825"
   version="1.1"
   id="svg85049"
   inkscape:version="1.2.2 (732a01da63, 2022-12-09)"
   sodipodi:docname="sweden.svg"
   xmlns:inkscape="http://www.inkscape.org/namespaces/inkscape"
   xmlns:sodipodi="http://sodipodi.sourceforge.net/DTD/sodipodi-0.dtd"
   xmlns="http://www.w3.org/2000/svg"
   xmlns:svg="http://www.w3.org/2000/svg">
  <sodipodi:namedview
     id="namedview85051"
     pagecolor="#ffffff"
     bordercolor="#000000"
     borderopacity="0.25"
     inkscape:showpageshadow="2"
     inkscape:pageopacity="0.0"
     inkscape:pagecheckerboard="0"
     inkscape:deskcolor="#d1d1d1"
     inkscape:document-units="mm"
     showgrid="false"
     inkscape:zoom="0.72515432"
     inkscape:cx="-370.26601"
     inkscape:cy="84.809534"
     inkscape:window-width="1920"
     inkscape:window-height="1001"
     inkscape:window-x="-9"
     inkscape:window-y="-9"
     inkscape:window-maximized="1"
     inkscape:current-layer="layer1" />
  <defs
     id="defs85046" />
  <g
     inkscape:label="Layer 1"
     inkscape:groupmode="layer"
     id="layer1"
     transform="translate(-115.16802,-126.41203)">
    <path
       style="fill:#f0ef19;fill-opacity:1;stroke:#000000;stroke-width:0.4;stroke-dasharray:none"
       d="m 136.68706,126.62812 c -0.63186,-0.0564 -0.63001,0.64895 -0.48997,1.08582 0.0791,0.71039 0.1711,1.41936 0.24261,2.1306 -1.31259,0.16241 -2.70474,-0.0412 -3.97065,0.35749 -0.42457,0.59787 -0.24523,1.47378 -0.43851,2.16673 0.0916,0.65563 -0.2702,0.49817 -0.68941,0.30812 -0.69399,-0.28612 -1.4458,0.10452 -1.65961,0.80993 -0.34124,0.87159 -0.96805,1.56422 -1.3011,2.42016 -0.18651,0.95636 1.02918,2.00319 0.16305,2.84247 -0.94377,0.88173 -1.67184,2.06132 -1.82873,3.3496 -0.44314,0.68966 -1.70618,0.53466 -1.82924,1.52086 -0.22686,1.61788 0.19686,3.33625 -0.6193,4.84071 -0.36823,1.02759 -1.03073,1.90318 -1.49527,2.85905 0.81364,0.55919 1.39011,1.59519 1.0583,2.59612 -0.0501,0.56 -0.69145,0.044 -1.03374,0.14482 -1.68921,-0.1711 -3.01497,1.18756 -3.66481,2.61005 -0.33388,0.69689 -0.95088,1.38496 -0.50813,2.18395 0.35238,1.30651 -0.45695,2.6693 0.19318,3.94786 0.49549,1.35111 -0.0195,2.8117 0.11443,4.1618 0.54609,0.59065 1.76151,1.05933 1.46086,2.05862 -0.13371,0.52087 -0.34235,1.2862 -1.0426,1.14919 -0.80218,-0.002 -0.99191,0.98394 -0.63751,1.56011 0.46,1.0378 0.98317,2.28791 0.41319,3.3701 -0.54094,1.25024 -1.94376,2.02922 -2.21154,3.39744 -0.17913,0.99587 0.54702,2.28404 -0.26002,3.09388 -0.36533,-0.21786 -0.43531,-1.15757 -1.00893,-0.79524 -0.62664,1.32493 -0.0349,2.86382 0.39677,4.16645 0.5768,1.25162 0.76165,2.60204 0.86585,3.95156 0.4722,1.7635 1.94125,3.02721 2.80753,4.56589 0.24806,0.58867 -0.009,1.15067 -0.14482,1.6996 0.17833,0.43834 -0.91026,0.2442 -0.40963,0.85856 0.46266,1.06938 0.82965,2.19419 0.78155,3.37261 0.0547,0.99009 1.29891,0.92545 2.01052,0.86513 0.64335,-0.0542 1.89984,-0.12457 1.76468,-1.05957 -0.11498,-0.69707 -0.48284,-1.72614 0.38787,-2.09077 1.19301,-0.641 2.5942,-1.32524 3.96635,-0.86133 0.88041,-0.0786 0.97323,-1.2277 1.3305,-1.84863 0.71012,-1.31364 0.43187,-2.84484 0.75951,-4.24013 0.44846,-0.5155 0.79532,-1.27362 0.3185,-1.89532 -0.15667,-0.39309 -0.79245,-0.78086 -0.25166,-1.09147 0.91083,-1.11038 0.20804,-2.71999 1.07577,-3.86178 0.50701,-0.81822 1.21947,-1.69628 2.26218,-1.70973 0.99649,-0.54029 1.41488,-1.7856 1.26717,-2.86197 0.17488,-1.09726 1.98437,-0.8815 1.8781,-2.10445 -0.0946,-0.90418 -1.13442,-1.29964 -1.53485,-2.05923 -0.51644,-0.70196 -1.12552,-1.7929 -2.17856,-1.48531 -0.60388,-0.0786 -0.79701,-0.86993 -1.23477,-1.22869 0.0835,-3.02934 0.19894,-6.05088 0.44003,-9.06846 1.14768,-1.12618 1.98207,-2.49976 2.83791,-3.84279 1.30789,-1.44299 2.94637,-2.55268 4.33118,-3.90761 0.3269,-1.22183 0.88541,-2.38309 1.61275,-3.39536 -0.13134,-0.80869 -1.35882,-1.51934 -0.69468,-2.35193 0.50937,-0.90391 0.59278,-1.9628 0.96383,-2.90393 0.64367,-0.67245 1.18939,-1.43207 1.61809,-2.25103 0.92714,-0.46229 2.06894,-0.33214 2.99514,-0.75246 -0.12907,-1.04656 -1.17293,-1.90693 -0.91024,-3.05084 -0.025,-1.20531 0.13249,-2.47396 -0.3972,-3.5929 -0.0708,-0.80461 -0.0105,-1.67726 -0.59953,-2.33206 -0.73827,-1.34083 -0.22328,-3.32178 -1.67935,-4.25016 -1.55011,-0.66436 -3.014,-1.53809 -4.36334,-2.56827 -0.32596,-0.46044 -0.51383,-1.12095 -1.2297,-0.98386 z"
       id="path85022" />
    <path
       style="fill:#f0ef19;fill-opacity:1;stroke:#000000;stroke-width:0.4;stroke-dasharray:none"
       d="m 136.92708,186.82788 c -1.35616,0.11847 -2.10363,1.66084 -1.93153,2.90121 0.0911,0.51731 -0.12493,1.39449 0.47345,1.63682 0.60442,-0.24014 0.75418,-1.06714 1.12286,-1.56315 0.52712,-0.74168 -0.0948,-1.83747 0.68739,-2.42548 0.21527,-0.26979 -0.0288,-0.60235 -0.35217,-0.5494 z"
       id="path85024" />
    <path
       style="fill:#f0ef19;fill-opacity:1;stroke:#000000;stroke-width:0.4;stroke-dasharray:none"
       d="m 131.05523,191.91576 c -0.25623,0.0951 -0.31489,0.41249 -0.45928,0.61744 -0.35026,0.67685 -0.67872,1.42184 -0.58764,2.20293 0.003,0.21008 0.0157,0.54482 0.29498,0.55615 0.29422,-0.006 0.27456,-0.38645 0.35767,-0.58697 0.22659,-0.84586 0.47191,-1.68825 0.68226,-2.53751 0.007,-0.15378 -0.13801,-0.27361 -0.28799,-0.25204 z"
       id="path85026" />
    <path
       style="fill:#f0ef19;fill-opacity:1;stroke:#000000;stroke-width:0.4;stroke-dasharray:none"
       d="m 131.68622,190.16762 c -0.1011,0.0295 -0.12379,0.1456 -0.1662,0.22824 -0.0563,0.12524 -0.0826,0.2772 -0.0249,0.40545 0.0507,0.0821 0.18131,0.0738 0.22605,-0.01 0.0832,-0.12799 0.14185,-0.27611 0.13516,-0.43101 0.008,-0.0798 -0.0233,-0.176 -0.1116,-0.19367 -0.0194,8e-4 -0.0394,-0.002 -0.0585,8e-4 z"
       id="path85032" />
  </g>
</svg>
