<?xml version="1.0" encoding="UTF-8" standalone="no"?>
<!-- Created with Inkscape (http://www.inkscape.org/) -->

<svg
   width="63.611"
   height="38.641998"
   viewBox="0 0 16.830411 10.224029"
   version="1.1"
   id="svg66255"
   inkscape:version="1.2.2 (732a01da63, 2022-12-09)"
   sodipodi:docname="switzerland.svg"
   xmlns:inkscape="http://www.inkscape.org/namespaces/inkscape"
   xmlns:sodipodi="http://sodipodi.sourceforge.net/DTD/sodipodi-0.dtd"
   xmlns="http://www.w3.org/2000/svg"
   xmlns:svg="http://www.w3.org/2000/svg">
  <sodipodi:namedview
     id="namedview66257"
     pagecolor="#ffffff"
     bordercolor="#000000"
     borderopacity="0.25"
     inkscape:showpageshadow="2"
     inkscape:pageopacity="0.0"
     inkscape:pagecheckerboard="0"
     inkscape:deskcolor="#d1d1d1"
     inkscape:document-units="mm"
     showgrid="false"
     showguides="true"
     inkscape:zoom="0.72515432"
     inkscape:cx="-269.59779"
     inkscape:cy="-135.83316"
     inkscape:window-width="1920"
     inkscape:window-height="1001"
     inkscape:window-x="-9"
     inkscape:window-y="-9"
     inkscape:window-maximized="1"
     inkscape:current-layer="layer1">
    <sodipodi:guide
       position="-59.082034,5.8499055"
       orientation="0,-1"
       id="guide67841"
       inkscape:locked="false" />
    <sodipodi:guide
       position="-60.176629,4.0255804"
       orientation="0,-1"
       id="guide67843"
       inkscape:locked="false" />
  </sodipodi:namedview>
  <defs
     id="defs66252" />
  <g
     inkscape:label="Layer 1"
     inkscape:groupmode="layer"
     id="layer1"
     transform="translate(-100.70844,-184.12613)">
    <path
       style="fill:#01a808;fill-opacity:1;stroke:#000000;stroke-width:0.4;stroke-dasharray:none"
       d="m 110.69119,184.32652 c -0.35548,0.13514 -0.33987,0.64431 -0.52092,0.90234 -0.91368,-0.48931 -1.98326,-0.15879 -2.95463,-0.25635 -0.3639,0.0985 -0.61392,0.50928 -1.03754,0.38104 -0.34694,0.0313 -0.81549,-0.38521 -1.06475,10e-4 -0.24601,0.39633 -0.15213,0.9876 -0.63238,1.20502 -0.53628,0.483 -1.24611,0.81268 -1.64904,1.42718 -0.12631,0.37683 -0.29727,0.74784 -0.65549,0.95804 -0.69497,0.56892 -1.00295,1.46888 -1.26148,2.29788 -0.0681,0.32108 0.35709,0.37672 0.50586,0.14849 0.46741,-0.41245 0.87653,-1.126 1.60479,-1.00159 0.41991,-0.0468 0.80015,0.29675 0.70144,0.7298 -0.10413,0.89361 0.19624,1.93431 1.00146,2.4156 0.60786,0.20386 1.18879,-0.4438 1.7929,-0.13469 0.40711,0.17003 0.92904,0.2395 1.25351,-0.12938 0.71548,-0.62779 0.94257,-1.71943 1.85392,-2.13748 0.64033,0.96747 1.13953,2.02715 1.82215,2.96526 0.34739,0.22585 0.45157,-0.32128 0.5651,-0.53738 0.3597,-0.79032 0.67362,-1.67631 1.05628,-2.41155 0.4251,0.26934 0.63142,0.88145 1.15843,0.96601 0.29155,0.0115 0.58247,-0.23902 0.82081,-0.23255 0.0983,0.24223 0.39627,0.70825 0.60308,0.30306 0.0872,-0.4706 0.16794,-0.94249 0.26495,-1.41123 0.36653,0.0759 0.70789,0.30953 1.08438,0.29483 0.28823,-0.36118 -0.0294,-0.9297 0.25602,-1.32541 0.25047,-0.29707 -0.0891,-0.64892 -0.41653,-0.5932 -0.56815,0.14519 -1.21106,0.10642 -1.65872,-0.31483 -0.26681,-0.20172 -0.51752,-0.45925 -0.49282,-0.8193 -0.0226,-0.35475 -0.37659,-0.59703 -0.27243,-0.97057 -0.0186,-0.40596 0.14391,-0.8474 -0.006,-1.2273 -0.45845,-0.45875 -0.98772,-0.87802 -1.65226,-0.96677 -0.57223,-0.0653 -1.13265,-0.18701 -1.66431,-0.42033 -0.13306,-0.0386 -0.26443,-0.11108 -0.40596,-0.10566 z"
       id="path3743" />
  </g>
</svg>
