<?xml version="1.0" encoding="UTF-8" standalone="no"?>
<!-- Created with Inkscape (http://www.inkscape.org/) -->

<svg
   width="102.516"
   height="51.220001"
   viewBox="0 0 27.124026 13.551959"
   version="1.1"
   id="svg96738"
   inkscape:version="1.2.2 (732a01da63, 2022-12-09)"
   sodipodi:docname="austria.svg"
   xmlns:inkscape="http://www.inkscape.org/namespaces/inkscape"
   xmlns:sodipodi="http://sodipodi.sourceforge.net/DTD/sodipodi-0.dtd"
   xmlns="http://www.w3.org/2000/svg"
   xmlns:svg="http://www.w3.org/2000/svg">
  <sodipodi:namedview
     id="namedview96740"
     pagecolor="#ffffff"
     bordercolor="#000000"
     borderopacity="0.25"
     inkscape:showpageshadow="2"
     inkscape:pageopacity="0.0"
     inkscape:pagecheckerboard="0"
     inkscape:deskcolor="#d1d1d1"
     inkscape:document-units="mm"
     showgrid="false"
     inkscape:zoom="0.72515432"
     inkscape:cx="-217.19515"
     inkscape:cy="-111.01085"
     inkscape:window-width="1920"
     inkscape:window-height="1001"
     inkscape:window-x="-9"
     inkscape:window-y="-9"
     inkscape:window-maximized="1"
     inkscape:current-layer="layer1" />
  <defs
     id="defs96735" />
  <g
     inkscape:label="Layer 1"
     inkscape:groupmode="layer"
     id="layer1"
     transform="translate(-74.734679,-178.20715)">
    <path
       style="fill:#f0ef19;fill-opacity:1;stroke:#000000;stroke-width:0.4;stroke-dasharray:none"
       d="m 94.276283,178.42314 c -0.419155,1.40405 -2.226138,2.59003 -3.53291,1.48126 -0.461703,-0.44529 -0.779317,0.0359 -0.98357,0.40962 -0.51621,0.19808 -1.090099,0.40979 -1.204849,1.03334 -0.56416,0.80701 -2.047494,1.00752 -1.847553,2.23926 0.03097,0.80276 0.309208,1.7614 0.274626,2.44908 -0.653137,-0.78547 -1.636342,-0.99946 -2.608347,-0.80455 -1.446392,-0.021 -2.774556,0.58023 -4.129492,0.95529 -0.827442,0.13738 -1.748661,-1.12293 -2.415426,-0.33227 -0.259729,0.32573 -0.408419,1.27953 -0.850734,0.54138 -0.468585,-0.39965 -1.225666,-1.51344 -1.87942,-0.84322 -0.537488,1.24691 0.311319,3.19497 1.840392,3.00944 0.948732,-0.21187 1.692899,0.66023 2.579055,0.64198 0.65469,-0.20889 0.871169,-1.08617 1.707914,-0.94776 0.805519,-0.0709 1.680673,-0.34188 2.450156,-0.14823 0.773512,0.91901 1.19534,2.45649 2.653887,2.44657 2.191488,0.0642 4.263996,1.3209 6.46429,0.92915 1.025316,-0.50429 2.028211,-1.12466 3.217106,-1.17155 0.999984,-0.0969 2.238494,-0.33611 2.532149,-1.44976 0.757206,-0.22159 0.946314,-0.9749 0.874724,-1.67855 0.06391,-0.66796 1.070899,-1.34303 0.368077,-1.97574 -0.569642,-0.23454 0.499212,-0.4507 0.732222,-0.37917 0.65758,0.16814 1.25691,-0.28561 1.12178,-0.98823 0.0578,-1.32013 -1.18433,-2.37472 -0.83176,-3.71373 -0.68182,-1.1449 -2.305063,-0.52347 -3.361402,-0.86756 -1.072279,-0.20139 -2.106377,-0.7259 -3.170915,-0.83605 z"
       id="path96724" />
  </g>
</svg>
