<?xml version="1.0" encoding="UTF-8" standalone="no"?>
<!-- Created with Inkscape (http://www.inkscape.org/) -->

<svg
   width="90.452202"
   height="60.260723"
   viewBox="0 0 23.932144 15.943982"
   version="1.1"
   id="svg105047"
   inkscape:version="1.2.2 (732a01da63, 2022-12-09)"
   sodipodi:docname="hungary.svg"
   xmlns:inkscape="http://www.inkscape.org/namespaces/inkscape"
   xmlns:sodipodi="http://sodipodi.sourceforge.net/DTD/sodipodi-0.dtd"
   xmlns="http://www.w3.org/2000/svg"
   xmlns:svg="http://www.w3.org/2000/svg">
  <sodipodi:namedview
     id="namedview105049"
     pagecolor="#ffffff"
     bordercolor="#000000"
     borderopacity="0.25"
     inkscape:showpageshadow="2"
     inkscape:pageopacity="0.0"
     inkscape:pagecheckerboard="0"
     inkscape:deskcolor="#d1d1d1"
     inkscape:document-units="mm"
     showgrid="false"
     inkscape:zoom="0.72515432"
     inkscape:cx="-348.20175"
     inkscape:cy="-175.82464"
     inkscape:window-width="1920"
     inkscape:window-height="1001"
     inkscape:window-x="-9"
     inkscape:window-y="-9"
     inkscape:window-maximized="1"
     inkscape:current-layer="layer1" />
  <defs
     id="defs105044" />
  <g
     inkscape:label="Layer 1"
     inkscape:groupmode="layer"
     id="layer1"
     transform="translate(-109.65676,-194.86793)">
    <path
       style="fill:#f0ef19;fill-opacity:1;stroke:#000000;stroke-width:0.4;stroke-dasharray:none"
       d="m 127.78555,195.06871 c -0.46269,0.0646 -0.86929,0.39818 -1.36705,0.24026 -0.49135,-0.11402 -1.07646,-0.29364 -1.47554,0.14375 -0.75402,0.60085 -1.11656,1.667 -2.04412,2.03732 -0.54457,0.0169 -1.2518,-0.39296 -1.67157,0.1631 -0.20492,0.40985 -0.61312,0.70827 -1.09224,0.58935 -0.45963,-0.0912 -1.21575,-0.0821 -1.24656,0.54603 0.0907,0.56684 -0.28402,1.06649 -0.82281,1.21398 -0.88062,0.25368 -1.83196,0.13398 -2.73892,0.0972 -0.87788,-0.11399 -1.28155,-1.2317 -2.18126,-1.24745 -0.65084,0.23513 -0.3461,1.10227 -0.19926,1.57937 -0.57467,0.22109 -1.19686,-0.0273 -1.77254,0.0854 -0.45089,0.36371 0.39588,0.73958 0.13177,1.18785 -0.31233,0.44681 -0.88938,0.79363 -0.76606,1.42934 0.0625,0.55403 0.008,1.05254 -0.5451,1.32245 -0.43437,0.42138 0.28441,0.9217 0.42408,1.35077 0.71398,1.34775 2.20708,1.99996 3.09214,3.19724 0.1041,0.44396 0.42273,0.81829 0.90677,0.83623 1.14816,0.2538 2.26986,1.09468 3.48439,0.63841 0.52086,-0.14767 0.93841,-0.53892 1.33787,-0.85664 0.51379,0.2315 1.04228,-0.24664 1.52871,-0.37936 0.55027,-0.23335 1.07255,-0.54788 1.4698,-1.00201 0.85158,-0.0173 1.73022,0.003 2.56098,0.0689 1.01229,-0.38104 1.97629,-0.89402 3.00066,-1.23851 0.45779,-0.44408 0.48246,-1.16921 0.80198,-1.71002 0.71504,-1.65243 1.47272,-3.30086 1.87876,-5.0638 0.9993,-0.80252 2.23859,-1.46343 2.8791,-2.60225 -0.30292,-0.54034 -1.02893,-0.76333 -1.49507,-1.17746 -0.52179,-0.3031 -0.96713,-0.78627 -1.54265,-0.9636 -0.36735,0.2591 -0.87732,0.50531 -1.27681,0.15181 -0.38364,-0.26799 -0.75287,-0.65722 -1.25945,-0.63769 z m -3.28389,13.20822 c -0.12133,-0.079 -0.10723,-0.16038 0,0 z"
       id="path108816" />
  </g>
</svg>
