<?xml version="1.0" encoding="UTF-8" standalone="no"?>
<!-- Created with Inkscape (http://www.inkscape.org/) -->

<svg
   width="29.299122"
   height="59.619362"
   viewBox="0 0 7.7520591 15.77429"
   version="1.1"
   id="svg33055"
   inkscape:version="1.2.2 (732a01da63, 2022-12-09)"
   sodipodi:docname="albania.svg"
   xmlns:inkscape="http://www.inkscape.org/namespaces/inkscape"
   xmlns:sodipodi="http://sodipodi.sourceforge.net/DTD/sodipodi-0.dtd"
   xmlns="http://www.w3.org/2000/svg"
   xmlns:svg="http://www.w3.org/2000/svg">
  <sodipodi:namedview
     id="namedview33057"
     pagecolor="#ffffff"
     bordercolor="#000000"
     borderopacity="0.25"
     inkscape:showpageshadow="2"
     inkscape:pageopacity="0.0"
     inkscape:pagecheckerboard="0"
     inkscape:deskcolor="#d1d1d1"
     inkscape:document-units="mm"
     showgrid="false"
     inkscape:zoom="0.72515432"
     inkscape:cx="-344.0647"
     inkscape:cy="-44.818046"
     inkscape:window-width="1920"
     inkscape:window-height="1001"
     inkscape:window-x="-9"
     inkscape:window-y="-9"
     inkscape:window-maximized="1"
     inkscape:current-layer="layer1" />
  <defs
     id="defs33052" />
  <g
     inkscape:label="Layer 1"
     inkscape:groupmode="layer"
     id="layer1"
     transform="translate(-71.142897,-160.10444)">
    <path
       style="fill:#f0ef19;fill-opacity:1;stroke:#000000;stroke-width:0.5;stroke-dasharray:none;stroke-opacity:1"
       d="m 73.884231,160.31391 c -0.334846,0.14704 -0.328348,0.49504 -0.77053,0.29826 -0.93947,0.15597 -1.330368,1.34468 -1.75309,2.03191 0.375399,1.22419 1.353638,2.44377 0.852228,3.79862 -0.09812,2.09518 -0.35574,4.26026 0.139285,6.31999 0.666012,1.22434 2.190067,1.67073 2.983296,2.81287 0.648901,0.41063 0.860523,-0.49444 0.897996,-0.95278 0.484333,-0.74434 1.383736,-1.24775 1.46408,-2.22387 0.484264,-0.76518 1.37174,-1.56002 0.83498,-2.55865 -0.247187,-0.65391 -1.165474,-0.51578 -1.43078,-1.22489 -1.59581,-1.95231 0.119473,-4.8981 -1.608015,-6.82235 -0.488471,-0.4873 -0.896737,-1.32015 -1.60945,-1.47911 z"
       id="path25269" />
  </g>
</svg>
