<?xml version="1.0" encoding="UTF-8" standalone="no"?>
<!-- Created with Inkscape (http://www.inkscape.org/) -->

<svg
   width="80.422997"
   height="44.528"
   viewBox="0 0 21.278584 11.781367"
   version="1.1"
   id="svg73649"
   inkscape:version="1.2.2 (732a01da63, 2022-12-09)"
   sodipodi:docname="latvia.svg"
   xmlns:inkscape="http://www.inkscape.org/namespaces/inkscape"
   xmlns:sodipodi="http://sodipodi.sourceforge.net/DTD/sodipodi-0.dtd"
   xmlns="http://www.w3.org/2000/svg"
   xmlns:svg="http://www.w3.org/2000/svg">
  <sodipodi:namedview
     id="namedview73651"
     pagecolor="#ffffff"
     bordercolor="#000000"
     borderopacity="0.25"
     inkscape:showpageshadow="2"
     inkscape:pageopacity="0.0"
     inkscape:pagecheckerboard="0"
     inkscape:deskcolor="#d1d1d1"
     inkscape:document-units="mm"
     showgrid="false"
     inkscape:zoom="0.72515432"
     inkscape:cx="-232.36433"
     inkscape:cy="-73.7774"
     inkscape:window-width="1920"
     inkscape:window-height="1001"
     inkscape:window-x="-9"
     inkscape:window-y="-9"
     inkscape:window-maximized="1"
     inkscape:current-layer="layer1" />
  <defs
     id="defs73646" />
  <g
     inkscape:label="Layer 1"
     inkscape:groupmode="layer"
     id="layer1"
     transform="translate(-79.118815,-167.79218)">
    <path
       style="fill:#f0ef19;fill-opacity:1;stroke:#000000;stroke-width:0.4;stroke-dasharray:none"
       d="m 90.491357,167.99321 c -0.961525,-0.0271 -2.113751,0.65883 -1.988984,1.74336 -0.01048,1.05541 0.59072,2.18594 -0.09184,3.1446 -0.441359,0.4533 -0.887098,1.01274 -1.501852,1.20736 -0.968163,0.0603 -1.319704,-1.03954 -1.862235,-1.63362 -0.506439,-0.60611 -1.30451,-0.91643 -1.681057,-1.63917 -0.526021,-0.49691 -1.285885,0.039 -1.737632,0.38187 -0.998466,0.83923 -1.157926,2.19954 -1.426303,3.38306 -0.281522,0.64499 -0.878734,1.1747 -0.873112,1.93295 -0.04244,0.95732 0.04933,1.98458 0.478536,2.83918 0.526548,-0.0851 0.833303,-0.704 1.267331,-1.01472 0.746088,-0.7906 1.834655,-1.18098 2.911149,-1.04802 0.813324,0.0492 1.654755,0.265 2.441382,-0.0496 1.342541,-0.12541 2.809145,0.0188 3.997124,-0.75818 0.330081,-0.3335 0.553011,-0.14068 0.755671,0.24097 0.288182,0.3767 0.617929,0.84016 1.158047,0.76447 1.259208,-0.0184 2.123721,1.00261 3.133757,1.59474 0.29223,0.2744 0.683051,0.37786 1.021165,0.11332 0.680357,-0.36544 1.413454,-0.64917 2.195581,-0.66669 0.606478,-0.60455 0.98715,-1.44259 1.505255,-2.13847 -0.0386,-0.62415 -0.546323,-1.17378 -0.767589,-1.76859 -0.638352,-1.18394 -1.082818,-2.40845 -1.496737,-3.6885 -0.323297,-0.57133 -0.687321,-1.23223 -1.300985,-1.52137 -0.93031,-0.18521 -1.870353,0.85004 -2.743404,0.20034 -0.962483,-0.83414 -2.050889,-1.65313 -3.393266,-1.6193 z"
       id="path73635" />
  </g>
</svg>
